<?xml version="1.0" standalone="no"?>
<!DOCTYPE svg PUBLIC "-//W3C//DTD SVG 20010904//EN"
 "http://www.w3.org/TR/2001/REC-SVG-20010904/DTD/svg10.dtd">
<svg version="1.0" xmlns="http://www.w3.org/2000/svg"
 width="274.000000pt" height="184.000000pt" viewBox="0 0 274.000000 184.000000"
 preserveAspectRatio="xMidYMid meet">
<metadata>
Created by potrace 1.16, written by Peter Selinger 2001-2019
</metadata>
<g transform="translate(0.000000,184.000000) scale(0.100000,-0.100000)"
fill="#000000" stroke="none">
<path d="M0 920 l0 -920 1070 0 1070 0 -6 26 c-5 20 -3 25 7 22 8 -3 13 -15
11 -26 l-3 -22 295 0 296 0 0 920 0 920 -456 0 -456 0 3 -57 c2 -32 0 -64 -5
-72 -5 -8 -10 -40 -11 -71 -1 -31 -4 -61 -8 -67 -4 -6 28 -34 76 -66 45 -31
91 -68 102 -83 11 -15 30 -39 42 -52 31 -33 66 -109 67 -143 1 -16 4 -29 9
-29 4 0 5 -24 3 -52 -4 -43 -3 -50 7 -36 11 17 16 7 40 -87 1 -5 5 -14 8 -20
15 -24 19 -68 9 -81 -7 -7 -8 -19 -4 -25 5 -9 9 -7 14 7 5 13 8 8 8 -19 0 -20
-4 -40 -9 -43 -5 -3 -9 -10 -9 -15 0 -6 5 -7 10 -4 6 3 10 -5 10 -19 0 -14 5
-28 10 -31 6 -3 10 -11 10 -18 0 -8 -3 -8 -11 0 -6 6 -18 9 -26 6 -13 -5 -13
-2 -4 15 7 13 8 22 2 22 -16 0 -24 -20 -24 -60 0 -28 -3 -37 -13 -33 -9 3 -14
-2 -14 -13 0 -9 -3 -14 -7 -11 -9 10 -33 -13 -33 -32 0 -14 2 -14 10 -1 5 8
12 12 15 8 3 -3 -1 -13 -10 -21 -8 -9 -15 -21 -15 -27 0 -6 -4 -8 -10 -5 -5 3
-10 17 -10 31 0 13 -4 24 -9 24 -10 0 -21 -34 -21 -67 0 -12 -5 -25 -10 -28
-7 -4 -9 3 -5 22 l6 28 -15 -25 c-8 -14 -12 -28 -10 -32 2 -3 0 -9 -6 -13 -5
-3 -10 -1 -10 4 0 6 -5 10 -12 9 -22 -5 -20 30 2 37 11 4 20 12 19 18 -4 30 2
77 9 77 4 0 6 -16 4 -36 -3 -26 -1 -35 7 -30 6 4 11 15 11 26 0 11 10 20 25
24 57 14 119 154 81 181 -20 15 -21 26 -1 19 12 -5 15 1 14 27 -1 19 -3 26 -6
17 -2 -10 -10 -18 -17 -18 -23 0 -25 12 -6 29 27 22 36 73 17 93 -9 9 -13 25
-10 43 4 19 2 26 -6 21 -6 -4 -11 -19 -11 -33 0 -15 -8 -35 -17 -45 -18 -20
-25 -58 -11 -58 14 0 -2 -64 -18 -73 -8 -4 -14 -17 -14 -28 0 -10 -9 -27 -20
-36 -11 -10 -20 -23 -20 -31 0 -7 -4 -10 -10 -7 -5 3 -10 -1 -10 -9 0 -9 -5
-16 -11 -16 -5 0 -8 -4 -4 -9 3 -5 -1 -15 -8 -23 -7 -7 -21 -26 -31 -43 -10
-16 -47 -56 -82 -88 -35 -32 -62 -63 -59 -68 4 -5 -22 -27 -57 -49 -34 -23
-65 -44 -68 -49 -3 -4 -13 -10 -23 -14 -10 -4 -16 -10 -13 -15 2 -4 -3 -9 -12
-10 -9 -1 -35 -3 -57 -6 -91 -9 -120 -31 -64 -48 19 -5 15 -7 -14 -5 -25 1
-43 -4 -50 -14 -18 -24 -87 -14 -87 13 0 28 18 58 35 58 8 0 18 12 21 27 7 25
8 25 20 8 13 -18 14 -17 14 8 0 25 11 32 41 29 4 -1 15 8 25 20 11 12 13 18 7
14 -15 -8 -18 10 -3 19 6 3 10 15 10 25 0 23 49 72 63 63 6 -4 7 4 3 21 -5 19
-3 26 9 26 8 0 15 -8 16 -17 0 -13 2 -14 6 -4 3 8 -1 19 -9 25 -9 6 -18 32
-22 56 l-6 45 15 -35 15 -35 -5 48 c-4 44 2 57 19 40 3 -4 14 -8 24 -9 9 -2
29 -5 45 -8 21 -4 27 -2 27 12 1 21 20 46 39 50 8 2 24 -7 37 -19 26 -24 34
-17 9 7 -8 9 -15 19 -15 24 0 22 94 -19 103 -45 9 -21 -3 -46 -17 -38 -15 10
-36 13 -36 5 0 -4 12 -13 28 -20 23 -10 29 -10 38 3 6 8 14 12 17 8 11 -10 44
26 49 52 4 18 0 25 -19 30 -13 3 -28 17 -34 33 -6 14 -16 30 -22 34 -8 5 -9 8
-1 8 6 0 17 -7 24 -15 7 -8 19 -15 26 -15 8 0 14 -6 14 -14 0 -8 7 -16 15 -20
10 -3 15 1 15 13 0 10 7 21 15 25 20 7 19 24 -1 22 -9 0 -19 5 -22 13 -3 10 1
12 17 8 16 -4 21 0 22 16 1 12 1 26 0 31 -1 4 3 13 8 20 5 6 12 37 15 68 4 47
2 61 -15 82 -12 15 -18 33 -15 41 3 9 0 12 -9 9 -8 -3 -28 4 -44 15 -16 12
-35 21 -42 21 -7 0 -21 7 -31 16 -14 14 -20 14 -33 4 -10 -8 -15 -9 -15 -1 0
6 -5 11 -11 11 -5 0 -7 -6 -3 -13 5 -8 2 -7 -9 2 -22 17 -34 7 -17 -14 11 -13
9 -13 -23 0 -20 8 -46 15 -57 15 -11 0 -20 5 -20 10 0 6 -7 10 -15 10 -25 0
-76 -30 -70 -40 4 -6 1 -10 -4 -10 -6 0 -11 -6 -11 -14 0 -8 -4 -16 -10 -18
-15 -5 -33 -142 -30 -233 2 -93 2 -106 -4 -199 -3 -38 -7 -71 -10 -73 -10 -11
-27 11 -23 28 7 28 -1 23 -23 -13 -11 -18 -23 -33 -27 -33 -5 0 -7 -16 -6 -35
l2 -35 -14 25 c-11 19 -14 21 -15 8 0 -10 -6 -18 -14 -18 -7 0 -19 -7 -26 -15
-7 -8 -21 -15 -31 -15 -11 0 -19 -6 -19 -12 0 -7 -5 -5 -11 5 -10 18 -11 18
-24 1 -11 -16 -13 -15 -19 13 -5 22 -12 30 -22 26 -8 -3 -14 0 -14 7 0 7 -8
20 -18 29 -9 9 -24 30 -32 46 -8 17 -15 31 -16 33 -4 8 -54 -23 -59 -36 -8
-22 6 -103 17 -96 5 3 8 0 7 -7 -5 -22 33 -92 41 -79 11 18 49 -23 57 -60 3
-16 9 -27 14 -25 9 6 39 -46 39 -70 0 -8 -5 -15 -11 -15 -8 0 -7 -6 2 -17 13
-15 11 -16 -16 -9 -16 4 -35 14 -41 22 -6 7 -16 14 -23 14 -6 0 -11 5 -11 10
0 6 -6 10 -13 10 -7 0 -29 11 -49 25 -20 14 -44 25 -53 25 -17 0 -36 39 -27
54 3 5 -2 6 -12 3 -10 -4 -24 1 -36 13 -11 11 -22 20 -24 20 -2 0 -26 22 -54
50 -27 27 -52 46 -56 43 -3 -4 -6 1 -6 10 0 10 -6 17 -14 17 -8 0 -15 8 -16
18 0 9 -2 35 -3 57 -1 22 -6 45 -12 52 -23 28 -31 39 -43 64 -7 14 -12 29 -11
35 4 18 -14 44 -31 44 -23 0 -35 16 -19 26 8 4 7 9 -2 15 -12 8 -11 11 1 20
12 9 11 10 -8 6 -19 -5 -22 -2 -16 15 5 17 3 18 -15 9 -22 -12 -27 -26 -12
-35 4 -3 5 -23 2 -43 -8 -44 -3 -76 10 -68 5 4 9 -14 9 -39 0 -25 5 -48 11
-52 8 -4 6 -10 -6 -17 -12 -7 -20 -5 -26 4 -6 10 -9 7 -10 -11 -1 -17 -3 -19
-6 -7 -2 9 -9 17 -14 17 -13 0 -11 -13 6 -36 13 -16 16 -17 25 -4 8 13 11 11
16 -8 5 -17 9 -20 20 -11 18 15 34 3 34 -28 0 -18 4 -24 15 -19 11 4 14 -1 13
-19 -1 -14 -7 -25 -12 -25 -6 0 -4 -6 3 -12 10 -11 15 -9 27 6 7 11 17 16 21
12 4 -4 3 -10 -3 -14 -21 -14 -22 -38 -3 -51 11 -6 24 -9 29 -6 6 4 10 -4 9
-17 0 -13 -3 -17 -6 -10 -10 26 -23 10 -23 -30 0 -23 -2 -39 -4 -37 -3 3 -14
67 -16 90 0 4 -9 9 -20 12 -13 3 -18 10 -14 21 4 10 0 18 -10 22 -9 3 -16 15
-16 25 0 10 -4 19 -10 19 -5 0 -10 9 -10 20 0 11 -3 20 -7 20 -5 0 -18 3 -30
6 -27 8 -33 -20 -7 -30 9 -4 14 -9 10 -13 -3 -4 4 -18 16 -32 13 -14 16 -20 8
-13 -19 17 -30 15 -30 -5 0 -26 -14 -5 -16 25 -1 15 -7 43 -12 62 -39 131 -41
147 -37 260 6 169 27 287 62 343 4 7 9 20 10 29 2 10 12 35 23 55 11 21 20 45
20 53 0 40 55 97 158 167 133 89 130 87 232 109 101 22 277 22 391 1 l76 -14
-5 26 c-3 14 -11 31 -18 38 -7 7 -15 31 -19 53 -8 50 -17 55 -54 35 -17 -8
-44 -15 -60 -15 -17 0 -46 -8 -66 -17 -34 -16 -36 -16 -97 12 -35 16 -70 37
-80 47 -15 17 -39 18 -314 18 -178 0 -294 -4 -288 -9 5 -5 18 -11 28 -13 13
-2 20 -12 20 -31 1 -22 -6 -32 -40 -52 -45 -27 -76 -24 -103 9 -8 9 -29 16
-50 16 l-36 1 31 17 c17 9 46 27 65 39 l34 23 -262 0 -263 0 0 -920z m420 885
c0 -8 -4 -15 -10 -15 -5 0 -10 7 -10 15 0 8 5 15 10 15 6 0 10 -7 10 -15z
m-75 -5 c-3 -5 -10 -10 -16 -10 -5 0 -9 5 -9 10 0 6 7 10 16 10 8 0 12 -4 9
-10z m1775 -824 c-14 -14 -22 -2 -14 18 5 14 9 15 15 4 4 -7 4 -17 -1 -22z
m-40 -134 c0 -5 -7 -17 -16 -28 -8 -10 -14 -14 -11 -9 2 6 7 18 10 28 7 17 17
23 17 9z m30 -37 c0 -8 -4 -15 -10 -15 -5 0 -7 7 -4 15 4 8 8 15 10 15 2 0 4
-7 4 -15z m-543 -47 c-3 -8 -6 -5 -6 6 -1 11 2 17 5 13 3 -3 4 -12 1 -19z
m502 -10 c-12 -24 -28 -38 -42 -38 -5 0 4 15 20 33 32 38 41 40 22 5z m-1359
-48 c0 -5 -5 -10 -11 -10 -5 0 -7 5 -4 10 3 6 8 10 11 10 2 0 4 -4 4 -10z
m1500 -33 c10 -4 8 -6 -7 -6 -16 -1 -23 5 -23 17 0 10 3 13 8 6 4 -6 14 -14
22 -17z m-1066 -12 c-4 -8 -8 -15 -10 -15 -2 0 -4 7 -4 15 0 8 4 15 10 15 5 0
7 -7 4 -15z m1046 -42 c-1 -24 -2 -26 -11 -10 -5 9 -7 22 -4 27 10 17 15 11
15 -17z m-265 -63 c-4 -11 -2 -20 4 -20 15 0 14 -27 -1 -33 -9 -3 -13 6 -12
27 1 39 3 46 10 46 3 0 2 -9 -1 -20z m145 10 c0 -5 -2 -10 -4 -10 -3 0 -8 5
-11 10 -3 6 -1 10 4 10 6 0 11 -4 11 -10z m200 -36 c0 -14 -3 -14 -15 -4 -8 7
-15 14 -15 16 0 2 7 4 15 4 8 0 15 -7 15 -16z m-279 -37 c-8 -8 -11 -7 -11 2
0 11 -3 11 -15 1 -11 -9 -15 -9 -15 -1 0 15 44 32 49 19 2 -5 -2 -15 -8 -21z
m-93 -38 c-2 -13 -11 -23 -24 -25 l-21 -3 21 42 c21 42 32 35 24 -14z m-1143
13 c-3 -3 -11 0 -18 7 -9 10 -8 11 6 5 10 -3 15 -9 12 -12z m1235 -2 c0 -5 -5
-10 -11 -10 -5 0 -7 5 -4 10 3 6 8 10 11 10 2 0 4 -4 4 -10z m39 -40 c-7 -5
-17 -6 -22 -3 -5 3 -4 9 2 13 7 3 9 15 5 26 -5 15 -2 14 11 -5 14 -19 15 -25
4 -31z m-1336 -19 c-4 -15 2 -21 26 -26 34 -7 38 -16 17 -34 -11 -9 -15 -7
-19 9 -7 28 -44 26 -50 -2 -3 -17 -5 -14 -6 10 0 17 4 32 10 32 5 0 7 5 4 10
-8 13 4 32 15 25 4 -3 6 -14 3 -24z m1297 19 c0 -5 -2 -10 -4 -10 -3 0 -8 5
-11 10 -3 6 -1 10 4 10 6 0 11 -4 11 -10z m280 -21 c0 -6 -4 -7 -10 -4 -5 3
-10 11 -10 16 0 6 5 7 10 4 6 -3 10 -11 10 -16z m-223 -21 c-2 -25 -3 -26 -14
-11 -17 22 -16 40 1 40 10 0 14 -10 13 -29z m-1236 -14 c-5 -16 -10 -21 -10
-12 -1 18 10 51 15 45 2 -1 -1 -16 -5 -33z m1186 -2 c4 -25 -6 -62 -17 -62 -6
0 -8 10 -5 23 3 12 7 32 8 44 1 25 9 22 14 -5z m-247 8 c0 -5 -5 -10 -11 -10
-5 0 -7 5 -4 10 3 6 8 10 11 10 2 0 4 -4 4 -10z m317 -27 c-3 -10 -5 -4 -5 12
0 17 2 24 5 18 2 -7 2 -21 0 -30z m-1208 -15 c14 -16 20 -28 13 -28 -16 0 -42
29 -42 47 0 9 1 14 3 12 1 -2 13 -16 26 -31z m1336 22 c3 -5 1 -10 -4 -10 -6
0 -11 5 -11 10 0 6 2 10 4 10 3 0 8 -4 11 -10z m-1420 -20 c-7 -22 5 -26 22
-9 17 17 26 -7 11 -31 -7 -11 -19 -20 -26 -20 -7 0 -10 5 -7 10 3 6 2 10 -4
10 -5 0 -14 -8 -20 -17 -9 -17 -10 -17 -16 0 -4 9 -2 24 5 32 7 8 9 15 5 15
-4 0 -2 7 5 15 18 21 32 19 25 -5z m1289 -45 c-4 -8 -8 -15 -10 -15 -2 0 -4 7
-4 15 0 8 4 15 10 15 5 0 7 -7 4 -15z m-1114 -20 c0 -16 -6 -25 -15 -25 -18 0
-20 21 -3 38 17 17 18 16 18 -13z m-263 -7 c-3 -8 -6 -5 -6 6 -1 11 2 17 5 13
3 -3 4 -12 1 -19z m186 2 c4 -17 2 -20 -14 -15 -15 5 -19 1 -19 -14 0 -18 -3
-19 -18 -10 -10 7 -19 18 -19 25 0 7 4 11 9 8 4 -3 18 2 30 10 27 20 25 20 31
-4z m1222 -10 c3 -5 1 -10 -4 -10 -6 0 -11 5 -11 10 0 6 2 10 4 10 3 0 8 -4
11 -10z m-1385 -31 c0 -6 -4 -7 -10 -4 -5 3 -10 11 -10 16 0 6 5 7 10 4 6 -3
10 -11 10 -16z m1580 -4 c0 -8 -4 -15 -10 -15 -5 0 -10 7 -10 15 0 8 5 15 10
15 6 0 10 -7 10 -15z m-1419 -22 c13 -16 12 -17 -3 -4 -10 7 -18 15 -18 17 0
8 8 3 21 -13z m1169 -3 c0 -5 -2 -10 -4 -10 -3 0 -8 5 -11 10 -3 6 -1 10 4 10
6 0 11 -4 11 -10z m287 -12 c-3 -8 -6 -5 -6 6 -1 11 2 17 5 13 3 -3 4 -12 1
-19z m-229 -9 c-2 -6 -8 -10 -13 -10 -5 0 -11 4 -13 10 -2 6 4 11 13 11 9 0
15 -5 13 -11z m240 -28 c-4 -19 -22 -18 -26 2 -2 7 4 14 13 14 9 0 15 -7 13
-16z m-182 -49 c-4 -3 -11 -1 -17 5 -8 8 -8 15 2 26 12 13 14 13 17 -5 2 -11
1 -22 -2 -26z"/>
<path d="M1048 1612 c-10 -2 -18 -7 -18 -12 0 -5 -6 -7 -14 -4 -8 3 -25 0 -38
-7 -13 -7 -26 -13 -30 -14 -17 -1 -68 -47 -62 -57 5 -8 1 -9 -10 -5 -12 5 -27
-3 -48 -23 -16 -17 -31 -30 -34 -30 -20 0 -64 -76 -64 -111 0 -11 -10 -33 -21
-49 -14 -18 -20 -38 -17 -54 3 -14 1 -27 -3 -28 -5 -2 -11 -30 -15 -62 -6 -46
-4 -57 5 -51 7 4 11 15 8 25 -3 11 1 27 9 38 7 11 11 22 8 25 -6 6 22 63 33
69 5 1 16 21 26 42 14 31 21 36 27 25 7 -10 11 -6 16 19 4 19 15 39 25 45 11
7 19 19 19 27 0 13 1 13 10 0 7 -12 12 -11 28 8 11 12 23 22 28 22 11 0 90 40
126 64 24 16 42 17 128 13 100 -5 128 -15 178 -64 7 -7 18 -13 23 -13 5 0 9
-5 9 -12 0 -9 -3 -9 -12 0 -19 19 -27 14 -15 -11 11 -24 11 -24 32 -5 17 17
20 17 23 4 2 -9 11 -16 20 -16 13 0 14 -2 3 -9 -19 -13 4 -24 26 -12 10 5 37
15 61 22 23 7 42 18 42 26 0 15 47 18 68 4 10 -6 7 -10 -12 -15 -14 -3 -26
-11 -26 -16 0 -6 -6 -10 -14 -10 -20 0 -31 -21 -17 -30 7 -4 35 -3 62 2 42 8
57 6 93 -11 61 -30 79 -27 56 9 -11 18 5 30 39 30 17 0 22 -4 17 -16 -4 -11
-2 -15 8 -11 10 4 13 1 9 -9 -3 -9 1 -14 12 -14 10 0 14 5 9 13 -4 6 2 3 14
-7 28 -25 28 -28 -3 -20 -16 4 -25 2 -25 -6 0 -6 4 -9 9 -5 5 3 12 1 16 -5 3
-5 14 -10 25 -10 10 0 21 -8 24 -17 5 -13 9 -14 15 -5 10 17 98 -66 107 -102
3 -14 10 -28 14 -31 5 -3 6 -14 3 -25 -3 -11 0 -20 6 -20 12 0 14 19 11 85 -2
55 -67 183 -101 201 -15 7 -30 25 -33 39 -6 22 -21 30 -48 26 -5 0 -8 3 -8 8
0 5 -13 8 -29 7 -22 -2 -28 2 -23 14 5 12 3 13 -9 3 -11 -9 -20 -8 -39 2 -14
7 -24 16 -22 19 9 21 -1 16 -18 -9 -13 -20 -20 -24 -20 -14 0 10 -12 20 -27
24 -40 11 -73 12 -73 3 0 -4 -5 -8 -10 -8 -6 0 -9 3 -8 8 1 4 -2 18 -6 31 -6
18 -10 21 -17 10 -8 -12 -11 -12 -19 1 -7 11 -10 12 -10 2 0 -8 9 -16 19 -19
26 -7 15 -33 -13 -33 -17 0 -18 2 -6 10 13 8 12 10 -4 10 -12 0 -16 5 -12 15
6 18 -2 45 -15 45 -5 0 -9 -3 -8 -7 2 -16 -14 -53 -23 -53 -11 0 -7 42 5 51 5
4 -3 9 -18 11 -19 4 -30 0 -38 -13 -15 -23 -31 -25 -23 -3 6 14 4 15 -10 4
-13 -12 -17 -11 -25 1 -7 12 -9 12 -9 -1 0 -9 -3 -11 -8 -5 -4 6 -24 10 -45
10 -22 0 -41 4 -44 9 -4 5 -1 6 5 2 7 -4 12 -2 12 5 0 8 -13 10 -43 6 -28 -4
-48 -2 -56 6 -9 9 -14 9 -21 -3 -7 -10 -10 -11 -10 -2 0 15 -44 16 -72 1 -12
-6 -23 -7 -27 -2 -3 5 -14 7 -23 5z m427 -42 c3 -5 1 -10 -4 -10 -6 0 -11 5
-11 10 0 6 2 10 4 10 3 0 8 -4 11 -10z m-19 -33 c17 6 19 -13 2 -23 -6 -4 -14
-2 -16 4 -2 7 -10 12 -17 12 -7 0 -16 7 -19 15 -5 14 -3 14 15 1 12 -8 28 -12
35 -9z m84 -16 c0 -6 -4 -13 -10 -16 -5 -3 -10 1 -10 9 0 9 5 16 10 16 6 0 10
-4 10 -9z"/>
<path d="M1665 1550 c3 -5 10 -10 16 -10 5 0 9 5 9 10 0 6 -7 10 -16 10 -8 0
-12 -4 -9 -10z"/>
<path d="M1715 1550 c4 -6 11 -8 16 -5 14 9 11 15 -7 15 -8 0 -12 -5 -9 -10z"/>
<path d="M1795 1510 c3 -5 8 -10 11 -10 2 0 4 5 4 10 0 6 -5 10 -11 10 -5 0
-7 -4 -4 -10z"/>
<path d="M1257 1379 c7 -7 15 -10 18 -7 3 3 -2 9 -12 12 -14 6 -15 5 -6 -5z"/>
<path d="M1407 1369 c7 -7 15 -10 18 -7 3 3 -2 9 -12 12 -14 6 -15 5 -6 -5z"/>
<path d="M980 1346 c0 -12 -5 -16 -16 -12 -44 17 -60 16 -82 -4 -16 -15 -29
-19 -45 -14 -12 3 -19 3 -15 -1 4 -4 -4 -25 -18 -46 -13 -21 -24 -43 -24 -48
0 -5 -7 -14 -15 -21 -8 -7 -15 -23 -15 -37 0 -13 -6 -26 -14 -29 -16 -6 -11
-30 11 -52 7 -8 11 -25 8 -40 -3 -15 -2 -21 1 -14 11 23 26 13 20 -14 -6 -22
-4 -26 11 -22 13 4 18 -1 19 -19 1 -13 -4 -23 -11 -23 -8 0 -17 -5 -21 -12 -5
-8 -2 -9 11 -4 18 7 18 6 1 -13 -18 -19 -17 -20 3 -18 12 1 21 8 21 16 0 11 3
12 11 4 16 -16 2 -53 -19 -47 -14 5 -14 4 1 -6 13 -9 22 -9 32 0 7 6 15 7 17
3 3 -4 3 -3 2 4 -2 6 5 17 13 25 14 11 16 11 10 -4 -5 -15 -2 -16 25 -11 l32
6 -22 -23 c-27 -30 -31 -60 -5 -39 14 12 16 12 9 -1 -4 -8 2 -4 13 9 13 14 21
18 22 10 0 -8 4 -4 9 9 5 12 16 22 25 22 8 0 15 4 15 9 0 5 9 11 21 14 15 4
19 2 15 -8 -3 -8 10 -30 28 -49 26 -28 35 -33 46 -23 10 10 12 8 7 -6 -8 -22
11 -13 31 15 7 10 28 25 47 32 29 12 33 19 31 46 -2 33 23 119 41 142 14 18
11 140 -4 145 -7 3 -10 10 -7 17 7 19 -25 41 -60 41 -28 0 -31 4 -34 33 -2 17
-7 32 -13 32 -9 0 -13 -20 -10 -52 3 -25 -16 -23 -24 2 -7 21 -25 28 -25 8 0
-6 -16 5 -36 26 -19 20 -41 37 -47 39 -7 1 -15 7 -19 12 -4 6 -8 2 -8 -9z"/>
<path d="M1281 1344 c0 -11 3 -14 6 -6 3 7 2 16 -1 19 -3 4 -6 -2 -5 -13z"/>
<path d="M1608 1343 c7 -3 16 -2 19 1 4 3 -2 6 -13 5 -11 0 -14 -3 -6 -6z"/>
<path d="M1408 1293 c7 -3 16 -2 19 1 4 3 -2 6 -13 5 -11 0 -14 -3 -6 -6z"/>
<path d="M1785 1280 c-3 -5 1 -10 9 -10 8 0 18 5 21 10 3 6 -1 10 -9 10 -8 0
-18 -4 -21 -10z"/>
<path d="M1410 1130 c-9 -6 -10 -10 -3 -10 6 0 15 5 18 10 8 12 4 12 -15 0z"/>
<path d="M676 1064 c3 -19 1 -24 -8 -18 -10 6 -10 5 0 -8 8 -10 9 -18 3 -22
-6 -4 -7 -14 -4 -23 9 -23 35 54 27 79 -8 28 -23 21 -18 -8z"/>
<path d="M730 1060 c0 -5 5 -10 10 -10 6 0 10 5 10 10 0 6 -4 10 -10 10 -5 0
-10 -4 -10 -10z"/>
<path d="M2066 1047 c3 -10 9 -15 12 -12 3 3 0 11 -7 18 -10 9 -11 8 -5 -6z"/>
<path d="M1383 1025 c-24 -10 -30 -29 -13 -40 10 -6 4 -31 -13 -53 -6 -7 -9
-39 -8 -72 1 -33 -2 -61 -8 -65 -14 -8 -14 -55 -1 -55 6 0 12 0 15 0 3 0 5 3
4 6 -1 10 24 24 44 24 11 0 15 -4 11 -12 -4 -7 -3 -8 4 -4 7 4 12 14 12 22 0
8 -4 13 -9 10 -11 -7 18 94 32 112 8 10 7 16 -4 23 -8 5 -9 9 -4 9 6 0 3 6 -6
13 -10 7 -21 31 -25 52 -8 37 -11 39 -31 30z"/>
<path d="M621 1003 c-1 -24 3 -33 15 -33 12 0 14 3 6 13 -5 6 -12 21 -15 32
-3 13 -5 9 -6 -12z"/>
<path d="M2161 871 c-8 -5 -9 -11 -3 -15 5 -3 12 1 16 9 6 17 6 18 -13 6z"/>
<path d="M637 833 c-3 -5 0 -19 8 -29 15 -20 18 -11 6 20 -4 11 -10 15 -14 9z"/>
<path d="M1191 814 c0 -11 3 -14 6 -6 3 7 2 16 -1 19 -3 4 -6 -2 -5 -13z"/>
<path d="M856 804 c-9 -24 -2 -26 12 -4 7 11 8 20 3 20 -5 0 -12 -7 -15 -16z"/>
<path d="M1820 801 c0 -5 5 -13 10 -16 6 -3 10 -2 10 4 0 5 -4 13 -10 16 -5 3
-10 2 -10 -4z"/>
<path d="M665 770 c-3 -5 -1 -10 4 -10 6 0 11 5 11 10 0 6 -2 10 -4 10 -3 0
-8 -4 -11 -10z"/>
<path d="M1128 743 c6 -2 12 -12 12 -21 0 -13 3 -13 12 -4 10 10 10 15 -2 22
-8 5 -19 9 -25 9 -5 0 -4 -3 3 -6z"/>
<path d="M1394 716 c-10 -8 -17 -17 -14 -19 3 -3 16 3 30 13 29 22 14 27 -16
6z"/>
<path d="M1410 670 c-7 -13 -7 -26 -2 -37 7 -12 10 -8 14 21 5 41 3 44 -12 16z"/>
<path d="M1090 638 c0 -19 2 -20 10 -8 13 19 13 30 0 30 -5 0 -10 -10 -10 -22z"/>
</g>
</svg>
