<?xml version="1.0" standalone="no"?>
<!DOCTYPE svg PUBLIC "-//W3C//DTD SVG 20010904//EN"
 "http://www.w3.org/TR/2001/REC-SVG-20010904/DTD/svg10.dtd">
<svg version="1.0" xmlns="http://www.w3.org/2000/svg"
 width="356.000000pt" height="356.000000pt" viewBox="0 0 356.000000 356.000000"
 preserveAspectRatio="xMidYMid meet">
<metadata>
Created by potrace 1.16, written by Peter Selinger 2001-2019
</metadata>
<g transform="translate(0.000000,356.000000) scale(0.100000,-0.100000)"
fill="#000000" stroke="none">
<path d="M1745 2979 c-25 -12 -19 -2 -455 -759 -189 -327 -464 -804 -613
-1060 -165 -285 -271 -479 -274 -500 -4 -29 0 -40 22 -60 l27 -25 1330 0 1330
0 24 28 c13 15 24 38 24 49 0 12 -47 103 -103 202 -213 372 -344 598 -482 836
-78 135 -271 470 -430 745 -158 275 -300 512 -316 528 -31 28 -51 32 -84 16z
m110 -421 c39 -67 82 -142 96 -167 14 -26 58 -100 96 -166 95 -163 370 -639
401 -695 13 -25 46 -81 72 -125 148 -250 362 -627 358 -631 -3 -2 -500 -3
-1104 -2 l-1100 3 208 360 c114 198 255 441 312 540 57 99 169 293 248 430 80
138 187 323 238 413 52 89 96 162 99 162 4 0 38 -55 76 -122z"/>
<path d="M1687 2223 c-2 -10 -55 -193 -116 -407 -62 -213 -111 -390 -109 -391
2 -2 80 39 173 90 93 52 170 93 172 91 2 -1 -13 -110 -32 -242 -19 -131 -35
-251 -35 -266 0 -39 -16 -35 -42 12 -25 44 -43 53 -34 17 3 -13 15 -84 27
-158 11 -74 24 -137 27 -141 4 -3 52 59 106 139 54 80 93 142 85 138 -8 -5
-31 -19 -51 -32 -21 -13 -38 -18 -38 -12 0 6 46 174 101 375 56 201 99 367 96
370 -3 3 -86 -38 -183 -92 -98 -55 -182 -101 -187 -103 -5 -2 -2 10 6 25 20
39 267 593 267 599 0 3 -51 5 -114 5 -100 0 -114 -2 -119 -17z"/>
<path d="M1645 551 c-3 -5 -1 -12 5 -16 5 -3 10 1 10 9 0 18 -6 21 -15 7z"/>
<path d="M1680 538 c0 -15 13 -17 103 -17 56 1 107 -1 112 -3 6 -1 11 1 13 7
1 5 -42 9 -105 10 -60 0 -111 4 -115 10 -5 6 -8 3 -8 -7z"/>
</g>
</svg>
