  0
SECTION
  2
HEADER
  9
$ACADVER
  1
AC1024
  9
$ACADMAINTVER
 70
6
  9
$DWGCODEPAGE
  3
ANSI_1252
  9
$LASTSAVEDBY
  1
ezdxf
  9
$INSBASE
 10
0.0
 20
0.0
 30
0.0
  9
$EXTMIN
 10
1e+20
 20
1e+20
 30
1e+20
  9
$EXTMAX
 10
-1e+20
 20
-1e+20
 30
-1e+20
  9
$LIMMIN
 10
0.0
 20
0.0
  9
$LIMMAX
 10
420.0
 20
297.0
  9
$ORTHOMODE
 70
0
  9
$REGENMODE
 70
1
  9
$FILLMODE
 70
1
  9
$QTEXTMODE
 70
0
  9
$MIRRTEXT
 70
1
  9
$LTSCALE
 40
1.0
  9
$ATTMODE
 70
1
  9
$TEXTSIZE
 40
2.5
  9
$TRACEWID
 40
1.0
  9
$TEXTSTYLE
  7
Standard
  9
$CLAYER
  8
0
  9
$CELTYPE
  6
ByLayer
  9
$CECOLOR
 62
256
  9
$CELTSCALE
 40
1.0
  9
$DISPSILH
 70
0
  9
$DIMSCALE
 40
1.0
  9
$DIMASZ
 40
2.5
  9
$DIMEXO
 40
0.625
  9
$DIMDLI
 40
3.75
  9
$DIMRND
 40
0.0
  9
$DIMDLE
 40
0.0
  9
$DIMEXE
 40
1.25
  9
$DIMTP
 40
0.0
  9
$DIMTM
 40
0.0
  9
$DIMTXT
 40
2.5
  9
$DIMCEN
 40
2.5
  9
$DIMTSZ
 40
0.0
  9
$DIMTOL
 70
0
  9
$DIMLIM
 70
0
  9
$DIMTIH
 70
0
  9
$DIMTOH
 70
0
  9
$DIMSE1
 70
0
  9
$DIMSE2
 70
0
  9
$DIMTAD
 70
1
  9
$DIMZIN
 70
8
  9
$DIMBLK
  1

  9
$DIMASO
 70
1
  9
$DIMSHO
 70
1
  9
$DIMPOST
  1

  9
$DIMAPOST
  1

  9
$DIMALT
 70
0
  9
$DIMALTD
 70
3
  9
$DIMALTF
 40
0.03937007874
  9
$DIMLFAC
 40
1.0
  9
$DIMTOFL
 70
1
  9
$DIMTVP
 40
0.0
  9
$DIMTIX
 70
0
  9
$DIMSOXD
 70
0
  9
$DIMSAH
 70
0
  9
$DIMBLK1
  1

  9
$DIMBLK2
  1

  9
$DIMSTYLE
  2
ISO-25
  9
$DIMCLRD
 70
0
  9
$DIMCLRE
 70
0
  9
$DIMCLRT
 70
0
  9
$DIMTFAC
 40
1.0
  9
$DIMGAP
 40
0.625
  9
$DIMJUST
 70
0
  9
$DIMSD1
 70
0
  9
$DIMSD2
 70
0
  9
$DIMTOLJ
 70
0
  9
$DIMTZIN
 70
8
  9
$DIMALTZ
 70
0
  9
$DIMALTTZ
 70
0
  9
$DIMUPT
 70
0
  9
$DIMDEC
 70
2
  9
$DIMTDEC
 70
2
  9
$DIMALTU
 70
2
  9
$DIMALTTD
 70
3
  9
$DIMTXSTY
  7
Standard
  9
$DIMAUNIT
 70
0
  9
$DIMADEC
 70
0
  9
$DIMALTRND
 40
0.0
  9
$DIMAZIN
 70
0
  9
$DIMDSEP
 70
44
  9
$DIMATFIT
 70
3
  9
$DIMFRAC
 70
0
  9
$DIMLDRBLK
  1

  9
$DIMLUNIT
 70
2
  9
$DIMLWD
 70
-2
  9
$DIMLWE
 70
-2
  9
$DIMTMOVE
 70
0
  9
$DIMFXL
 40
1.0
  9
$DIMFXLON
 70
0
  9
$DIMJOGANG
 40
0.785398163397
  9
$DIMTFILL
 70
0
  9
$DIMTFILLCLR
 70
0
  9
$DIMARCSYM
 70
0
  9
$DIMLTYPE
  6

  9
$DIMLTEX1
  6

  9
$DIMLTEX2
  6

  9
$DIMTXTDIRECTION
 70
0
  9
$LUNITS
 70
2
  9
$LUPREC
 70
4
  9
$SKETCHINC
 40
1.0
  9
$FILLETRAD
 40
10.0
  9
$AUNITS
 70
0
  9
$AUPREC
 70
2
  9
$MENU
  1
.
  9
$ELEVATION
 40
0.0
  9
$PELEVATION
 40
0.0
  9
$THICKNESS
 40
0.0
  9
$LIMCHECK
 70
0
  9
$CHAMFERA
 40
0.0
  9
$CHAMFERB
 40
0.0
  9
$CHAMFERC
 40
0.0
  9
$CHAMFERD
 40
0.0
  9
$SKPOLY
 70
0
  9
$TDCREATE
 40
2460890.697986111
  9
$TDUCREATE
 40
2458532.153996898
  9
$TDUPDATE
 40
2460890.697986111
  9
$TDUUPDATE
 40
2458532.1544311
  9
$TDINDWG
 40
0.0
  9
$TDUSRTIMER
 40
0.0
  9
$USRTIMER
 70
1
  9
$ANGBASE
 50
0.0
  9
$ANGDIR
 70
0
  9
$PDMODE
 70
0
  9
$PDSIZE
 40
0.0
  9
$PLINEWID
 40
0.0
  9
$SPLFRAME
 70
0
  9
$SPLINETYPE
 70
6
  9
$SPLINESEGS
 70
8
  9
$HANDSEED
  5
36
  9
$SURFTAB1
 70
6
  9
$SURFTAB2
 70
6
  9
$SURFTYPE
 70
6
  9
$SURFU
 70
6
  9
$SURFV
 70
6
  9
$UCSBASE
  2

  9
$UCSNAME
  2

  9
$UCSORG
 10
0.0
 20
0.0
 30
0.0
  9
$UCSXDIR
 10
1.0
 20
0.0
 30
0.0
  9
$UCSYDIR
 10
0.0
 20
1.0
 30
0.0
  9
$UCSORTHOREF
  2

  9
$UCSORTHOVIEW
 70
0
  9
$UCSORGTOP
 10
0.0
 20
0.0
 30
0.0
  9
$UCSORGBOTTOM
 10
0.0
 20
0.0
 30
0.0
  9
$UCSORGLEFT
 10
0.0
 20
0.0
 30
0.0
  9
$UCSORGRIGHT
 10
0.0
 20
0.0
 30
0.0
  9
$UCSORGFRONT
 10
0.0
 20
0.0
 30
0.0
  9
$UCSORGBACK
 10
0.0
 20
0.0
 30
0.0
  9
$PUCSBASE
  2

  9
$PUCSNAME
  2

  9
$PUCSORG
 10
0.0
 20
0.0
 30
0.0
  9
$PUCSXDIR
 10
1.0
 20
0.0
 30
0.0
  9
$PUCSYDIR
 10
0.0
 20
1.0
 30
0.0
  9
$PUCSORTHOREF
  2

  9
$PUCSORTHOVIEW
 70
0
  9
$PUCSORGTOP
 10
0.0
 20
0.0
 30
0.0
  9
$PUCSORGBOTTOM
 10
0.0
 20
0.0
 30
0.0
  9
$PUCSORGLEFT
 10
0.0
 20
0.0
 30
0.0
  9
$PUCSORGRIGHT
 10
0.0
 20
0.0
 30
0.0
  9
$PUCSORGFRONT
 10
0.0
 20
0.0
 30
0.0
  9
$PUCSORGBACK
 10
0.0
 20
0.0
 30
0.0
  9
$USERI1
 70
0
  9
$USERI2
 70
0
  9
$USERI3
 70
0
  9
$USERI4
 70
0
  9
$USERI5
 70
0
  9
$USERR1
 40
0.0
  9
$USERR2
 40
0.0
  9
$USERR3
 40
0.0
  9
$USERR4
 40
0.0
  9
$USERR5
 40
0.0
  9
$WORLDVIEW
 70
1
  9
$SHADEDGE
 70
3
  9
$SHADEDIF
 70
70
  9
$TILEMODE
 70
1
  9
$MAXACTVP
 70
64
  9
$PINSBASE
 10
0.0
 20
0.0
 30
0.0
  9
$PLIMCHECK
 70
0
  9
$PEXTMIN
 10
1e+20
 20
1e+20
 30
1e+20
  9
$PEXTMAX
 10
-1e+20
 20
-1e+20
 30
-1e+20
  9
$PLIMMIN
 10
0.0
 20
0.0
  9
$PLIMMAX
 10
420.0
 20
297.0
  9
$UNITMODE
 70
0
  9
$VISRETAIN
 70
1
  9
$PLINEGEN
 70
0
  9
$PSLTSCALE
 70
1
  9
$TREEDEPTH
 70
3020
  9
$CMLSTYLE
  2
Standard
  9
$CMLJUST
 70
0
  9
$CMLSCALE
 40
20.0
  9
$PROXYGRAPHICS
 70
1
  9
$MEASUREMENT
 70
1
  9
$CELWEIGHT
370
-1
  9
$ENDCAPS
280
0
  9
$JOINSTYLE
280
0
  9
$LWDISPLAY
290
0
  9
$INSUNITS
 70
6
  9
$HYPERLINKBASE
  1

  9
$STYLESHEET
  1

  9
$XEDIT
290
1
  9
$CEPSNTYPE
380
0
  9
$PSTYLEMODE
290
1
  9
$FINGERPRINTGUID
  2
{9D421F3C-0673-4832-9DDA-1A479CD900DE}
  9
$VERSIONGUID
  2
{CD302ACC-8C4C-4D43-AFEE-830CA6B2DA7F}
  9
$EXTNAMES
290
1
  9
$PSVPSCALE
 40
0.0
  9
$OLESTARTUP
290
0
  9
$SORTENTS
280
127
  9
$INDEXCTL
280
0
  9
$HIDETEXT
280
1
  9
$XCLIPFRAME
280
0
  9
$HALOGAP
280
0
  9
$OBSCOLOR
 70
257
  9
$OBSLTYPE
280
0
  9
$INTERSECTIONDISPLAY
280
0
  9
$INTERSECTIONCOLOR
 70
257
  9
$DIMASSOC
280
2
  9
$PROJECTNAME
  1

  9
$CAMERADISPLAY
290
0
  9
$LENSLENGTH
 40
50.0
  9
$CAMERAHEIGHT
 40
0.0
  9
$STEPSPERSEC
 40
24.0
  9
$STEPSIZE
 40
100.0
  9
$3DDWFPREC
 40
2.0
  9
$PSOLWIDTH
 40
0.005
  9
$PSOLHEIGHT
 40
0.08
  9
$LOFTANG1
 40
1.570796326795
  9
$LOFTANG2
 40
1.570796326795
  9
$LOFTMAG1
 40
0.0
  9
$LOFTMAG2
 40
0.0
  9
$LOFTPARAM
 70
7
  9
$LOFTNORMALS
280
1
  9
$LATITUDE
 40
37.795
  9
$LONGITUDE
 40
-122.394
  9
$NORTHDIRECTION
 40
0.0
  9
$TIMEZONE
 70
-8000
  9
$LIGHTGLYPHDISPLAY
280
1
  9
$TILEMODELIGHTSYNCH
280
1
  9
$CMATERIAL
347
20
  9
$SOLIDHIST
280
0
  9
$SHOWHIST
280
1
  9
$DWFFRAME
280
2
  9
$DGNFRAME
280
2
  9
$REALWORLDSCALE
290
1
  9
$INTERFERECOLOR
 62
256
  9
$CSHADOW
280
0
  9
$SHADOWPLANELOCATION
 40
0.0
  0
ENDSEC
  0
SECTION
  2
CLASSES
  0
CLASS
  1
ACDBDICTIONARYWDFLT
  2
AcDbDictionaryWithDefault
  3
ObjectDBX Classes
 90
0
 91
0
280
0
281
0
  0
CLASS
  1
SUN
  2
AcDbSun
  3
SCENEOE
 90
1153
 91
0
280
0
281
0
  0
CLASS
  1
VISUALSTYLE
  2
AcDbVisualStyle
  3
ObjectDBX Classes
 90
4095
 91
0
280
0
281
0
  0
CLASS
  1
MATERIAL
  2
AcDbMaterial
  3
ObjectDBX Classes
 90
1153
 91
0
280
0
281
0
  0
CLASS
  1
SCALE
  2
AcDbScale
  3
ObjectDBX Classes
 90
1153
 91
0
280
0
281
0
  0
CLASS
  1
TABLESTYLE
  2
AcDbTableStyle
  3
ObjectDBX Classes
 90
4095
 91
0
280
0
281
0
  0
CLASS
  1
MLEADERSTYLE
  2
AcDbMLeaderStyle
  3
ACDB_MLEADERSTYLE_CLASS
 90
4095
 91
0
280
0
281
0
  0
CLASS
  1
DICTIONARYVAR
  2
AcDbDictionaryVar
  3
ObjectDBX Classes
 90
0
 91
0
280
0
281
0
  0
CLASS
  1
CELLSTYLEMAP
  2
AcDbCellStyleMap
  3
ObjectDBX Classes
 90
1152
 91
0
280
0
281
0
  0
CLASS
  1
MENTALRAYRENDERSETTINGS
  2
AcDbMentalRayRenderSettings
  3
SCENEOE
 90
1024
 91
0
280
0
281
0
  0
CLASS
  1
ACDBDETAILVIEWSTYLE
  2
AcDbDetailViewStyle
  3
ObjectDBX Classes
 90
1025
 91
0
280
0
281
0
  0
CLASS
  1
ACDBSECTIONVIEWSTYLE
  2
AcDbSectionViewStyle
  3
ObjectDBX Classes
 90
1025
 91
0
280
0
281
0
  0
CLASS
  1
RASTERVARIABLES
  2
AcDbRasterVariables
  3
ISM
 90
0
 91
0
280
0
281
0
  0
CLASS
  1
ACDBPLACEHOLDER
  2
AcDbPlaceHolder
  3
ObjectDBX Classes
 90
0
 91
0
280
0
281
0
  0
CLASS
  1
LAYOUT
  2
AcDbLayout
  3
ObjectDBX Classes
 90
0
 91
0
280
0
281
0
  0
ENDSEC
  0
SECTION
  2
TABLES
  0
TABLE
  2
VPORT
  5
8
330
0
100
AcDbSymbolTable
 70
1
  0
VPORT
  5
23
330
8
100
AcDbSymbolTableRecord
100
AcDbViewportTableRecord
  2
*Active
 70
0
 10
0.0
 20
0.0
 11
1.0
 21
1.0
 12
0.0
 22
0.0
 13
0.0
 23
0.0
 14
0.5
 24
0.5
 15
0.5
 25
0.5
 16
0.0
 26
0.0
 36
1.0
 17
0.0
 27
0.0
 37
0.0
 40
1000.0
 41
1.34
 42
50.0
 43
0.0
 44
0.0
 50
0.0
 51
0.0
 71
0
 72
1000
 73
1
 74
3
 75
0
 76
0
 77
0
 78
0
281
0
 65
0
146
0.0
  0
ENDTAB
  0
TABLE
  2
LTYPE
  5
2
330
0
100
AcDbSymbolTable
 70
3
  0
LTYPE
  5
24
330
2
100
AcDbSymbolTableRecord
100
AcDbLinetypeTableRecord
  2
ByBlock
 70
0
  3

 72
65
 73
0
 40
0.0
  0
LTYPE
  5
25
330
2
100
AcDbSymbolTableRecord
100
AcDbLinetypeTableRecord
  2
ByLayer
 70
0
  3

 72
65
 73
0
 40
0.0
  0
LTYPE
  5
26
330
2
100
AcDbSymbolTableRecord
100
AcDbLinetypeTableRecord
  2
Continuous
 70
0
  3

 72
65
 73
0
 40
0.0
  0
ENDTAB
  0
TABLE
  2
LAYER
  5
1
330
0
100
AcDbSymbolTable
 70
2
  0
LAYER
  5
27
330
1
100
AcDbSymbolTableRecord
100
AcDbLayerTableRecord
  2
0
 70
0
 62
7
  6
Continuous
370
-3
390
13
347
21
  0
LAYER
  5
28
330
1
100
AcDbSymbolTableRecord
100
AcDbLayerTableRecord
  2
Defpoints
 70
0
 62
7
  6
Continuous
290
0
370
-3
390
13
347
21
  0
ENDTAB
  0
TABLE
  2
STYLE
  5
5
330
0
100
AcDbSymbolTable
 70
1
  0
STYLE
  5
29
330
5
100
AcDbSymbolTableRecord
100
AcDbTextStyleTableRecord
  2
Standard
 70
0
 40
0.0
 41
1.0
 50
0.0
 71
0
 42
2.5
  3
txt
  4

  0
ENDTAB
  0
TABLE
  2
VIEW
  5
7
330
0
100
AcDbSymbolTable
 70
0
  0
ENDTAB
  0
TABLE
  2
UCS
  5
6
330
0
100
AcDbSymbolTable
 70
0
  0
ENDTAB
  0
TABLE
  2
APPID
  5
3
330
0
100
AcDbSymbolTable
 70
3
  0
APPID
  5
2A
330
3
100
AcDbSymbolTableRecord
100
AcDbRegAppTableRecord
  2
ACAD
 70
0
  0
APPID
  5
33
330
3
100
AcDbSymbolTableRecord
100
AcDbRegAppTableRecord
  2
HATCHBACKGROUNDCOLOR
 70
0
  0
APPID
  5
34
330
3
100
AcDbSymbolTableRecord
100
AcDbRegAppTableRecord
  2
EZDXF
 70
0
  0
ENDTAB
  0
TABLE
  2
DIMSTYLE
  5
4
330
0
100
AcDbSymbolTable
 70
1
100
AcDbDimStyleTable
  0
DIMSTYLE
105
2B
330
4
100
AcDbSymbolTableRecord
100
AcDbDimStyleTableRecord
  2
Standard
 70
0
 40
1.0
 41
2.5
 42
0.625
 43
3.75
 44
1.25
 45
0.0
 46
0.0
 47
0.0
 48
0.0
 49
2.5
140
2.5
141
2.5
142
0.0
143
0.03937007874
144
1.0
145
0.0
146
1.0
147
0.625
148
0.0
 69
0
 70
0
 71
0
 72
0
 73
0
 74
0
 75
0
 76
0
 77
1
 78
8
 79
3
170
0
171
3
172
1
173
0
174
0
175
0
176
0
177
0
178
0
179
2
271
2
272
2
273
2
274
3
275
0
276
0
277
2
278
44
279
0
280
0
281
0
282
0
283
0
284
8
285
0
286
0
288
0
289
3
290
0
371
-2
372
-2
  0
ENDTAB
  0
TABLE
  2
BLOCK_RECORD
  5
9
330
0
100
AcDbSymbolTable
 70
2
  0
BLOCK_RECORD
  5
17
330
9
100
AcDbSymbolTableRecord
100
AcDbBlockTableRecord
  2
*Model_Space
340
1A
 70
0
280
1
281
0
  0
BLOCK_RECORD
  5
1B
330
9
100
AcDbSymbolTableRecord
100
AcDbBlockTableRecord
  2
*Paper_Space
340
1E
 70
0
280
1
281
0
  0
ENDTAB
  0
ENDSEC
  0
SECTION
  2
BLOCKS
  0
BLOCK
  5
18
330
17
100
AcDbEntity
  8
0
100
AcDbBlockBegin
  2
*Model_Space
 70
0
 10
0.0
 20
0.0
 30
0.0
  3
*Model_Space
  1

  0
ENDBLK
  5
19
330
17
100
AcDbEntity
  8
0
100
AcDbBlockEnd
  0
BLOCK
  5
1C
330
1B
100
AcDbEntity
  8
0
100
AcDbBlockBegin
  2
*Paper_Space
 70
0
 10
0.0
 20
0.0
 30
0.0
  3
*Paper_Space
  1

  0
ENDBLK
  5
1D
330
1B
100
AcDbEntity
  8
0
100
AcDbBlockEnd
  0
ENDSEC
  0
SECTION
  2
ENTITIES
  0
LWPOLYLINE
  5
2F
330
17
100
AcDbEntity
  8
0
100
AcDbPolyline
 90
2573
 70
1
 10
1745.0
 20
2979.0
 10
1744.258827
 20
2978.645811
 10
1743.533416
 20
2978.300088
 10
1742.820929
 20
2977.958097
 10
1742.118528
 20
2977.615104
 10
1741.423375
 20
2977.266375
 10
1740.732632
 20
2976.907176
 10
1740.043461
 20
2976.532773
 10
1739.353024
 20
2976.138432
 10
1738.658483
 20
2975.719419
 10
1737.957
 20
2975.271
 10
1737.245737
 20
2974.788441
 10
1736.521856
 20
2974.267008
 10
1735.782519
 20
2973.701967
 10
1735.024888
 20
2973.088584
 10
1734.246125
 20
2972.422125
 10
1733.443392
 20
2971.697856
 10
1732.613851
 20
2970.911043
 10
1731.754664
 20
2970.056952
 10
1730.862993
 20
2969.130849
 10
1729.936
 20
2968.128
 10
1728.970847
 20
2967.043671
 10
1727.964696
 20
2965.873128
 10
1726.914709
 20
2964.611637
 10
1725.818048
 20
2963.254464
 10
1724.671875
 20
2961.796875
 10
1723.473352
 20
2960.234136
 10
1722.219641
 20
2958.561513
 10
1720.907904
 20
2956.774272
 10
1719.535303
 20
2954.867679
 10
1718.099
 20
2952.837
 10
1716.596157
 20
2950.677501
 10
1715.023936
 20
2948.384448
 10
1713.379499
 20
2945.953107
 10
1711.660008
 20
2943.378744
 10
1709.862625
 20
2940.656625
 10
1707.984512
 20
2937.782016
 10
1706.022831
 20
2934.750183
 10
1703.974744
 20
2931.556392
 10
1701.837413
 20
2928.195909
 10
1699.608
 20
2924.6639999999998
 10
1697.283667
 20
2920.955931
 10
1694.861576
 20
2917.066968
 10
1692.338889
 20
2912.992377
 10
1689.712768
 20
2908.727424
 10
1686.980375
 20
2904.267375
 10
1684.138872
 20
2899.607496
 10
1681.1854210000001
 20
2894.743053
 10
1678.117184
 20
2889.669312
 10
1674.931323
 20
2884.381539
 10
1671.625
 20
2878.875
 10
1668.195377
 20
2873.144961
 10
1664.639616
 20
2867.186688
 10
1660.954879
 20
2860.995447
 10
1657.138328
 20
2854.566504
 10
1653.187125
 20
2847.895125
 10
1649.098432
 20
2840.976576
 10
1644.8694110000001
 20
2833.806123
 10
1640.497224
 20
2826.379032
 10
1635.979033
 20
2818.690569
 10
1631.312
 20
2810.736
 10
1626.493287
 20
2802.510591
 10
1621.520056
 20
2794.009608
 10
1616.389469
 20
2785.228317
 10
1611.098688
 20
2776.161984
 10
1605.644875
 20
2766.805875
 10
1600.025192
 20
2757.155256
 10
1594.236801
 20
2747.205393
 10
1588.276864
 20
2736.951552
 10
1582.142543
 20
2726.3889990000002
 10
1575.8310000000001
 20
2715.513
 10
1569.339397
 20
2704.318821
 10
1562.664896
 20
2692.801728
 10
1555.804659
 20
2680.956987
 10
1548.755848
 20
2668.779864
 10
1541.515625
 20
2656.265625
 10
1534.081152
 20
2643.409536
 10
1526.449591
 20
2630.206863
 10
1518.618104
 20
2616.652872
 10
1510.583853
 20
2602.742829
 10
1502.344
 20
2588.4719999999998
 10
1493.895707
 20
2573.835651
 10
1485.236136
 20
2558.829048
 10
1476.3624490000002
 20
2543.447457
 10
1467.271808
 20
2527.6861440000002
 10
1457.961375
 20
2511.540375
 10
1448.428312
 20
2495.005416
 10
1438.669781
 20
2478.076533
 10
1428.682944
 20
2460.748992
 10
1418.464963
 20
2443.018059
 10
1408.013
 20
2424.879
 10
1397.3242169999999
 20
2406.327081
 10
1386.3957759999998
 20
2387.357568
 10
1375.224839
 20
2367.965727
 10
1363.8085680000002
 20
2348.1468240000004
 10
1352.144125
 20
2327.896125
 10
1340.228672
 20
2307.208896
 10
1328.059371
 20
2286.080403
 10
1315.633384
 20
2264.505912
 10
1302.947873
 20
2242.480689
 10
1290.0
 20
2220.0
 10
1284.304412
 20
2210.145371
 10
1278.558496
 20
2200.202968
 10
1272.763524
 20
2190.175017
 10
1266.920768
 20
2180.063744
 10
1261.0315
 20
2169.871375
 10
1255.096992
 20
2159.600136
 10
1249.118516
 20
2149.252253
 10
1243.097344
 20
2138.829952
 10
1237.034748
 20
2128.335459
 10
1230.932
 20
2117.771
 10
1224.790372
 20
2107.138801
 10
1218.611136
 20
2096.441088
 10
1212.395564
 20
2085.680087
 10
1206.144928
 20
2074.858024
 10
1199.8605
 20
2063.977125
 10
1193.543552
 20
2053.039616
 10
1187.195356
 20
2042.047723
 10
1180.817184
 20
2031.003672
 10
1174.410308
 20
2019.909689
 10
1167.976
 20
2008.768
 10
1161.515532
 20
1997.580831
 10
1155.030176
 20
1986.350408
 10
1148.5212040000001
 20
1975.078957
 10
1141.989888
 20
1963.768704
 10
1135.4375
 20
1952.421875
 10
1128.865312
 20
1941.040696
 10
1122.274596
 20
1929.627393
 10
1115.666624
 20
1918.184192
 10
1109.042668
 20
1906.713319
 10
1102.404
 20
1895.217
 10
1095.751892
 20
1883.697461
 10
1089.087616
 20
1872.1569279999999
 10
1082.412444
 20
1860.597627
 10
1075.727648
 20
1849.021784
 10
1069.0345
 20
1837.431625
 10
1062.334272
 20
1825.8293760000001
 10
1055.628236
 20
1814.217263
 10
1048.917664
 20
1802.597512
 10
1042.203828
 20
1790.9723490000001
 10
1035.488
 20
1779.344
 10
1028.771452
 20
1767.7146910000001
 10
1022.055456
 20
1756.086648
 10
1015.341284
 20
1744.462097
 10
1008.630208
 20
1732.843264
 10
1001.9235
 20
1721.232375
 10
995.222432
 20
1709.631656
 10
988.528276
 20
1698.043333
 10
981.842304
 20
1686.469632
 10
975.165788
 20
1674.912779
 10
968.5
 20
1663.375
 10
961.8462119999999
 20
1651.858521
 10
955.205696
 20
1640.3655680000002
 10
948.5797239999999
 20
1628.898367
 10
941.969568
 20
1617.459144
 10
935.3765
 20
1606.050125
 10
928.801792
 20
1594.673536
 10
922.2467160000001
 20
1583.331603
 10
915.712544
 20
1572.026552
 10
909.200548
 20
1560.760609
 10
902.712
 20
1549.536
 10
896.2481720000001
 20
1538.354951
 10
889.810336
 20
1527.2196880000001
 10
883.399764
 20
1516.132437
 10
877.017728
 20
1505.095424
 10
870.6655000000001
 20
1494.1108749999999
 10
864.344352
 20
1483.181016
 10
858.055556
 20
1472.308073
 10
851.8003839999999
 20
1461.494272
 10
845.580108
 20
1450.741839
 10
839.396
 20
1440.0529999999999
 10
833.2493320000001
 20
1429.429981
 10
827.141376
 20
1418.875008
 10
821.073404
 20
1408.3903070000001
 10
815.046688
 20
1397.978104
 10
809.0625
 20
1387.640625
 10
803.122112
 20
1377.380096
 10
797.2267959999999
 20
1367.198743
 10
791.377824
 20
1357.098792
 10
785.576468
 20
1347.082469
 10
779.824
 20
1337.152
 10
774.1216919999999
 20
1327.309611
 10
768.470816
 20
1317.557528
 10
762.872644
 20
1307.897977
 10
757.3284480000001
 20
1298.333184
 10
751.8395
 20
1288.8653749999999
 10
746.4070720000001
 20
1279.496776
 10
741.032436
 20
1270.229613
 10
735.716864
 20
1261.066112
 10
730.461628
 20
1252.008499
 10
725.2679999999999
 20
1243.059
 10
720.137252
 20
1234.219841
 10
715.070656
 20
1225.493248
 10
710.069484
 20
1216.8814469999998
 10
705.1350080000001
 20
1208.386664
 10
700.2685
 20
1200.011125
 10
695.471232
 20
1191.757056
 10
690.744476
 20
1183.6266830000002
 10
686.089504
 20
1175.622232
 10
681.507588
 20
1167.745929
 10
677.0
 20
1160.0
 10
672.067744
 20
1151.477382
 10
667.171152
 20
1143.009856
 10
662.310488
 20
1134.597914
 10
657.486016
 20
1126.242048
 10
652.698
 20
1117.94275
 10
647.946704
 20
1109.700512
 10
643.232392
 20
1101.515826
 10
638.555328
 20
1093.3891840000001
 10
633.915776
 20
1085.321078
 10
629.314
 20
1077.312
 10
624.750264
 20
1069.362442
 10
620.224832
 20
1061.472896
 10
615.737968
 20
1053.643854
 10
611.289936
 20
1045.875808
 10
606.881
 20
1038.16925
 10
602.511424
 20
1030.524672
 10
598.181472
 20
1022.9425659999999
 10
593.891408
 20
1015.4234240000001
 10
589.641496
 20
1007.967738
 10
585.432
 20
1000.576
 10
581.263184
 20
993.248702
 10
577.135312
 20
985.986336
 10
573.048648
 20
978.789394
 10
569.003456
 20
971.658368
 10
565.0
 20
964.59375
 10
561.038544
 20
957.5960319999999
 10
557.119352
 20
950.665706
 10
553.242688
 20
943.8032639999999
 10
549.408816
 20
937.009198
 10
545.6179999999999
 20
930.284
 10
541.870504
 20
923.628162
 10
538.166592
 20
917.0421759999999
 10
534.506528
 20
910.526534
 10
530.890576
 20
904.081728
 10
527.319
 20
897.70825
 10
523.792064
 20
891.406592
 10
520.310032
 20
885.177246
 10
516.873168
 20
879.020704
 10
513.481736
 20
872.937458
 10
510.13599999999997
 20
866.928
 10
506.836224
 20
860.992822
 10
503.582672
 20
855.132416
 10
500.375608
 20
849.347274
 10
497.215296
 20
843.637888
 10
494.102
 20
838.00475
 10
491.035984
 20
832.448352
 10
488.017512
 20
826.969186
 10
485.046848
 20
821.5677440000001
 10
482.124256
 20
816.244518
 10
479.25
 20
811.0
 10
476.424344
 20
805.8346819999999
 10
473.647552
 20
800.749056
 10
470.919888
 20
795.743614
 10
468.24161599999996
 20
790.8188479999999
 10
465.61299999999994
 20
785.97525
 10
463.034304
 20
781.213312
 10
460.505792
 20
776.533526
 10
458.027728
 20
771.9363840000001
 10
455.600376
 20
767.422378
 10
453.224
 20
762.992
 10
450.898864
 20
758.6457419999999
 10
448.625232
 20
754.384096
 10
446.403368
 20
750.2075540000001
 10
444.233536
 20
746.116608
 10
442.116
 20
742.11175
 10
440.051024
 20
738.193472
 10
438.03887199999997
 20
734.3622660000001
 10
436.07980799999996
 20
730.618624
 10
434.174096
 20
726.9630380000001
 10
432.322
 20
723.396
 10
430.52378400000003
 20
719.918002
 10
428.779712
 20
716.529536
 10
427.090048
 20
713.231094
 10
425.455056
 20
710.0231679999999
 10
423.875
 20
706.90625
 10
422.350144
 20
703.880832
 10
420.88075200000003
 20
700.947406
 10
419.467088
 20
698.106464
 10
418.10941599999995
 20
695.3584979999999
 10
416.808
 20
692.7040000000001
 10
415.563104
 20
690.143462
 10
414.374992
 20
687.6773760000001
 10
413.243928
 20
685.306234
 10
412.170176
 20
683.030528
 10
411.154
 20
680.8507500000001
 10
410.195664
 20
678.767392
 10
409.29543199999995
 20
676.7809460000001
 10
408.45356799999996
 20
674.8919040000001
 10
407.67033599999996
 20
673.100758
 10
406.94599999999997
 20
671.408
 10
406.280824
 20
669.814122
 10
405.675072
 20
668.319616
 10
405.129008
 20
666.9249739999999
 10
404.642896
 20
665.630688
 10
404.21700000000004
 20
664.4372500000001
 10
403.85158400000006
 20
663.3451520000001
 10
403.546912
 20
662.3548860000001
 10
403.303248
 20
661.466944
 10
403.120856
 20
660.681818
 10
403.0
 20
660.0
 10
402.88241
 20
659.135373
 10
402.76968
 20
658.281384
 10
402.66187
 20
657.437871
 10
402.55904
 20
656.604672
 10
402.46125
 20
655.781625
 10
402.36856
 20
654.968568
 10
402.28103
 20
654.165339
 10
402.19872
 20
653.371776
 10
402.12169
 20
652.587717
 10
402.05
 20
651.813
 10
401.98371
 20
651.047463
 10
401.92288
 20
650.290944
 10
401.86757
 20
649.543281
 10
401.81784
 20
648.804312
 10
401.77375
 20
648.073875
 10
401.73536
 20
647.351808
 10
401.70273
 20
646.637949
 10
401.67592
 20
645.932136
 10
401.65499
 20
645.234207
 10
401.64
 20
644.544
 10
401.63101
 20
643.861353
 10
401.62808
 20
643.186104
 10
401.63127
 20
642.518091
 10
401.64064
 20
641.857152
 10
401.65625
 20
641.203125
 10
401.67816
 20
640.555848
 10
401.70643
 20
639.915159
 10
401.74112
 20
639.280896
 10
401.78229
 20
638.652897
 10
401.83
 20
638.031
 10
401.88431
 20
637.415043
 10
401.94528
 20
636.804864
 10
402.01297
 20
636.200301
 10
402.08744
 20
635.601192
 10
402.16875
 20
635.007375
 10
402.25696
 20
634.418688
 10
402.35213
 20
633.834969
 10
402.45432
 20
633.256056
 10
402.56359
 20
632.681787
 10
402.68
 20
632.112
 10
402.80361
 20
631.546533
 10
402.93448
 20
630.985224
 10
403.07267
 20
630.427911
 10
403.21824
 20
629.874432
 10
403.37125
 20
629.324625
 10
403.53176
 20
628.778328
 10
403.69983
 20
628.235379
 10
403.87552
 20
627.695616
 10
404.05889
 20
627.158877
 10
404.25
 20
626.625
 10
404.44891
 20
626.093823
 10
404.65568
 20
625.565184
 10
404.87037
 20
625.038921
 10
405.09304
 20
624.514872
 10
405.32375
 20
623.992875
 10
405.56256
 20
623.472768
 10
405.80953
 20
622.954389
 10
406.06472
 20
622.437576
 10
406.32819
 20
621.922167
 10
406.6
 20
621.408
 10
406.88021
 20
620.894913
 10
407.16888
 20
620.382744
 10
407.46607
 20
619.871331
 10
407.77184
 20
619.360512
 10
408.08625
 20
618.850125
 10
408.40936
 20
618.340008
 10
408.74123
 20
617.829999
 10
409.08192
 20
617.319936
 10
409.43149
 20
616.809657
 10
409.79
 20
616.299
 10
410.15751
 20
615.7878029999999
 10
410.53408
 20
615.275904
 10
410.91976999999997
 20
614.763141
 10
411.31464
 20
614.249352
 10
411.71875
 20
613.734375
 10
412.13216
 20
613.218048
 10
412.55493
 20
612.700209
 10
412.98712
 20
612.180696
 10
413.42879
 20
611.659347
 10
413.88
 20
611.136
 10
414.34081
 20
610.610493
 10
414.81128
 20
610.082664
 10
415.29147
 20
609.552351
 10
415.78144
 20
609.019392
 10
416.28125
 20
608.483625
 10
416.79096
 20
607.944888
 10
417.31063
 20
607.403019
 10
417.84032
 20
606.857856
 10
418.38009
 20
606.3092369999999
 10
418.93
 20
605.7570000000001
 10
419.49011
 20
605.200983
 10
420.06048
 20
604.641024
 10
420.64117
 20
604.076961
 10
421.23224
 20
603.508632
 10
421.83375
 20
602.935875
 10
422.44576
 20
602.358528
 10
423.06833
 20
601.776429
 10
423.70152
 20
601.189416
 10
424.34539
 20
600.597327
 10
425.0
 20
600.0
 10
425.54
 20
599.5
 10
426.08
 20
599.0
 10
426.62
 20
598.5
 10
427.16
 20
598.0
 10
427.7
 20
597.5
 10
428.24
 20
597.0
 10
428.78
 20
596.5
 10
429.32
 20
596.0
 10
429.86
 20
595.5
 10
430.4
 20
595.0
 10
430.94
 20
594.5
 10
431.48
 20
594.0
 10
432.02
 20
593.5
 10
432.56
 20
593.0
 10
433.1
 20
592.5
 10
433.64
 20
592.0
 10
434.18
 20
591.5
 10
434.72
 20
591.0
 10
435.26
 20
590.5
 10
435.8
 20
590.0
 10
436.34
 20
589.5
 10
436.88
 20
589.0
 10
437.42
 20
588.5
 10
437.96
 20
588.0
 10
438.5
 20
587.5
 10
439.04
 20
587.0
 10
439.58
 20
586.5
 10
440.12
 20
586.0
 10
440.66
 20
585.5
 10
441.2
 20
585.0
 10
441.74
 20
584.5
 10
442.28
 20
584.0
 10
442.82
 20
583.5
 10
443.36
 20
583.0
 10
443.9
 20
582.5
 10
444.44
 20
582.0
 10
444.98
 20
581.5
 10
445.52
 20
581.0
 10
446.06
 20
580.5
 10
446.6
 20
580.0
 10
447.14
 20
579.5
 10
447.68
 20
579.0
 10
448.22
 20
578.5
 10
448.76
 20
578.0
 10
449.3
 20
577.5
 10
449.84
 20
577.0
 10
450.38
 20
576.5
 10
450.92
 20
576.0
 10
451.46
 20
575.5
 10
452.0
 20
575.0
 10
465.3
 20
575.0
 10
478.6
 20
575.0
 10
491.9
 20
575.0
 10
505.2
 20
575.0
 10
518.5
 20
575.0
 10
531.8
 20
575.0
 10
545.1
 20
575.0
 10
558.4
 20
575.0
 10
571.7
 20
575.0
 10
585.0
 20
575.0
 10
598.3
 20
575.0
 10
611.6
 20
575.0
 10
624.9
 20
575.0
 10
638.2
 20
575.0
 10
651.5
 20
575.0
 10
664.8
 20
575.0
 10
678.1
 20
575.0
 10
691.4
 20
575.0
 10
704.7
 20
575.0
 10
718.0
 20
575.0
 10
731.3
 20
575.0
 10
744.6
 20
575.0
 10
757.9000000000001
 20
575.0
 10
771.2
 20
575.0
 10
784.5
 20
575.0
 10
797.8
 20
575.0
 10
811.1
 20
575.0
 10
824.4000000000001
 20
575.0
 10
837.7
 20
575.0
 10
851.0
 20
575.0
 10
864.3
 20
575.0
 10
877.6
 20
575.0
 10
890.9000000000001
 20
575.0
 10
904.2
 20
575.0
 10
917.5
 20
575.0
 10
930.8
 20
575.0
 10
944.0999999999999
 20
575.0
 10
957.4000000000001
 20
575.0
 10
970.7
 20
575.0
 10
984.0
 20
575.0
 10
997.3
 20
575.0
 10
1010.6
 20
575.0
 10
1023.9
 20
575.0
 10
1037.2
 20
575.0
 10
1050.5
 20
575.0
 10
1063.8000000000002
 20
575.0
 10
1077.1
 20
575.0
 10
1090.4
 20
575.0
 10
1103.6999999999998
 20
575.0
 10
1117.0
 20
575.0
 10
1130.3000000000002
 20
575.0
 10
1143.6
 20
575.0
 10
1156.9
 20
575.0
 10
1170.2
 20
575.0
 10
1183.5
 20
575.0
 10
1196.8000000000002
 20
575.0
 10
1210.1
 20
575.0
 10
1223.4
 20
575.0
 10
1236.6999999999998
 20
575.0
 10
1250.0
 20
575.0
 10
1263.3
 20
575.0
 10
1276.6
 20
575.0
 10
1289.9
 20
575.0
 10
1303.2
 20
575.0
 10
1316.5
 20
575.0
 10
1329.8000000000002
 20
575.0
 10
1343.1
 20
575.0
 10
1356.4
 20
575.0
 10
1369.6999999999998
 20
575.0
 10
1383.0
 20
575.0
 10
1396.3
 20
575.0
 10
1409.6
 20
575.0
 10
1422.9
 20
575.0
 10
1436.1999999999998
 20
575.0
 10
1449.5
 20
575.0
 10
1462.8000000000002
 20
575.0
 10
1476.1000000000001
 20
575.0
 10
1489.4
 20
575.0
 10
1502.7
 20
575.0
 10
1516.0
 20
575.0
 10
1529.3000000000002
 20
575.0
 10
1542.6
 20
575.0
 10
1555.8999999999999
 20
575.0
 10
1569.2
 20
575.0
 10
1582.5
 20
575.0
 10
1595.8
 20
575.0
 10
1609.1
 20
575.0
 10
1622.4
 20
575.0
 10
1635.7
 20
575.0
 10
1649.0
 20
575.0
 10
1662.3
 20
575.0
 10
1675.6000000000001
 20
575.0
 10
1688.9
 20
575.0
 10
1702.1999999999998
 20
575.0
 10
1715.5
 20
575.0
 10
1728.8
 20
575.0
 10
1742.1
 20
575.0
 10
1755.3999999999999
 20
575.0
 10
1768.7
 20
575.0
 10
1782.0
 20
575.0
 10
1795.3
 20
575.0
 10
1808.6
 20
575.0
 10
1821.9
 20
575.0
 10
1835.2
 20
575.0
 10
1848.5
 20
575.0
 10
1861.8
 20
575.0
 10
1875.1
 20
575.0
 10
1888.4
 20
575.0
 10
1901.7
 20
575.0
 10
1915.0
 20
575.0
 10
1928.3
 20
575.0
 10
1941.6
 20
575.0
 10
1954.9
 20
575.0
 10
1968.2
 20
575.0
 10
1981.5
 20
575.0
 10
1994.8
 20
575.0
 10
2008.1
 20
575.0
 10
2021.4
 20
575.0
 10
2034.7
 20
575.0
 10
2048.0
 20
575.0
 10
2061.3
 20
575.0
 10
2074.6
 20
575.0
 10
2087.9
 20
575.0
 10
2101.2
 20
575.0
 10
2114.5
 20
575.0
 10
2127.8
 20
575.0
 10
2141.1
 20
575.0
 10
2154.4
 20
575.0
 10
2167.7
 20
575.0
 10
2181.0
 20
575.0
 10
2194.3
 20
575.0
 10
2207.6
 20
575.0
 10
2220.9
 20
575.0
 10
2234.2
 20
575.0
 10
2247.5
 20
575.0
 10
2260.8
 20
575.0
 10
2274.1
 20
575.0
 10
2287.4
 20
575.0
 10
2300.7
 20
575.0
 10
2314.0
 20
575.0
 10
2327.3
 20
575.0
 10
2340.6
 20
575.0
 10
2353.9
 20
575.0
 10
2367.2
 20
575.0
 10
2380.5
 20
575.0
 10
2393.8
 20
575.0
 10
2407.1
 20
575.0
 10
2420.4
 20
575.0
 10
2433.7
 20
575.0
 10
2447.0
 20
575.0
 10
2460.3
 20
575.0
 10
2473.6
 20
575.0
 10
2486.9
 20
575.0
 10
2500.2
 20
575.0
 10
2513.5
 20
575.0
 10
2526.8
 20
575.0
 10
2540.1
 20
575.0
 10
2553.4
 20
575.0
 10
2566.7
 20
575.0
 10
2580.0
 20
575.0
 10
2593.3
 20
575.0
 10
2606.6
 20
575.0
 10
2619.9
 20
575.0
 10
2633.2
 20
575.0
 10
2646.5
 20
575.0
 10
2659.8
 20
575.0
 10
2673.1
 20
575.0
 10
2686.4
 20
575.0
 10
2699.7
 20
575.0
 10
2713.0
 20
575.0
 10
2726.3
 20
575.0
 10
2739.6
 20
575.0
 10
2752.9
 20
575.0
 10
2766.2
 20
575.0
 10
2779.5
 20
575.0
 10
2792.8
 20
575.0
 10
2806.1000000000004
 20
575.0
 10
2819.4
 20
575.0
 10
2832.7
 20
575.0
 10
2846.0
 20
575.0
 10
2859.3
 20
575.0
 10
2872.6
 20
575.0
 10
2885.8999999999996
 20
575.0
 10
2899.2
 20
575.0
 10
2912.5
 20
575.0
 10
2925.8
 20
575.0
 10
2939.1
 20
575.0
 10
2952.4
 20
575.0
 10
2965.7
 20
575.0
 10
2979.0
 20
575.0
 10
2992.3
 20
575.0
 10
3005.6000000000004
 20
575.0
 10
3018.9
 20
575.0
 10
3032.2
 20
575.0
 10
3045.5
 20
575.0
 10
3058.8
 20
575.0
 10
3072.1
 20
575.0
 10
3085.3999999999996
 20
575.0
 10
3098.7
 20
575.0
 10
3112.0
 20
575.0
 10
3112.48
 20
575.56
 10
3112.96
 20
576.12
 10
3113.44
 20
576.68
 10
3113.92
 20
577.24
 10
3114.4
 20
577.8
 10
3114.88
 20
578.36
 10
3115.36
 20
578.92
 10
3115.84
 20
579.48
 10
3116.32
 20
580.04
 10
3116.8
 20
580.6
 10
3117.28
 20
581.16
 10
3117.76
 20
581.72
 10
3118.24
 20
582.28
 10
3118.72
 20
582.84
 10
3119.2
 20
583.4
 10
3119.68
 20
583.96
 10
3120.16
 20
584.52
 10
3120.64
 20
585.08
 10
3121.12
 20
585.64
 10
3121.6
 20
586.2
 10
3122.08
 20
586.76
 10
3122.56
 20
587.32
 10
3123.04
 20
587.88
 10
3123.52
 20
588.44
 10
3124.0
 20
589.0
 10
3124.48
 20
589.56
 10
3124.96
 20
590.12
 10
3125.44
 20
590.68
 10
3125.92
 20
591.24
 10
3126.4
 20
591.8
 10
3126.88
 20
592.36
 10
3127.36
 20
592.92
 10
3127.84
 20
593.48
 10
3128.32
 20
594.04
 10
3128.8
 20
594.6
 10
3129.28
 20
595.16
 10
3129.76
 20
595.72
 10
3130.24
 20
596.28
 10
3130.72
 20
596.84
 10
3131.2
 20
597.4
 10
3131.68
 20
597.96
 10
3132.16
 20
598.52
 10
3132.64
 20
599.08
 10
3133.12
 20
599.64
 10
3133.6
 20
600.2
 10
3134.08
 20
600.76
 10
3134.56
 20
601.32
 10
3135.04
 20
601.88
 10
3135.52
 20
602.44
 10
3136.0
 20
603.0
 10
3136.389391
 20
603.45238
 10
3136.777528
 20
603.90944
 10
3137.164357
 20
604.3710599999999
 10
3137.549824
 20
604.83712
 10
3137.933875
 20
605.3075
 10
3138.316456
 20
605.78208
 10
3138.697513
 20
606.26074
 10
3139.076992
 20
606.74336
 10
3139.454839
 20
607.22982
 10
3139.831
 20
607.72
 10
3140.205421
 20
608.21378
 10
3140.578048
 20
608.71104
 10
3140.948827
 20
609.21166
 10
3141.317704
 20
609.71552
 10
3141.684625
 20
610.2225
 10
3142.049536
 20
610.73248
 10
3142.412383
 20
611.24534
 10
3142.773112
 20
611.76096
 10
3143.131669
 20
612.27922
 10
3143.488
 20
612.8
 10
3143.842051
 20
613.32318
 10
3144.193768
 20
613.84864
 10
3144.543097
 20
614.37626
 10
3144.889984
 20
614.90592
 10
3145.234375
 20
615.4375
 10
3145.576216
 20
615.97088
 10
3145.915453
 20
616.50594
 10
3146.252032
 20
617.04256
 10
3146.585899
 20
617.58062
 10
3146.917
 20
618.12
 10
3147.245281
 20
618.66058
 10
3147.570688
 20
619.20224
 10
3147.893167
 20
619.74486
 10
3148.212664
 20
620.28832
 10
3148.529125
 20
620.8325
 10
3148.842496
 20
621.37728
 10
3149.152723
 20
621.92254
 10
3149.459752
 20
622.46816
 10
3149.763529
 20
623.01402
 10
3150.064
 20
623.56
 10
3150.361111
 20
624.10598
 10
3150.654808
 20
624.65184
 10
3150.945037
 20
625.19746
 10
3151.231744
 20
625.74272
 10
3151.514875
 20
626.2875
 10
3151.794376
 20
626.83168
 10
3152.070193
 20
627.37514
 10
3152.342272
 20
627.91776
 10
3152.610559
 20
628.45942
 10
3152.875
 20
629.0
 10
3153.135541
 20
629.53938
 10
3153.392128
 20
630.07744
 10
3153.644707
 20
630.61406
 10
3153.893224
 20
631.14912
 10
3154.137625
 20
631.6825
 10
3154.377856
 20
632.21408
 10
3154.613863
 20
632.74374
 10
3154.845592
 20
633.27136
 10
3155.072989
 20
633.79682
 10
3155.296
 20
634.32
 10
3155.514571
 20
634.84078
 10
3155.728648
 20
635.35904
 10
3155.938177
 20
635.87466
 10
3156.143104
 20
636.38752
 10
3156.343375
 20
636.8975
 10
3156.538936
 20
637.40448
 10
3156.729733
 20
637.90834
 10
3156.915712
 20
638.40896
 10
3157.096819
 20
638.90622
 10
3157.273
 20
639.4
 10
3157.444201
 20
639.89018
 10
3157.610368
 20
640.37664
 10
3157.771447
 20
640.85926
 10
3157.927384
 20
641.3379199999999
 10
3158.223616
 20
642.28288
 10
3158.498632
 20
643.21056
 10
3158.752
 20
644.12
 10
3158.983288
 20
645.01024
 10
3159.192064
 20
645.88032
 10
3159.377896
 20
646.72928
 10
3159.540352
 20
647.55616
 10
3159.679
 20
648.36
 10
3159.793408
 20
649.13984
 10
3159.883144
 20
649.89472
 10
3159.947776
 20
650.62368
 10
3159.986872
 20
651.32576
 10
3160.0
 20
652.0
 10
3159.943904
 20
652.814232
 10
3159.776832
 20
653.814656
 10
3159.65225
 20
654.383625
 10
3159.500608
 20
654.997864
 10
3159.322134
 20
655.656947
 10
3159.117056
 20
656.360448
 10
3158.885602
 20
657.107941
 10
3158.628
 20
657.899
 10
3158.344478
 20
658.733199
 10
3158.035264
 20
659.610112
 10
3157.700586
 20
660.529313
 10
3157.340672
 20
661.490376
 10
3156.95575
 20
662.492875
 10
3156.546048
 20
663.536384
 10
3156.111794
 20
664.620477
 10
3155.653216
 20
665.744728
 10
3155.170542
 20
666.908711
 10
3154.664
 20
668.112
 10
3154.133818
 20
669.354169
 10
3153.580224
 20
670.634792
 10
3153.003446
 20
671.953443
 10
3152.403712
 20
673.309696
 10
3151.78125
 20
674.703125
 10
3151.136288
 20
676.133304
 10
3150.469054
 20
677.599807
 10
3149.779776
 20
679.102208
 10
3149.068682
 20
680.640081
 10
3148.336
 20
682.213
 10
3147.581958
 20
683.820539
 10
3146.806784
 20
685.462272
 10
3146.010706
 20
687.137773
 10
3145.193952
 20
688.846616
 10
3144.35675
 20
690.588375
 10
3143.499328
 20
692.362624
 10
3142.621914
 20
694.168937
 10
3141.724736
 20
696.006888
 10
3140.808022
 20
697.876051
 10
3139.872
 20
699.776
 10
3138.916898
 20
701.706309
 10
3137.942944
 20
703.666552
 10
3136.950366
 20
705.656303
 10
3135.939392
 20
707.675136
 10
3134.91025
 20
709.722625
 10
3133.863168
 20
711.798344
 10
3132.798374
 20
713.901867
 10
3131.716096
 20
716.032768
 10
3130.616562
 20
718.190621
 10
3129.5
 20
720.375
 10
3128.366638
 20
722.585479
 10
3127.216704
 20
724.821632
 10
3126.050426
 20
727.083033
 10
3124.868032
 20
729.3692560000001
 10
3123.66975
 20
731.679875
 10
3122.455808
 20
734.014464
 10
3121.226434
 20
736.372597
 10
3119.981856
 20
738.7538480000001
 10
3118.722302
 20
741.157791
 10
3117.448
 20
743.584
 10
3116.159178
 20
746.032049
 10
3114.856064
 20
748.501512
 10
3113.538886
 20
750.991963
 10
3112.207872
 20
753.502976
 10
3110.86325
 20
756.034125
 10
3109.505248
 20
758.584984
 10
3108.134094
 20
761.155127
 10
3106.750016
 20
763.744128
 10
3105.353242
 20
766.351561
 10
3103.944
 20
768.977
 10
3102.522518
 20
771.620019
 10
3101.089024
 20
774.2801919999999
 10
3099.643746
 20
776.957093
 10
3098.186912
 20
779.650296
 10
3096.71875
 20
782.359375
 10
3095.239488
 20
785.083904
 10
3093.749354
 20
787.823457
 10
3092.248576
 20
790.577608
 10
3090.737382
 20
793.3459310000001
 10
3089.216
 20
796.128
 10
3087.684658
 20
798.923389
 10
3086.143584
 20
801.731672
 10
3084.593006
 20
804.552423
 10
3083.033152
 20
807.385216
 10
3081.46425
 20
810.2296249999999
 10
3079.886528
 20
813.085224
 10
3078.300214
 20
815.951587
 10
3076.705536
 20
818.828288
 10
3075.102722
 20
821.714901
 10
3073.492
 20
824.611
 10
3071.873598
 20
827.516159
 10
3070.247744
 20
830.429952
 10
3068.614666
 20
833.351953
 10
3066.974592
 20
836.281736
 10
3065.32775
 20
839.218875
 10
3063.674368
 20
842.1629439999999
 10
3062.014674
 20
845.113517
 10
3060.348896
 20
848.070168
 10
3058.677262
 20
851.032471
 10
3057.0
 20
854.0
 10
3050.634511
 20
865.116358
 10
3044.317688
 20
876.146064
 10
3038.048997
 20
887.090066
 10
3031.827904
 20
897.949312
 10
3025.653875
 20
908.72475
 10
3019.526376
 20
919.417328
 10
3013.444873
 20
930.027994
 10
3007.408832
 20
940.557696
 10
3001.417719
 20
951.007382
 10
2995.471
 20
961.378
 10
2989.568141
 20
971.670498
 10
2983.708608
 20
981.885824
 10
2977.891867
 20
992.024926
 10
2972.117384
 20
1002.088752
 10
2966.384625
 20
1012.07825
 10
2960.693056
 20
1021.994368
 10
2955.042143
 20
1031.838054
 10
2949.431352
 20
1041.610256
 10
2943.860149
 20
1051.311922
 10
2938.328
 20
1060.944
 10
2932.834371
 20
1070.507438
 10
2927.378728
 20
1080.003184
 10
2921.960537
 20
1089.432186
 10
2916.579264
 20
1098.795392
 10
2911.234375
 20
1108.09375
 10
2905.9253360000002
 20
1117.328208
 10
2900.651613
 20
1126.499714
 10
2895.412672
 20
1135.609216
 10
2890.207979
 20
1144.657662
 10
2885.037
 20
1153.646
 10
2879.899201
 20
1162.575178
 10
2874.794048
 20
1171.446144
 10
2869.721007
 20
1180.259846
 10
2864.679544
 20
1189.0172320000001
 10
2859.669125
 20
1197.71925
 10
2854.6892159999998
 20
1206.366848
 10
2849.739283
 20
1214.960974
 10
2844.818792
 20
1223.5025759999999
 10
2839.927209
 20
1231.992602
 10
2835.064
 20
1240.432
 10
2830.228631
 20
1248.8217180000001
 10
2825.420568
 20
1257.1627039999998
 10
2820.639277
 20
1265.455906
 10
2815.884224
 20
1273.702272
 10
2811.154875
 20
1281.90275
 10
2806.450696
 20
1290.058288
 10
2801.771153
 20
1298.169834
 10
2797.115712
 20
1306.238336
 10
2792.483839
 20
1314.264742
 10
2787.875
 20
1322.25
 10
2783.288661
 20
1330.195058
 10
2778.724288
 20
1338.100864
 10
2774.181347
 20
1345.968366
 10
2769.659304
 20
1353.798512
 10
2765.157625
 20
1361.5922500000001
 10
2760.675776
 20
1369.350528
 10
2756.213223
 20
1377.074294
 10
2751.769432
 20
1384.764496
 10
2747.343869
 20
1392.422082
 10
2742.936
 20
1400.048
 10
2738.545291
 20
1407.643198
 10
2734.1712079999998
 20
1415.2086239999999
 10
2729.813217
 20
1422.745226
 10
2725.470784
 20
1430.253952
 10
2721.143375
 20
1437.7357499999998
 10
2716.830456
 20
1445.191568
 10
2712.531493
 20
1452.622354
 10
2708.245952
 20
1460.029056
 10
2703.973299
 20
1467.4126219999998
 10
2699.713
 20
1474.774
 10
2695.464521
 20
1482.114138
 10
2691.227328
 20
1489.433984
 10
2687.000887
 20
1496.734486
 10
2682.784664
 20
1504.016592
 10
2678.578125
 20
1511.28125
 10
2674.380736
 20
1518.5294079999999
 10
2670.191963
 20
1525.762014
 10
2666.0112719999997
 20
1532.980016
 10
2661.8381289999998
 20
1540.184362
 10
2657.672
 20
1547.3760000000002
 10
2653.512351
 20
1554.5558780000001
 10
2649.358648
 20
1561.724944
 10
2645.210357
 20
1568.8841459999999
 10
2641.066944
 20
1576.034432
 10
2636.927875
 20
1583.17675
 10
2632.792616
 20
1590.312048
 10
2628.660633
 20
1597.441274
 10
2624.531392
 20
1604.565376
 10
2620.404359
 20
1611.6853019999999
 10
2616.279
 20
1618.8020000000001
 10
2612.154781
 20
1625.916418
 10
2608.031168
 20
1633.029504
 10
2603.907627
 20
1640.142206
 10
2599.783624
 20
1647.2554719999998
 10
2595.658625
 20
1654.37025
 10
2591.532096
 20
1661.4874880000002
 10
2587.403503
 20
1668.608134
 10
2583.272312
 20
1675.733136
 10
2579.137989
 20
1682.8634419999998
 10
2575.0
 20
1690.0
 10
2572.625649
 20
1694.10974
 10
2570.183192
 20
1698.33792
 10
2567.673523
 20
1702.68298
 10
2565.097536
 20
1707.14336
 10
2562.456125
 20
1711.7175
 10
2559.750184
 20
1716.40384
 10
2556.980607
 20
1721.20082
 10
2554.148288
 20
1726.10688
 10
2551.254121
 20
1731.12046
 10
2548.299
 20
1736.24
 10
2545.283819
 20
1741.46394
 10
2542.209472
 20
1746.79072
 10
2539.076853
 20
1752.21878
 10
2535.886856
 20
1757.74656
 10
2532.640375
 20
1763.3725
 10
2529.338304
 20
1769.09504
 10
2525.981537
 20
1774.91262
 10
2522.570968
 20
1780.82368
 10
2519.107491
 20
1786.82666
 10
2515.592
 20
1792.92
 10
2512.025389
 20
1799.10214
 10
2508.408552
 20
1805.37152
 10
2504.742383
 20
1811.72658
 10
2501.027776
 20
1818.16576
 10
2497.265625
 20
1824.6875
 10
2493.456824
 20
1831.29024
 10
2489.602267
 20
1837.97242
 10
2485.702848
 20
1844.7324800000001
 10
2481.759461
 20
1851.56886
 10
2477.773
 20
1858.48
 10
2473.744359
 20
1865.46434
 10
2469.674432
 20
1872.52032
 10
2465.564113
 20
1879.6463800000001
 10
2461.414296
 20
1886.84096
 10
2457.225875
 20
1894.1025
 10
2452.999744
 20
1901.4294399999999
 10
2448.736797
 20
1908.82022
 10
2444.437928
 20
1916.2732799999999
 10
2440.104031
 20
1923.78706
 10
2435.736
 20
1931.3600000000001
 10
2431.334729
 20
1938.99054
 10
2426.901112
 20
1946.67712
 10
2422.436043
 20
1954.41818
 10
2417.940416
 20
1962.21216
 10
2413.415125
 20
1970.0575
 10
2408.861064
 20
1977.95264
 10
2404.279127
 20
1985.8960200000001
 10
2399.670208
 20
1993.88608
 10
2395.035201
 20
2001.92126
 10
2390.375
 20
2010.0
 10
2385.690499
 20
2018.12074
 10
2380.982592
 20
2026.28192
 10
2376.252173
 20
2034.48198
 10
2371.500136
 20
2042.71936
 10
2366.727375
 20
2050.9925000000003
 10
2361.934784
 20
2059.29984
 10
2357.123257
 20
2067.63982
 10
2352.293688
 20
2076.01088
 10
2347.446971
 20
2084.41146
 10
2342.584
 20
2092.84
 10
2337.705669
 20
2101.2949399999998
 10
2332.812872
 20
2109.77472
 10
2327.906503
 20
2118.27778
 10
2322.987456
 20
2126.80256
 10
2318.056625
 20
2135.3475
 10
2313.114904
 20
2143.91104
 10
2308.163187
 20
2152.4916200000002
 10
2303.202368
 20
2161.08768
 10
2298.233341
 20
2169.69766
 10
2293.257
 20
2178.3199999999997
 10
2288.274239
 20
2186.95314
 10
2283.285952
 20
2195.59552
 10
2278.293033
 20
2204.24558
 10
2273.2963760000002
 20
2212.9017599999997
 10
2268.296875
 20
2221.5625
 10
2263.295424
 20
2230.22624
 10
2258.2929169999998
 20
2238.89142
 10
2253.2902480000002
 20
2247.55648
 10
2248.288311
 20
2256.21986
 10
2243.288
 20
2264.88
 10
2238.290209
 20
2273.53534
 10
2233.295832
 20
2282.18432
 10
2228.305763
 20
2290.82538
 10
2223.320896
 20
2299.45696
 10
2218.342125
 20
2308.0775
 10
2213.370344
 20
2316.68544
 10
2208.406447
 20
2325.27922
 10
2203.451328
 20
2333.85728
 10
2198.505881
 20
2342.41806
 10
2193.571
 20
2350.96
 10
2188.647579
 20
2359.4815399999998
 10
2183.736512
 20
2367.98112
 10
2178.8386929999997
 20
2376.45718
 10
2173.955016
 20
2384.90816
 10
2169.086375
 20
2393.3325
 10
2164.233664
 20
2401.7286400000003
 10
2159.397777
 20
2410.0950199999997
 10
2154.579608
 20
2418.43008
 10
2149.7800509999997
 20
2426.7322599999998
 10
2145.0
 20
2435.0
 10
2140.26491
 20
2443.238417
 10
2135.54008
 20
2451.452936
 10
2130.82617
 20
2459.642459
 10
2126.12384
 20
2467.805888
 10
2121.43375
 20
2475.942125
 10
2116.75656
 20
2484.050072
 10
2112.09293
 20
2492.128631
 10
2107.44352
 20
2500.176704
 10
2102.80899
 20
2508.193193
 10
2098.19
 20
2516.177
 10
2093.58721
 20
2524.127027
 10
2089.00128
 20
2532.042176
 10
2084.43287
 20
2539.921349
 10
2079.88264
 20
2547.763448
 10
2075.35125
 20
2555.567375
 10
2070.83936
 20
2563.332032
 10
2066.34763
 20
2571.056321
 10
2061.87672
 20
2578.739144
 10
2057.42729
 20
2586.379403
 10
2053.0
 20
2593.976
 10
2048.59551
 20
2601.527837
 10
2044.21448
 20
2609.033816
 10
2039.85757
 20
2616.492839
 10
2035.52544
 20
2623.903808
 10
2031.21875
 20
2631.265625
 10
2026.93816
 20
2638.577192
 10
2022.68433
 20
2645.837411
 10
2018.45792
 20
2653.045184
 10
2014.2595900000001
 20
2660.199413
 10
2010.09
 20
2667.299
 10
2005.94981
 20
2674.342847
 10
2001.83968
 20
2681.329856
 10
1997.76027
 20
2688.258929
 10
1993.71224
 20
2695.128968
 10
1989.69625
 20
2701.938875
 10
1985.71296
 20
2708.687552
 10
1981.76303
 20
2715.373901
 10
1977.84712
 20
2721.996824
 10
1973.96589
 20
2728.555223
 10
1970.12
 20
2735.048
 10
1966.31011
 20
2741.474057
 10
1962.53688
 20
2747.832296
 10
1958.80097
 20
2754.121619
 10
1955.10304
 20
2760.340928
 10
1951.44375
 20
2766.489125
 10
1947.82376
 20
2772.565112
 10
1944.24373
 20
2778.567791
 10
1940.70432
 20
2784.496064
 10
1937.2061899999999
 20
2790.348833
 10
1933.75
 20
2796.125
 10
1930.33641
 20
2801.823467
 10
1926.96608
 20
2807.443136
 10
1923.63967
 20
2812.982909
 10
1920.35784
 20
2818.441688
 10
1917.12125
 20
2823.818375
 10
1913.93056
 20
2829.111872
 10
1910.78643
 20
2834.321081
 10
1907.68952
 20
2839.444904
 10
1904.64049
 20
2844.482243
 10
1901.6399999999999
 20
2849.432
 10
1898.68871
 20
2854.2930770000003
 10
1895.78728
 20
2859.064376
 10
1892.93637
 20
2863.744799
 10
1890.13664
 20
2868.333248
 10
1887.38875
 20
2872.828625
 10
1884.69336
 20
2877.229832
 10
1882.05113
 20
2881.535771
 10
1879.46272
 20
2885.745344
 10
1876.92879
 20
2889.857453
 10
1874.45
 20
2893.871
 10
1872.02701
 20
2897.784887
 10
1869.66048
 20
2901.598016
 10
1867.35107
 20
2905.309289
 10
1865.09944
 20
2908.917608
 10
1862.90625
 20
2912.421875
 10
1860.77216
 20
2915.820992
 10
1858.69783
 20
2919.113861
 10
1856.68392
 20
2922.299384
 10
1854.73109
 20
2925.376463
 10
1852.84
 20
2928.344
 10
1851.01131
 20
2931.200897
 10
1849.24568
 20
2933.9460559999998
 10
1847.54377
 20
2936.578379
 10
1845.90624
 20
2939.096768
 10
1844.33375
 20
2941.500125
 10
1842.8269599999999
 20
2943.787352
 10
1841.38653
 20
2945.957351
 10
1840.01312
 20
2948.009024
 10
1838.70739
 20
2949.941273
 10
1837.47
 20
2951.7529999999997
 10
1836.30161
 20
2953.443107
 10
1835.20288
 20
2955.010496
 10
1834.17447
 20
2956.454069
 10
1833.21704
 20
2957.772728
 10
1832.33125
 20
2958.9653749999998
 10
1831.51776
 20
2960.030912
 10
1830.77723
 20
2960.968241
 10
1830.11032
 20
2961.776264
 10
1829.5176900000001
 20
2962.453883
 10
1829.0
 20
2963.0
 10
1828.073276
 20
2963.832804
 10
1827.153008
 20
2964.651232
 10
1826.239052
 20
2965.455308
 10
1825.331264
 20
2966.245056
 10
1824.4295
 20
2967.0205
 10
1823.533616
 20
2967.781664
 10
1822.643468
 20
2968.528572
 10
1821.758912
 20
2969.261248
 10
1820.879804
 20
2969.979716
 10
1820.006
 20
2970.684
 10
1819.137356
 20
2971.374124
 10
1818.273728
 20
2972.050112
 10
1817.414972
 20
2972.711988
 10
1816.560944
 20
2973.359776
 10
1815.7115
 20
2973.9935
 10
1814.866496
 20
2974.613184
 10
1814.025788
 20
2975.218852
 10
1813.189232
 20
2975.810528
 10
1812.356684
 20
2976.388236
 10
1811.528
 20
2976.952
 10
1810.703036
 20
2977.501844
 10
1809.881648
 20
2978.037792
 10
1809.063692
 20
2978.559868
 10
1808.249024
 20
2979.068096
 10
1807.4375
 20
2979.5625
 10
1806.628976
 20
2980.043104
 10
1805.823308
 20
2980.509932
 10
1805.020352
 20
2980.963008
 10
1804.219964
 20
2981.402356
 10
1803.422
 20
2981.828
 10
1802.626316
 20
2982.239964
 10
1801.832768
 20
2982.638272
 10
1801.041212
 20
2983.022948
 10
1800.251504
 20
2983.394016
 10
1799.4635
 20
2983.7515
 10
1798.677056
 20
2984.095424
 10
1797.892028
 20
2984.425812
 10
1797.108272
 20
2984.742688
 10
1796.325644
 20
2985.046076
 10
1795.544
 20
2985.336
 10
1794.763196
 20
2985.612484
 10
1793.983088
 20
2985.875552
 10
1793.203532
 20
2986.125228
 10
1792.424384
 20
2986.361536
 10
1791.6455
 20
2986.5845
 10
1790.866736
 20
2986.794144
 10
1790.087948
 20
2986.990492
 10
1789.308992
 20
2987.173568
 10
1788.529724
 20
2987.343396
 10
1787.75
 20
2987.5
 10
1786.969676
 20
2987.643404
 10
1786.188608
 20
2987.773632
 10
1785.406652
 20
2987.890708
 10
1784.623664
 20
2987.994656
 10
1783.8395
 20
2988.0855
 10
1783.054016
 20
2988.163264
 10
1782.267068
 20
2988.227972
 10
1781.478512
 20
2988.279648
 10
1780.688204
 20
2988.318316
 10
1779.896
 20
2988.344
 10
1779.101756
 20
2988.356724
 10
1778.305328
 20
2988.356512
 10
1777.506572
 20
2988.343388
 10
1776.705344
 20
2988.317376
 10
1775.9015
 20
2988.2785
 10
1775.094896
 20
2988.226784
 10
1774.285388
 20
2988.162252
 10
1773.472832
 20
2988.084928
 10
1772.657084
 20
2987.994836
 10
1771.838
 20
2987.892
 10
1771.015436
 20
2987.776444
 10
1770.189248
 20
2987.648192
 10
1769.359292
 20
2987.507268
 10
1768.525424
 20
2987.353696
 10
1767.6875
 20
2987.1875
 10
1766.845376
 20
2987.008704
 10
1765.998908
 20
2986.817332
 10
1765.147952
 20
2986.613408
 10
1764.292364
 20
2986.396956
 10
1763.432
 20
2986.168
 10
1762.566716
 20
2985.926564
 10
1761.696368
 20
2985.672672
 10
1760.820812
 20
2985.406348
 10
1759.939904
 20
2985.127616
 10
1759.0535
 20
2984.8365
 10
1758.161456
 20
2984.533024
 10
1757.263628
 20
2984.217212
 10
1756.359872
 20
2983.889088
 10
1755.450044
 20
2983.548676
 10
1754.534
 20
2983.196
 10
1753.611596
 20
2982.831084
 10
1752.682688
 20
2982.453952
 10
1751.747132
 20
2982.064628
 10
1750.804784
 20
2981.663136
 10
1749.8555000000001
 20
2981.2495
 10
1748.899136
 20
2980.823744
 10
1747.935548
 20
2980.385892
 10
1746.964592
 20
2979.935968
 10
1745.986124
 20
2979.473996
 10
1745.0
 20
2979.0
 10
1855.0
 20
2558.0
 10
1856.171167
 20
2555.987658
 10
1857.344536
 20
2553.970864
 10
1858.519909
 20
2551.949966
 10
1859.697088
 20
2549.925312
 10
1860.875875
 20
2547.89725
 10
1862.056072
 20
2545.866128
 10
1863.237481
 20
2543.832294
 10
1864.419904
 20
2541.796096
 10
1865.603143
 20
2539.757882
 10
1866.787
 20
2537.718
 10
1867.971277
 20
2535.676798
 10
1869.155776
 20
2533.634624
 10
1870.340299
 20
2531.591826
 10
1871.524648
 20
2529.548752
 10
1872.708625
 20
2527.50575
 10
1873.892032
 20
2525.463168
 10
1875.074671
 20
2523.421354
 10
1876.256344
 20
2521.380656
 10
1877.436853
 20
2519.341422
 10
1878.616
 20
2517.304
 10
1879.793587
 20
2515.268738
 10
1880.969416
 20
2513.235984
 10
1882.143289
 20
2511.206086
 10
1883.315008
 20
2509.179392
 10
1884.484375
 20
2507.15625
 10
1885.651192
 20
2505.137008
 10
1886.815261
 20
2503.122014
 10
1887.976384
 20
2501.111616
 10
1889.134363
 20
2499.106162
 10
1890.289
 20
2497.106
 10
1891.440097
 20
2495.111478
 10
1892.587456
 20
2493.122944
 10
1893.730879
 20
2491.140746
 10
1894.870168
 20
2489.165232
 10
1896.005125
 20
2487.19675
 10
1897.135552
 20
2485.235648
 10
1898.261251
 20
2483.282274
 10
1899.382024
 20
2481.336976
 10
1900.497673
 20
2479.400102
 10
1901.608
 20
2477.472
 10
1902.7128069999999
 20
2475.553018
 10
1903.811896
 20
2473.643504
 10
1904.905069
 20
2471.743806
 10
1905.992128
 20
2469.854272
 10
1907.072875
 20
2467.97525
 10
1908.147112
 20
2466.107088
 10
1909.214641
 20
2464.250134
 10
1910.275264
 20
2462.404736
 10
1911.328783
 20
2460.571242
 10
1912.375
 20
2458.75
 10
1913.413717
 20
2456.941358
 10
1914.444736
 20
2455.145664
 10
1915.467859
 20
2453.363266
 10
1916.482888
 20
2451.594512
 10
1917.489625
 20
2449.83975
 10
1918.487872
 20
2448.099328
 10
1919.477431
 20
2446.373594
 10
1920.458104
 20
2444.662896
 10
1921.429693
 20
2442.967582
 10
1922.392
 20
2441.288
 10
1923.344827
 20
2439.624498
 10
1924.287976
 20
2437.977424
 10
1925.221249
 20
2436.347126
 10
1926.144448
 20
2434.733952
 10
1927.057375
 20
2433.13825
 10
1927.959832
 20
2431.560368
 10
1928.851621
 20
2430.000654
 10
1929.732544
 20
2428.459456
 10
1930.602403
 20
2426.937122
 10
1931.461
 20
2425.434
 10
1932.308137
 20
2423.950438
 10
1933.143616
 20
2422.486784
 10
1933.967239
 20
2421.043386
 10
1934.778808
 20
2419.620592
 10
1935.578125
 20
2418.21875
 10
1936.364992
 20
2416.838208
 10
1937.139211
 20
2415.479314
 10
1937.900584
 20
2414.142416
 10
1938.648913
 20
2412.827862
 10
1939.384
 20
2411.536
 10
1940.105647
 20
2410.267178
 10
1940.813656
 20
2409.021744
 10
1941.507829
 20
2407.800046
 10
1942.187968
 20
2406.602432
 10
1942.853875
 20
2405.42925
 10
1943.505352
 20
2404.280848
 10
1944.1422010000001
 20
2403.157574
 10
1944.764224
 20
2402.059776
 10
1945.371223
 20
2400.987802
 10
1945.963
 20
2399.942
 10
1946.539357
 20
2398.922718
 10
1947.1000960000001
 20
2397.930304
 10
1947.645019
 20
2396.965106
 10
1948.173928
 20
2396.0274719999998
 10
1948.686625
 20
2395.11775
 10
1949.182912
 20
2394.236288
 10
1949.662591
 20
2393.383434
 10
1950.125464
 20
2392.559536
 10
1950.571333
 20
2391.764942
 10
1951.0
 20
2391.0
 10
1951.428964
 20
2390.205656
 10
1951.875712
 20
2389.382848
 10
1952.340028
 20
2388.531912
 10
1952.821696
 20
2387.653184
 10
1953.3205
 20
2386.747
 10
1953.836224
 20
2385.813696
 10
1954.368652
 20
2384.853608
 10
1954.917568
 20
2383.867072
 10
1955.482756
 20
2382.854424
 10
1956.064
 20
2381.816
 10
1956.661084
 20
2380.752136
 10
1957.273792
 20
2379.663168
 10
1957.901908
 20
2378.549432
 10
1958.545216
 20
2377.411264
 10
1959.2035
 20
2376.249
 10
1959.876544
 20
2375.062976
 10
1960.564132
 20
2373.853528
 10
1961.266048
 20
2372.620992
 10
1961.982076
 20
2371.365704
 10
1962.712
 20
2370.088
 10
1963.455604
 20
2368.788216
 10
1964.212672
 20
2367.466688
 10
1964.982988
 20
2366.123752
 10
1965.766336
 20
2364.759744
 10
1966.5625
 20
2363.375
 10
1967.371264
 20
2361.969856
 10
1968.192412
 20
2360.544648
 10
1969.025728
 20
2359.099712
 10
1969.870996
 20
2357.635384
 10
1970.728
 20
2356.152
 10
1971.596524
 20
2354.649896
 10
1972.476352
 20
2353.129408
 10
1973.367268
 20
2351.590872
 10
1974.269056
 20
2350.034624
 10
1975.1815
 20
2348.461
 10
1976.104384
 20
2346.870336
 10
1977.037492
 20
2345.262968
 10
1977.980608
 20
2343.639232
 10
1978.933516
 20
2341.999464
 10
1979.896
 20
2340.344
 10
1980.867844
 20
2338.673176
 10
1981.848832
 20
2336.987328
 10
1982.838748
 20
2335.286792
 10
1983.837376
 20
2333.571904
 10
1984.8445
 20
2331.843
 10
1985.859904
 20
2330.100416
 10
1986.883372
 20
2328.344488
 10
1987.914688
 20
2326.575552
 10
1988.953636
 20
2324.793944
 10
1990.0
 20
2323.0
 10
1991.053564
 20
2321.194056
 10
1992.114112
 20
2319.376448
 10
1993.181428
 20
2317.547512
 10
1994.255296
 20
2315.7075839999998
 10
1995.3355
 20
2313.857
 10
1996.421824
 20
2311.996096
 10
1997.514052
 20
2310.125208
 10
1998.611968
 20
2308.244672
 10
1999.715356
 20
2306.354824
 10
2000.824
 20
2304.456
 10
2001.937684
 20
2302.548536
 10
2003.056192
 20
2300.632768
 10
2004.179308
 20
2298.709032
 10
2005.306816
 20
2296.777664
 10
2006.4385
 20
2294.839
 10
2007.574144
 20
2292.893376
 10
2008.713532
 20
2290.941128
 10
2009.856448
 20
2288.982592
 10
2011.002676
 20
2287.018104
 10
2012.152
 20
2285.048
 10
2013.304204
 20
2283.072616
 10
2014.459072
 20
2281.092288
 10
2015.616388
 20
2279.107352
 10
2016.775936
 20
2277.118144
 10
2017.9375
 20
2275.125
 10
2019.100864
 20
2273.128256
 10
2020.265812
 20
2271.128248
 10
2021.432128
 20
2269.125312
 10
2022.599596
 20
2267.119784
 10
2023.768
 20
2265.112
 10
2024.937124
 20
2263.102296
 10
2026.106752
 20
2261.091008
 10
2027.276668
 20
2259.078472
 10
2028.446656
 20
2257.065024
 10
2029.6165
 20
2255.051
 10
2030.785984
 20
2253.036736
 10
2031.954892
 20
2251.022568
 10
2033.123008
 20
2249.008832
 10
2034.290116
 20
2246.995864
 10
2035.456
 20
2244.984
 10
2036.620444
 20
2242.973576
 10
2037.783232
 20
2240.964928
 10
2038.944148
 20
2238.958392
 10
2040.102976
 20
2236.954304
 10
2041.2595000000001
 20
2234.953
 10
2042.413504
 20
2232.954816
 10
2043.564772
 20
2230.960088
 10
2044.713088
 20
2228.969152
 10
2045.858236
 20
2226.982344
 10
2047.0
 20
2225.0
 10
2049.903576
 20
2220.016833
 10
2052.912608
 20
2214.850264
 10
2056.024552
 20
2209.504691
 10
2059.236864
 20
2203.984512
 10
2062.547
 20
2198.294125
 10
2065.952416
 20
2192.437928
 10
2069.450568
 20
2186.420319
 10
2073.038912
 20
2180.245696
 10
2076.714904
 20
2173.918457
 10
2080.476
 20
2167.443
 10
2084.319656
 20
2160.823723
 10
2088.243328
 20
2154.065024
 10
2092.244472
 20
2147.171301
 10
2096.320544
 20
2140.146952
 10
2100.469
 20
2132.996375
 10
2104.687296
 20
2125.723968
 10
2108.972888
 20
2118.334129
 10
2113.323232
 20
2110.831256
 10
2117.735784
 20
2103.219747
 10
2122.208
 20
2095.504
 10
2126.737336
 20
2087.688413
 10
2131.321248
 20
2079.777384
 10
2135.957192
 20
2071.775311
 10
2140.642624
 20
2063.686592
 10
2145.375
 20
2055.515625
 10
2150.151776
 20
2047.266808
 10
2154.970408
 20
2038.944539
 10
2159.828352
 20
2030.553216
 10
2164.723064
 20
2022.097237
 10
2169.652
 20
2013.581
 10
2174.612616
 20
2005.008903
 10
2179.602368
 20
1996.385344
 10
2184.618712
 20
1987.714721
 10
2189.659104
 20
1979.001432
 10
2194.721
 20
1970.249875
 10
2199.801856
 20
1961.464448
 10
2204.899128
 20
1952.649549
 10
2210.010272
 20
1943.809576
 10
2215.132744
 20
1934.948927
 10
2220.264
 20
1926.0720000000001
 10
2225.401496
 20
1917.183193
 10
2230.542688
 20
1908.286904
 10
2235.685032
 20
1899.387531
 10
2240.825984
 20
1890.489472
 10
2245.963
 20
1881.597125
 10
2251.093536
 20
1872.714888
 10
2256.215048
 20
1863.847159
 10
2261.324992
 20
1854.998336
 10
2266.420824
 20
1846.1728170000001
 10
2271.5
 20
1837.375
 10
2276.559976
 20
1828.609283
 10
2281.598208
 20
1819.880064
 10
2286.612152
 20
1811.191741
 10
2291.599264
 20
1802.548712
 10
2296.557
 20
1793.955375
 10
2301.482816
 20
1785.4161279999998
 10
2306.374168
 20
1776.935369
 10
2311.228512
 20
1768.517496
 10
2316.043304
 20
1760.166907
 10
2320.816
 20
1751.888
 10
2325.5440559999997
 20
1743.685173
 10
2330.224928
 20
1735.562824
 10
2334.856072
 20
1727.525351
 10
2339.434944
 20
1719.5771519999998
 10
2343.959
 20
1711.7226249999999
 10
2348.4256960000002
 20
1703.966168
 10
2352.832488
 20
1696.312179
 10
2357.176832
 20
1688.765056
 10
2361.456184
 20
1681.329197
 10
2365.668
 20
1674.009
 10
2369.809736
 20
1666.808863
 10
2373.878848
 20
1659.7331840000002
 10
2377.872792
 20
1652.786361
 10
2381.789024
 20
1645.972792
 10
2385.625
 20
1639.296875
 10
2389.378176
 20
1632.763008
 10
2393.046008
 20
1626.375589
 10
2396.625952
 20
1620.139016
 10
2400.115464
 20
1614.057687
 10
2403.512
 20
1608.136
 10
2406.813016
 20
1602.378353
 10
2410.015968
 20
1596.7891439999999
 10
2413.118312
 20
1591.372771
 10
2416.117504
 20
1586.133632
 10
2419.011
 20
1581.076125
 10
2421.796256
 20
1576.204648
 10
2424.4707280000002
 20
1571.523599
 10
2427.031872
 20
1567.037376
 10
2429.477144
 20
1562.750377
 10
2431.804
 20
1558.667
 10
2434.009896
 20
1554.791643
 10
2436.092288
 20
1551.128704
 10
2438.048632
 20
1547.682581
 10
2439.876384
 20
1544.457672
 10
2441.573
 20
1541.4583750000002
 10
2443.135936
 20
1538.689088
 10
2444.562648
 20
1536.154209
 10
2445.850592
 20
1533.858136
 10
2446.997224
 20
1531.805267
 10
2448.0
 20
1530.0
 10
2448.395973
 20
1529.240743
 10
2448.803784
 20
1528.463144
 10
2449.223271
 20
1527.667461
 10
2449.654272
 20
1526.853952
 10
2450.096625
 20
1526.022875
 10
2450.550168
 20
1525.174488
 10
2451.014739
 20
1524.309049
 10
2451.490176
 20
1523.426816
 10
2451.976317
 20
1522.528047
 10
2452.473
 20
1521.613
 10
2452.980063
 20
1520.681933
 10
2453.497344
 20
1519.735104
 10
2454.024681
 20
1518.772771
 10
2454.561912
 20
1517.795192
 10
2455.108875
 20
1516.802625
 10
2455.665408
 20
1515.795328
 10
2456.231349
 20
1514.773559
 10
2456.806536
 20
1513.737576
 10
2457.390807
 20
1512.687637
 10
2457.984
 20
1511.624
 10
2458.585953
 20
1510.546923
 10
2459.196504
 20
1509.456664
 10
2459.815491
 20
1508.353481
 10
2460.442752
 20
1507.237632
 10
2461.078125
 20
1506.109375
 10
2461.721448
 20
1504.968968
 10
2462.372559
 20
1503.816669
 10
2463.031296
 20
1502.652736
 10
2463.697497
 20
1501.477427
 10
2464.371
 20
1500.291
 10
2465.051643
 20
1499.093713
 10
2465.739264
 20
1497.885824
 10
2466.433701
 20
1496.667591
 10
2467.134792
 20
1495.439272
 10
2467.842375
 20
1494.201125
 10
2468.556288
 20
1492.953408
 10
2469.276369
 20
1491.696379
 10
2470.002456
 20
1490.430296
 10
2470.734387
 20
1489.155417
 10
2471.472
 20
1487.872
 10
2472.215133
 20
1486.580303
 10
2472.963624
 20
1485.280584
 10
2473.717311
 20
1483.973101
 10
2474.476032
 20
1482.658112
 10
2475.239625
 20
1481.335875
 10
2476.007928
 20
1480.006648
 10
2476.780779
 20
1478.670689
 10
2477.558016
 20
1477.328256
 10
2478.339477
 20
1475.979607
 10
2479.125
 20
1474.625
 10
2479.914423
 20
1473.264693
 10
2480.707584
 20
1471.898944
 10
2481.504321
 20
1470.528011
 10
2482.304472
 20
1469.152152
 10
2483.107875
 20
1467.771625
 10
2483.914368
 20
1466.386688
 10
2484.723789
 20
1464.997599
 10
2485.535976
 20
1463.604616
 10
2486.350767
 20
1462.207997
 10
2487.168
 20
1460.808
 10
2487.987513
 20
1459.404883
 10
2488.809144
 20
1457.998904
 10
2489.632731
 20
1456.590321
 10
2490.458112
 20
1455.179392
 10
2491.285125
 20
1453.766375
 10
2492.113608
 20
1452.351528
 10
2492.943399
 20
1450.935109
 10
2493.774336
 20
1449.517376
 10
2494.606257
 20
1448.098587
 10
2495.439
 20
1446.679
 10
2496.272403
 20
1445.258873
 10
2497.106304
 20
1443.838464
 10
2497.940541
 20
1442.418031
 10
2498.774952
 20
1440.997832
 10
2499.609375
 20
1439.578125
 10
2500.443648
 20
1438.159168
 10
2501.277609
 20
1436.741219
 10
2502.111096
 20
1435.324536
 10
2502.943947
 20
1433.909377
 10
2503.776
 20
1432.496
 10
2504.607093
 20
1431.084663
 10
2505.437064
 20
1429.675624
 10
2506.265751
 20
1428.269141
 10
2507.092992
 20
1426.865472
 10
2507.918625
 20
1425.4648750000001
 10
2508.742488
 20
1424.067608
 10
2509.564419
 20
1422.673929
 10
2510.384256
 20
1421.284096
 10
2511.201837
 20
1419.898367
 10
2512.017
 20
1418.517
 10
2512.829583
 20
1417.140253
 10
2513.639424
 20
1415.768384
 10
2514.446361
 20
1414.401651
 10
2515.250232
 20
1413.040312
 10
2516.050875
 20
1411.684625
 10
2516.848128
 20
1410.334848
 10
2517.641829
 20
1408.991239
 10
2518.431816
 20
1407.654056
 10
2519.217927
 20
1406.323557
 10
2520.0
 20
1405.0
 10
2524.459516
 20
1397.4624
 10
2528.956928
 20
1389.8516
 10
2533.490532
 20
1382.1706
 10
2538.058624
 20
1374.4224
 10
2542.6595
 20
1366.61
 10
2547.291456
 20
1358.7364
 10
2551.952788
 20
1350.8046
 10
2556.641792
 20
1342.8176
 10
2561.356764
 20
1334.7784
 10
2566.096
 20
1326.69
 10
2570.857796
 20
1318.5554
 10
2575.640448
 20
1310.3776
 10
2580.442252
 20
1302.1596
 10
2585.261504
 20
1293.9044
 10
2590.0965
 20
1285.615
 10
2594.945536
 20
1277.2944
 10
2599.806908
 20
1268.9456
 10
2604.678912
 20
1260.5716
 10
2609.559844
 20
1252.1754
 10
2614.448
 20
1243.76
 10
2619.341676
 20
1235.3283999999999
 10
2624.239168
 20
1226.8836000000001
 10
2629.138772
 20
1218.4286
 10
2634.038784
 20
1209.9664
 10
2638.9375
 20
1201.5
 10
2643.833216
 20
1193.0324
 10
2648.724228
 20
1184.5666
 10
2653.608832
 20
1176.1055999999999
 10
2658.485324
 20
1167.6524
 10
2663.352
 20
1159.21
 10
2668.207156
 20
1150.7814
 10
2673.049088
 20
1142.3696
 10
2677.876092
 20
1133.9776
 10
2682.686464
 20
1125.6084
 10
2687.4785
 20
1117.2649999999999
 10
2692.250496
 20
1108.9504
 10
2697.000748
 20
1100.6676
 10
2701.727552
 20
1092.4196
 10
2706.429204
 20
1084.2094
 10
2711.104
 20
1076.04
 10
2715.750236
 20
1067.9144000000001
 10
2720.366208
 20
1059.8356
 10
2724.950212
 20
1051.8066
 10
2729.500544
 20
1043.8304
 10
2734.0155
 20
1035.9099999999999
 10
2738.493376
 20
1028.0484
 10
2742.932468
 20
1020.2486
 10
2747.331072
 20
1012.5136
 10
2751.687484
 20
1004.8464
 10
2756.0
 20
997.25
 10
2760.266916
 20
989.7274
 10
2764.486528
 20
982.2816
 10
2768.657132
 20
974.9156
 10
2772.777024
 20
967.6324
 10
2776.8445
 20
960.435
 10
2780.857856
 20
953.3263999999999
 10
2784.815388
 20
946.3096
 10
2788.715392
 20
939.3876
 10
2792.556164
 20
932.5634
 10
2796.3360000000002
 20
925.84
 10
2800.053196
 20
919.2203999999999
 10
2803.706048
 20
912.7076
 10
2807.292852
 20
906.3045999999999
 10
2810.811904
 20
900.0144
 10
2814.2615
 20
893.8399999999999
 10
2817.639936
 20
887.7844
 10
2820.945508
 20
881.8506
 10
2824.176512
 20
876.0416
 10
2827.331244
 20
870.3604
 10
2830.408
 20
864.8100000000001
 10
2833.405076
 20
859.3934
 10
2836.320768
 20
854.1136
 10
2839.1533719999998
 20
848.9736
 10
2841.901184
 20
843.9764
 10
2844.5625
 20
839.125
 10
2847.135616
 20
834.4224
 10
2849.618828
 20
829.8716000000001
 10
2852.010432
 20
825.4756
 10
2854.308724
 20
821.2374
 10
2856.512
 20
817.16
 10
2858.618556
 20
813.2464
 10
2860.626688
 20
809.4996
 10
2862.534692
 20
805.9226000000001
 10
2864.340864
 20
802.5184
 10
2866.0434999999998
 20
799.29
 10
2867.640896
 20
796.2404
 10
2869.131348
 20
793.3726
 10
2870.513152
 20
790.6895999999999
 10
2871.784604
 20
788.1944
 10
2872.944
 20
785.89
 10
2873.9896360000002
 20
783.7794
 10
2874.919808
 20
781.8656000000001
 10
2875.732812
 20
780.1515999999999
 10
2876.426944
 20
778.6404
 10
2877.0005
 20
777.335
 10
2877.451776
 20
776.2384
 10
2877.779068
 20
775.3536
 10
2877.980672
 20
774.6836
 10
2878.0
 20
774.0
 10
2877.230296
 20
773.881208
 10
2876.406649
 20
773.822727
 10
2875.293568
 20
773.764864
 10
2873.893375
 20
773.707625
 10
2872.208392
 20
773.651016
 10
2870.240941
 20
773.595043
 10
2867.993344
 20
773.539712
 10
2865.467923
 20
773.485029
 10
2862.667
 20
773.431
 10
2859.592897
 20
773.377631
 10
2856.247936
 20
773.324928
 10
2852.634439
 20
773.272897
 10
2848.754728
 20
773.221544
 10
2844.611125
 20
773.170875
 10
2840.205952
 20
773.120896
 10
2835.541531
 20
773.071613
 10
2830.620184
 20
773.023032
 10
2825.444233
 20
772.975159
 10
2820.016
 20
772.928
 10
2814.337807
 20
772.881561
 10
2808.411976
 20
772.835848
 10
2802.240829
 20
772.790867
 10
2795.826688
 20
772.746624
 10
2789.171875
 20
772.703125
 10
2782.278712
 20
772.660376
 10
2775.149521
 20
772.618383
 10
2767.786624
 20
772.577152
 10
2760.192343
 20
772.536689
 10
2752.369
 20
772.497
 10
2744.318917
 20
772.458091
 10
2736.044416
 20
772.419968
 10
2727.547819
 20
772.382637
 10
2718.831448
 20
772.346104
 10
2709.897625
 20
772.310375
 10
2700.748672
 20
772.275456
 10
2691.386911
 20
772.241353
 10
2681.814664
 20
772.208072
 10
2672.034253
 20
772.175619
 10
2662.048
 20
772.144
 10
2651.858227
 20
772.113221
 10
2641.467256
 20
772.083288
 10
2630.877409
 20
772.054207
 10
2620.091008
 20
772.025984
 10
2609.110375
 20
771.998625
 10
2597.937832
 20
771.972136
 10
2586.575701
 20
771.946523
 10
2575.026304
 20
771.921792
 10
2563.291963
 20
771.897949
 10
2551.375
 20
771.875
 10
2539.277737
 20
771.852951
 10
2527.002496
 20
771.831808
 10
2514.551599
 20
771.811577
 10
2501.927368
 20
771.792264
 10
2489.132125
 20
771.773875
 10
2476.168192
 20
771.756416
 10
2463.037891
 20
771.739893
 10
2449.743544
 20
771.724312
 10
2436.287473
 20
771.709679
 10
2422.672
 20
771.696
 10
2408.899447
 20
771.683281
 10
2394.972136
 20
771.671528
 10
2380.892389
 20
771.660747
 10
2366.662528
 20
771.650944
 10
2352.284875
 20
771.642125
 10
2337.761752
 20
771.634296
 10
2323.095481
 20
771.627463
 10
2308.288384
 20
771.621632
 10
2293.342783
 20
771.616809
 10
2278.261
 20
771.613
 10
2263.045357
 20
771.610211
 10
2247.698176
 20
771.608448
 10
2232.221779
 20
771.607717
 10
2216.618488
 20
771.608024
 10
2200.890625
 20
771.609375
 10
2185.040512
 20
771.611776
 10
2169.070471
 20
771.615233
 10
2152.982824
 20
771.619752
 10
2136.779893
 20
771.625339
 10
2120.464
 20
771.632
 10
2104.037467
 20
771.639741
 10
2087.5026159999998
 20
771.648568
 10
2070.861769
 20
771.658487
 10
2054.117248
 20
771.669504
 10
2037.271375
 20
771.681625
 10
2020.326472
 20
771.694856
 10
2003.284861
 20
771.709203
 10
1986.148864
 20
771.724672
 10
1968.920803
 20
771.741269
 10
1951.603
 20
771.759
 10
1934.197777
 20
771.777871
 10
1916.707456
 20
771.7978880000001
 10
1899.1343590000001
 20
771.819057
 10
1881.480808
 20
771.841384
 10
1863.7491250000003
 20
771.864875
 10
1845.941632
 20
771.889536
 10
1828.060651
 20
771.915373
 10
1810.108504
 20
771.942392
 10
1792.0875130000002
 20
771.970599
 10
1774.0
 20
772.0
 10
1763.0
 20
772.03
 10
1752.0
 20
772.06
 10
1741.0
 20
772.09
 10
1730.0
 20
772.12
 10
1719.0
 20
772.15
 10
1708.0
 20
772.18
 10
1697.0
 20
772.21
 10
1686.0
 20
772.24
 10
1675.0
 20
772.27
 10
1664.0
 20
772.3
 10
1653.0
 20
772.33
 10
1642.0
 20
772.36
 10
1631.0
 20
772.39
 10
1620.0
 20
772.42
 10
1609.0
 20
772.45
 10
1598.0
 20
772.48
 10
1587.0
 20
772.51
 10
1576.0
 20
772.54
 10
1565.0
 20
772.57
 10
1554.0
 20
772.6
 10
1543.0
 20
772.63
 10
1532.0
 20
772.66
 10
1521.0
 20
772.69
 10
1510.0
 20
772.72
 10
1499.0
 20
772.75
 10
1488.0
 20
772.78
 10
1477.0
 20
772.81
 10
1466.0
 20
772.84
 10
1455.0
 20
772.87
 10
1444.0
 20
772.9
 10
1433.0
 20
772.93
 10
1422.0
 20
772.96
 10
1411.0
 20
772.99
 10
1400.0
 20
773.02
 10
1389.0
 20
773.05
 10
1378.0
 20
773.08
 10
1367.0
 20
773.11
 10
1356.0
 20
773.14
 10
1345.0
 20
773.17
 10
1334.0
 20
773.2
 10
1323.0
 20
773.23
 10
1312.0
 20
773.26
 10
1301.0
 20
773.29
 10
1290.0
 20
773.32
 10
1279.0
 20
773.35
 10
1268.0
 20
773.38
 10
1257.0
 20
773.41
 10
1246.0
 20
773.44
 10
1235.0
 20
773.47
 10
1224.0
 20
773.5
 10
1213.0
 20
773.53
 10
1202.0
 20
773.56
 10
1191.0
 20
773.59
 10
1180.0
 20
773.62
 10
1169.0
 20
773.65
 10
1158.0
 20
773.68
 10
1147.0
 20
773.71
 10
1136.0
 20
773.74
 10
1125.0
 20
773.77
 10
1114.0
 20
773.8
 10
1103.0
 20
773.83
 10
1092.0
 20
773.86
 10
1081.0
 20
773.89
 10
1070.0
 20
773.92
 10
1059.0
 20
773.95
 10
1048.0
 20
773.98
 10
1037.0
 20
774.01
 10
1026.0
 20
774.04
 10
1015.0000000000001
 20
774.07
 10
1004.0
 20
774.1
 10
993.0
 20
774.13
 10
982.0
 20
774.16
 10
971.0
 20
774.19
 10
960.0
 20
774.22
 10
949.0
 20
774.25
 10
938.0
 20
774.28
 10
927.0
 20
774.31
 10
916.0
 20
774.34
 10
905.0
 20
774.37
 10
894.0
 20
774.4
 10
882.9999999999999
 20
774.43
 10
872.0
 20
774.46
 10
861.0
 20
774.49
 10
850.0
 20
774.52
 10
839.0
 20
774.55
 10
828.0
 20
774.58
 10
817.0
 20
774.61
 10
806.0
 20
774.64
 10
795.0
 20
774.67
 10
784.0
 20
774.7
 10
773.0
 20
774.73
 10
762.0
 20
774.76
 10
751.0
 20
774.79
 10
740.0
 20
774.82
 10
729.0
 20
774.85
 10
718.0
 20
774.88
 10
707.0
 20
774.91
 10
696.0
 20
774.94
 10
685.0
 20
774.97
 10
674.0
 20
775.0
 10
676.08
 20
778.6
 10
678.16
 20
782.2
 10
680.24
 20
785.8
 10
682.32
 20
789.4
 10
684.4
 20
793.0
 10
686.48
 20
796.6
 10
688.56
 20
800.2
 10
690.64
 20
803.8
 10
692.72
 20
807.4
 10
694.8
 20
811.0
 10
696.88
 20
814.6
 10
698.96
 20
818.2
 10
701.04
 20
821.8
 10
703.12
 20
825.4
 10
705.2
 20
829.0
 10
707.28
 20
832.6
 10
709.36
 20
836.2
 10
711.44
 20
839.8
 10
713.52
 20
843.4
 10
715.6
 20
847.0
 10
717.68
 20
850.6
 10
719.76
 20
854.2
 10
721.84
 20
857.8
 10
723.92
 20
861.4
 10
726.0
 20
865.0
 10
728.08
 20
868.6
 10
730.16
 20
872.2
 10
732.24
 20
875.8
 10
734.3199999999999
 20
879.4
 10
736.4
 20
883.0
 10
738.48
 20
886.6
 10
740.56
 20
890.2
 10
742.64
 20
893.8
 10
744.72
 20
897.4
 10
746.8
 20
901.0
 10
748.88
 20
904.6
 10
750.96
 20
908.2
 10
753.04
 20
911.8
 10
755.12
 20
915.4
 10
757.2
 20
919.0
 10
759.28
 20
922.6
 10
761.36
 20
926.2
 10
763.44
 20
929.8
 10
765.52
 20
933.4
 10
767.6
 20
937.0
 10
769.6800000000001
 20
940.6
 10
771.76
 20
944.2
 10
773.84
 20
947.8
 10
775.92
 20
951.4
 10
778.0
 20
955.0
 10
780.08
 20
958.6
 10
782.16
 20
962.2
 10
784.24
 20
965.8
 10
786.32
 20
969.4
 10
788.4
 20
973.0
 10
790.48
 20
976.6
 10
792.56
 20
980.2
 10
794.64
 20
983.8
 10
796.72
 20
987.4
 10
798.8
 20
991.0
 10
800.88
 20
994.6
 10
802.96
 20
998.2
 10
805.04
 20
1001.8
 10
807.12
 20
1005.4
 10
809.2
 20
1009.0
 10
811.28
 20
1012.6
 10
813.36
 20
1016.2
 10
815.44
 20
1019.8
 10
817.52
 20
1023.4
 10
819.6
 20
1027.0
 10
821.6800000000001
 20
1030.6
 10
823.76
 20
1034.2
 10
825.84
 20
1037.8
 10
827.92
 20
1041.4
 10
830.0
 20
1045.0
 10
832.08
 20
1048.6
 10
834.16
 20
1052.2
 10
836.24
 20
1055.8
 10
838.3199999999999
 20
1059.4
 10
840.4
 20
1063.0
 10
842.48
 20
1066.6
 10
844.56
 20
1070.2
 10
846.64
 20
1073.8
 10
848.72
 20
1077.4
 10
850.8
 20
1081.0
 10
852.88
 20
1084.6
 10
854.96
 20
1088.2
 10
857.04
 20
1091.8
 10
859.12
 20
1095.4
 10
861.2
 20
1099.0
 10
863.28
 20
1102.6
 10
865.36
 20
1106.2
 10
867.44
 20
1109.8
 10
869.52
 20
1113.4
 10
871.6
 20
1117.0
 10
873.6800000000001
 20
1120.6
 10
875.76
 20
1124.2
 10
877.84
 20
1127.8
 10
879.92
 20
1131.4
 10
882.0
 20
1135.0
 10
885.427989
 20
1140.953311
 10
888.871512
 20
1146.932488
 10
892.329903
 20
1152.936397
 10
895.802496
 20
1158.963904
 10
899.288625
 20
1165.013875
 10
902.787624
 20
1171.085176
 10
906.298827
 20
1177.176673
 10
909.821568
 20
1183.287232
 10
913.355181
 20
1189.415719
 10
916.899
 20
1195.561
 10
920.452359
 20
1201.721941
 10
924.014592
 20
1207.897408
 10
927.585033
 20
1214.086267
 10
931.163016
 20
1220.287384
 10
934.747875
 20
1226.499625
 10
938.338944
 20
1232.7218560000001
 10
941.935557
 20
1238.952943
 10
945.537048
 20
1245.191752
 10
949.142751
 20
1251.437149
 10
952.752
 20
1257.688
 10
956.364129
 20
1263.943171
 10
959.978472
 20
1270.201528
 10
963.594363
 20
1276.461937
 10
967.211136
 20
1282.723264
 10
970.828125
 20
1288.984375
 10
974.444664
 20
1295.244136
 10
978.0600870000001
 20
1301.501413
 10
981.673728
 20
1307.755072
 10
985.2849209999999
 20
1314.003979
 10
988.893
 20
1320.247
 10
992.497299
 20
1326.483001
 10
996.097152
 20
1332.710848
 10
999.691893
 20
1338.929407
 10
1003.280856
 20
1345.137544
 10
1006.863375
 20
1351.3341249999999
 10
1010.4387839999999
 20
1357.518016
 10
1014.006417
 20
1363.688083
 10
1017.565608
 20
1369.843192
 10
1021.115691
 20
1375.982209
 10
1024.656
 20
1382.104
 10
1028.185869
 20
1388.207431
 10
1031.704632
 20
1394.291368
 10
1035.211623
 20
1400.354677
 10
1038.706176
 20
1406.396224
 10
1042.187625
 20
1412.414875
 10
1045.655304
 20
1418.409496
 10
1049.108547
 20
1424.378953
 10
1052.546688
 20
1430.322112
 10
1055.969061
 20
1436.237839
 10
1059.375
 20
1442.125
 10
1062.763839
 20
1447.982461
 10
1066.134912
 20
1453.809088
 10
1069.487553
 20
1459.603747
 10
1072.821096
 20
1465.365304
 10
1076.134875
 20
1471.092625
 10
1079.428224
 20
1476.784576
 10
1082.700477
 20
1482.440023
 10
1085.9509679999999
 20
1488.057832
 10
1089.179031
 20
1493.636869
 10
1092.384
 20
1499.176
 10
1095.5652089999999
 20
1504.6740909999999
 10
1098.721992
 20
1510.130008
 10
1101.853683
 20
1515.542617
 10
1104.959616
 20
1520.910784
 10
1108.039125
 20
1526.233375
 10
1111.091544
 20
1531.509256
 10
1114.116207
 20
1536.7372930000001
 10
1117.112448
 20
1541.916352
 10
1120.079601
 20
1547.0452989999999
 10
1123.017
 20
1552.123
 10
1125.923979
 20
1557.1483210000001
 10
1128.799872
 20
1562.120128
 10
1131.644013
 20
1567.037287
 10
1134.455736
 20
1571.898664
 10
1137.234375
 20
1576.703125
 10
1139.979264
 20
1581.449536
 10
1142.6897370000002
 20
1586.136763
 10
1145.365128
 20
1590.763672
 10
1148.004771
 20
1595.329129
 10
1150.608
 20
1599.8319999999999
 10
1153.174149
 20
1604.271151
 10
1155.702552
 20
1608.645448
 10
1158.1925430000001
 20
1612.953757
 10
1160.643456
 20
1617.194944
 10
1163.054625
 20
1621.367875
 10
1165.425384
 20
1625.471416
 10
1167.755067
 20
1629.504433
 10
1170.043008
 20
1633.465792
 10
1172.288541
 20
1637.354359
 10
1174.491
 20
1641.1689999999999
 10
1176.649719
 20
1644.9085810000001
 10
1178.764032
 20
1648.5719680000002
 10
1180.833273
 20
1652.158027
 10
1182.856776
 20
1655.665624
 10
1184.833875
 20
1659.093625
 10
1186.763904
 20
1662.440896
 10
1188.646197
 20
1665.706303
 10
1190.480088
 20
1668.888712
 10
1192.264911
 20
1671.986989
 10
1194.0
 20
1675.0
 10
1195.726412
 20
1677.998348
 10
1197.485296
 20
1681.052784
 10
1199.276124
 20
1684.162396
 10
1201.098368
 20
1687.326272
 10
1202.9515
 20
1690.5435
 10
1204.834992
 20
1693.813168
 10
1206.748316
 20
1697.134364
 10
1208.690944
 20
1700.506176
 10
1210.662348
 20
1703.927692
 10
1212.662
 20
1707.398
 10
1214.689372
 20
1710.916188
 10
1216.743936
 20
1714.481344
 10
1218.825164
 20
1718.092556
 10
1220.932528
 20
1721.748912
 10
1223.0655
 20
1725.4495
 10
1225.223552
 20
1729.193408
 10
1227.406156
 20
1732.979724
 10
1229.612784
 20
1736.807536
 10
1231.842908
 20
1740.675932
 10
1234.096
 20
1744.584
 10
1236.3715320000001
 20
1748.530828
 10
1238.668976
 20
1752.515504
 10
1240.987804
 20
1756.537116
 10
1243.327488
 20
1760.594752
 10
1245.6875
 20
1764.6875
 10
1248.067312
 20
1768.814448
 10
1250.466396
 20
1772.974684
 10
1252.884224
 20
1777.167296
 10
1255.320268
 20
1781.391372
 10
1257.774
 20
1785.646
 10
1260.244892
 20
1789.930268
 10
1262.732416
 20
1794.243264
 10
1265.236044
 20
1798.584076
 10
1267.755248
 20
1802.951792
 10
1270.2895
 20
1807.3455
 10
1272.838272
 20
1811.764288
 10
1275.401036
 20
1816.207244
 10
1277.977264
 20
1820.673456
 10
1280.566428
 20
1825.162012
 10
1283.1680000000001
 20
1829.672
 10
1285.781452
 20
1834.202508
 10
1288.406256
 20
1838.752624
 10
1291.041884
 20
1843.321436
 10
1293.687808
 20
1847.908032
 10
1296.3435
 20
1852.5115
 10
1299.008432
 20
1857.130928
 10
1301.682076
 20
1861.765404
 10
1304.363904
 20
1866.414016
 10
1307.053388
 20
1871.075852
 10
1309.75
 20
1875.75
 10
1312.453212
 20
1880.435548
 10
1315.162496
 20
1885.131584
 10
1317.877324
 20
1889.837196
 10
1320.597168
 20
1894.551472
 10
1323.3215
 20
1899.2735
 10
1326.049792
 20
1904.002368
 10
1328.781516
 20
1908.737164
 10
1331.516144
 20
1913.476976
 10
1334.253148
 20
1918.220892
 10
1336.992
 20
1922.9679999999998
 10
1339.732172
 20
1927.717388
 10
1342.473136
 20
1932.468144
 10
1345.214364
 20
1937.219356
 10
1347.955328
 20
1941.970112
 10
1350.6955
 20
1946.7195
 10
1353.434352
 20
1951.466608
 10
1356.171356
 20
1956.210524
 10
1358.905984
 20
1960.9503359999999
 10
1361.637708
 20
1965.685132
 10
1364.366
 20
1970.414
 10
1367.090332
 20
1975.136028
 10
1369.810176
 20
1979.850304
 10
1372.525004
 20
1984.555916
 10
1375.234288
 20
1989.251952
 10
1377.9375
 20
1993.9375
 10
1380.634112
 20
1998.611648
 10
1383.323596
 20
2003.273484
 10
1386.005424
 20
2007.922096
 10
1388.679068
 20
2012.556572
 10
1391.344
 20
2017.176
 10
1393.999692
 20
2021.779468
 10
1396.645616
 20
2026.366064
 10
1399.281244
 20
2030.934876
 10
1401.906048
 20
2035.484992
 10
1404.5195
 20
2040.0155
 10
1407.121072
 20
2044.525488
 10
1409.710236
 20
2049.014044
 10
1412.286464
 20
2053.480256
 10
1414.849228
 20
2057.923212
 10
1417.398
 20
2062.342
 10
1419.932252
 20
2066.735708
 10
1422.451456
 20
2071.103424
 10
1424.955084
 20
2075.444236
 10
1427.442608
 20
2079.757232
 10
1429.9134999999999
 20
2084.0415
 10
1432.367232
 20
2088.296128
 10
1434.803276
 20
2092.520204
 10
1437.221104
 20
2096.712816
 10
1439.620188
 20
2100.873052
 10
1442.0
 20
2105.0
 10
1444.408017
 20
2109.153958
 10
1446.831736
 20
2113.335264
 10
1449.270659
 20
2117.543066
 10
1451.724288
 20
2121.776512
 10
1454.192125
 20
2126.03475
 10
1456.673672
 20
2130.316928
 10
1459.168431
 20
2134.622194
 10
1461.675904
 20
2138.949696
 10
1464.195593
 20
2143.298582
 10
1466.727
 20
2147.668
 10
1469.269627
 20
2152.057098
 10
1471.822976
 20
2156.465024
 10
1474.386549
 20
2160.890926
 10
1476.959848
 20
2165.333952
 10
1479.542375
 20
2169.79325
 10
1482.133632
 20
2174.267968
 10
1484.733121
 20
2178.757254
 10
1487.340344
 20
2183.260256
 10
1489.954803
 20
2187.776122
 10
1492.576
 20
2192.304
 10
1495.203437
 20
2196.843038
 10
1497.836616
 20
2201.392384
 10
1500.475039
 20
2205.9511860000002
 10
1503.118208
 20
2210.518592
 10
1505.765625
 20
2215.09375
 10
1508.416792
 20
2219.675808
 10
1511.071211
 20
2224.263914
 10
1513.728384
 20
2228.857216
 10
1516.387813
 20
2233.454862
 10
1519.049
 20
2238.056
 10
1521.711447
 20
2242.659778
 10
1524.374656
 20
2247.265344
 10
1527.038129
 20
2251.871846
 10
1529.701368
 20
2256.478432
 10
1532.363875
 20
2261.08425
 10
1535.025152
 20
2265.688448
 10
1537.684701
 20
2270.290174
 10
1540.342024
 20
2274.888576
 10
1542.996623
 20
2279.482802
 10
1545.648
 20
2284.072
 10
1548.295657
 20
2288.655318
 10
1550.939096
 20
2293.231904
 10
1553.577819
 20
2297.800906
 10
1556.211328
 20
2302.361472
 10
1558.839125
 20
2306.91275
 10
1561.460712
 20
2311.453888
 10
1564.075591
 20
2315.984034
 10
1566.683264
 20
2320.502336
 10
1569.283233
 20
2325.007942
 10
1571.875
 20
2329.5
 10
1574.458067
 20
2333.977658
 10
1577.031936
 20
2338.440064
 10
1579.596109
 20
2342.886366
 10
1582.150088
 20
2347.315712
 10
1584.693375
 20
2351.72725
 10
1587.225472
 20
2356.120128
 10
1589.745881
 20
2360.493494
 10
1592.254104
 20
2364.846496
 10
1594.749643
 20
2369.178282
 10
1597.232
 20
2373.488
 10
1599.700677
 20
2377.774798
 10
1602.155176
 20
2382.037824
 10
1604.594999
 20
2386.276226
 10
1607.019648
 20
2390.489152
 10
1609.428625
 20
2394.67575
 10
1611.821432
 20
2398.835168
 10
1614.197571
 20
2402.966554
 10
1616.556544
 20
2407.0690560000003
 10
1618.897853
 20
2411.141822
 10
1621.221
 20
2415.184
 10
1623.5254869999999
 20
2419.194738
 10
1625.810816
 20
2423.173184
 10
1628.076489
 20
2427.118486
 10
1630.322008
 20
2431.029792
 10
1632.546875
 20
2434.90625
 10
1634.750592
 20
2438.747008
 10
1636.932661
 20
2442.551214
 10
1639.092584
 20
2446.318016
 10
1641.229863
 20
2450.046562
 10
1643.344
 20
2453.736
 10
1645.434497
 20
2457.385478
 10
1647.5008559999999
 20
2460.9941440000002
 10
1649.542579
 20
2464.561146
 10
1651.559168
 20
2468.085632
 10
1653.550125
 20
2471.56675
 10
1655.514952
 20
2475.003648
 10
1657.453151
 20
2478.395474
 10
1659.364224
 20
2481.741376
 10
1661.247673
 20
2485.040502
 10
1663.103
 20
2488.292
 10
1664.929707
 20
2491.495018
 10
1666.727296
 20
2494.648704
 10
1668.495269
 20
2497.752206
 10
1670.233128
 20
2500.804672
 10
1671.9403750000001
 20
2503.80525
 10
1673.616512
 20
2506.753088
 10
1675.261041
 20
2509.6473340000002
 10
1676.873464
 20
2512.487136
 10
1678.453283
 20
2515.271642
 10
1680.0
 20
2518.0
 10
1681.557567
 20
2520.665143
 10
1683.110136
 20
2523.320344
 10
1684.657509
 20
2525.965261
 10
1686.199488
 20
2528.599552
 10
1687.735875
 20
2531.222875
 10
1689.266472
 20
2533.834888
 10
1690.791081
 20
2536.435249
 10
1692.309504
 20
2539.023616
 10
1693.821543
 20
2541.599647
 10
1695.327
 20
2544.163
 10
1696.825677
 20
2546.713333
 10
1698.317376
 20
2549.250304
 10
1699.801899
 20
2551.773571
 10
1701.279048
 20
2554.282792
 10
1702.748625
 20
2556.777625
 10
1704.210432
 20
2559.257728
 10
1705.664271
 20
2561.722759
 10
1707.109944
 20
2564.172376
 10
1708.547253
 20
2566.606237
 10
1709.976
 20
2569.024
 10
1711.395987
 20
2571.425323
 10
1712.807016
 20
2573.809864
 10
1714.208889
 20
2576.177281
 10
1715.601408
 20
2578.527232
 10
1716.984375
 20
2580.859375
 10
1718.357592
 20
2583.173368
 10
1719.720861
 20
2585.468869
 10
1721.073984
 20
2587.745536
 10
1722.416763
 20
2590.003027
 10
1723.749
 20
2592.241
 10
1725.070497
 20
2594.459113
 10
1726.381056
 20
2596.657024
 10
1727.680479
 20
2598.834391
 10
1728.968568
 20
2600.990872
 10
1730.245125
 20
2603.126125
 10
1731.5099519999999
 20
2605.239808
 10
1732.762851
 20
2607.331579
 10
1734.003624
 20
2609.401096
 10
1735.232073
 20
2611.448017
 10
1736.448
 20
2613.472
 10
1737.6512069999999
 20
2615.472703
 10
1738.841496
 20
2617.449784
 10
1740.018669
 20
2619.402901
 10
1741.182528
 20
2621.331712
 10
1742.332875
 20
2623.235875
 10
1743.4695120000001
 20
2625.115048
 10
1744.592241
 20
2626.968889
 10
1745.700864
 20
2628.797056
 10
1746.795183
 20
2630.599207
 10
1747.875
 20
2632.375
 10
1748.940117
 20
2634.124093
 10
1749.990336
 20
2635.846144
 10
1751.025459
 20
2637.540811
 10
1752.045288
 20
2639.207752
 10
1753.049625
 20
2640.846625
 10
1754.038272
 20
2642.457088
 10
1755.011031
 20
2644.038799
 10
1755.967704
 20
2645.591416
 10
1756.908093
 20
2647.114597
 10
1757.8319999999999
 20
2648.608
 10
1758.739227
 20
2650.071283
 10
1759.629576
 20
2651.504104
 10
1760.502849
 20
2652.906121
 10
1761.358848
 20
2654.276992
 10
1762.197375
 20
2655.616375
 10
1763.018232
 20
2656.923928
 10
1763.821221
 20
2658.199309
 10
1764.606144
 20
2659.442176
 10
1765.372803
 20
2660.652187
 10
1766.121
 20
2661.829
 10
1766.850537
 20
2662.972273
 10
1767.561216
 20
2664.081664
 10
1768.252839
 20
2665.156831
 10
1768.925208
 20
2666.197432
 10
1769.578125
 20
2667.203125
 10
1770.211392
 20
2668.173568
 10
1770.824811
 20
2669.108419
 10
1771.418184
 20
2670.007336
 10
1771.991313
 20
2670.869977
 10
1772.544
 20
2671.696
 10
1773.076047
 20
2672.485063
 10
1773.587256
 20
2673.236824
 10
1774.077429
 20
2673.950941
 10
1774.546368
 20
2674.627072
 10
1774.993875
 20
2675.264875
 10
1775.419752
 20
2675.864008
 10
1775.823801
 20
2676.424129
 10
1776.2058240000001
 20
2676.944896
 10
1776.565623
 20
2677.425967
 10
1776.903
 20
2677.867
 10
1777.217757
 20
2678.267653
 10
1777.778619
 20
2678.946451
 10
1778.246625
 20
2679.459625
 10
1778.620191
 20
2679.804439
 10
1779.128974
 20
2679.983543
 10
1779.622336
 20
2679.738752
 10
1780.038384
 20
2679.415288
 10
1780.522688
 20
2678.966016
 10
1781.074
 20
2678.393
 10
1781.691072
 20
2677.698304
 10
1782.023878
 20
2677.3059709999998
 10
1782.372656
 20
2676.883992
 10
1782.73725
 20
2676.432625
 10
1783.117504
 20
2675.952128
 10
1783.513262
 20
2675.442759
 10
1783.924368
 20
2674.904776
 10
1784.350666
 20
2674.338437
 10
1784.792
 20
2673.744
 10
1785.248214
 20
2673.121723
 10
1785.719152
 20
2672.471864
 10
1786.204658
 20
2671.794681
 10
1786.704576
 20
2671.090432
 10
1787.21875
 20
2670.359375
 10
1787.747024
 20
2669.601768
 10
1788.289242
 20
2668.817869
 10
1788.845248
 20
2668.007936
 10
1789.414886
 20
2667.172227
 10
1789.998
 20
2666.311
 10
1790.594434
 20
2665.424513
 10
1791.204032
 20
2664.513024
 10
1791.826638
 20
2663.576791
 10
1792.462096
 20
2662.616072
 10
1793.11025
 20
2661.631125
 10
1793.770944
 20
2660.622208
 10
1794.444022
 20
2659.589579
 10
1795.129328
 20
2658.533496
 10
1795.826706
 20
2657.454217
 10
1796.536
 20
2656.352
 10
1797.257054
 20
2655.227103
 10
1797.989712
 20
2654.079784
 10
1798.733818
 20
2652.910301
 10
1799.489216
 20
2651.718912
 10
1800.25575
 20
2650.505875
 10
1801.033264
 20
2649.271448
 10
1801.821602
 20
2648.015889
 10
1802.620608
 20
2646.739456
 10
1803.430126
 20
2645.442407
 10
1804.25
 20
2644.125
 10
1805.080074
 20
2642.787493
 10
1805.920192
 20
2641.430144
 10
1806.770198
 20
2640.053211
 10
1807.629936
 20
2638.656952
 10
1808.49925
 20
2637.241625
 10
1809.377984
 20
2635.807488
 10
1810.265982
 20
2634.354799
 10
1811.163088
 20
2632.883816
 10
1812.069146
 20
2631.394797
 10
1812.984
 20
2629.888
 10
1813.907494
 20
2628.363683
 10
1814.8394720000001
 20
2626.822104
 10
1815.779778
 20
2625.263521
 10
1816.728256
 20
2623.688192
 10
1817.68475
 20
2622.096375
 10
1818.649104
 20
2620.488328
 10
1819.621162
 20
2618.864309
 10
1820.600768
 20
2617.224576
 10
1821.587766
 20
2615.569387
 10
1822.5819999999999
 20
2613.899
 10
1823.583314
 20
2612.213673
 10
1824.591552
 20
2610.513664
 10
1825.606558
 20
2608.799231
 10
1826.628176
 20
2607.070632
 10
1827.65625
 20
2605.328125
 10
1828.690624
 20
2603.571968
 10
1829.731142
 20
2601.802419
 10
1830.777648
 20
2600.019736
 10
1831.829986
 20
2598.224177
 10
1832.888
 20
2596.416
 10
1833.951534
 20
2594.595463
 10
1835.020432
 20
2592.762824
 10
1836.094538
 20
2590.918341
 10
1837.173696
 20
2589.062272
 10
1838.25775
 20
2587.194875
 10
1839.346544
 20
2585.316408
 10
1840.439922
 20
2583.427129
 10
1841.537728
 20
2581.527296
 10
1842.639806
 20
2579.617167
 10
1843.746
 20
2577.697
 10
1844.856154
 20
2575.767053
 10
1845.970112
 20
2573.827584
 10
1847.087718
 20
2571.878851
 10
1848.208816
 20
2569.921112
 10
1849.33325
 20
2567.954625
 10
1850.460864
 20
2565.979648
 10
1851.591502
 20
2563.996439
 10
1852.725008
 20
2562.005256
 10
1853.861226
 20
2560.006357
 10
1855.0
 20
2558.0
  0
LWPOLYLINE
  5
30
330
17
100
AcDbEntity
  8
0
100
AcDbPolyline
 90
1985
 70
1
 10
1687.0
 20
2223.0
 10
1686.819144
 20
2222.193536
 10
1686.683461
 20
2221.636734
 10
1686.517952
 20
2220.978688
 10
1686.322875
 20
2220.22025
 10
1686.098488
 20
2219.362272
 10
1685.845049
 20
2218.405606
 10
1685.562816
 20
2217.351104
 10
1685.252047
 20
2216.199618
 10
1684.913
 20
2214.952
 10
1684.545933
 20
2213.609102
 10
1684.151104
 20
2212.171776
 10
1683.728771
 20
2210.640874
 10
1683.279192
 20
2209.017248
 10
1682.802625
 20
2207.30175
 10
1682.299328
 20
2205.495232
 10
1681.769559
 20
2203.598546
 10
1681.213576
 20
2201.612544
 10
1680.631637
 20
2199.538078
 10
1680.024
 20
2197.376
 10
1679.390923
 20
2195.127162
 10
1678.732664
 20
2192.792416
 10
1678.049481
 20
2190.372614
 10
1677.341632
 20
2187.868608
 10
1676.609375
 20
2185.28125
 10
1675.852968
 20
2182.611392
 10
1675.072669
 20
2179.859886
 10
1674.268736
 20
2177.027584
 10
1673.441427
 20
2174.115338
 10
1672.591
 20
2171.124
 10
1671.717713
 20
2168.054422
 10
1670.821824
 20
2164.907456
 10
1669.903591
 20
2161.683954
 10
1668.963272
 20
2158.384768
 10
1668.001125
 20
2155.01075
 10
1667.017408
 20
2151.562752
 10
1666.012379
 20
2148.041626
 10
1664.986296
 20
2144.448224
 10
1663.939417
 20
2140.783398
 10
1662.872
 20
2137.048
 10
1661.784303
 20
2133.242882
 10
1660.676584
 20
2129.368896
 10
1659.549101
 20
2125.426894
 10
1658.402112
 20
2121.417728
 10
1657.235875
 20
2117.34225
 10
1656.050648
 20
2113.201312
 10
1654.846689
 20
2108.995766
 10
1653.624256
 20
2104.726464
 10
1652.383607
 20
2100.394258
 10
1651.125
 20
2096.0
 10
1649.848693
 20
2091.544542
 10
1648.554944
 20
2087.028736
 10
1647.244011
 20
2082.453434
 10
1645.916152
 20
2077.819488
 10
1644.571625
 20
2073.12775
 10
1643.210688
 20
2068.379072
 10
1641.833599
 20
2063.574306
 10
1640.440616
 20
2058.714304
 10
1639.031997
 20
2053.799918
 10
1637.608
 20
2048.832
 10
1636.168883
 20
2043.811402
 10
1634.714904
 20
2038.738976
 10
1633.246321
 20
2033.615574
 10
1631.763392
 20
2028.4420479999999
 10
1630.266375
 20
2023.21925
 10
1628.755528
 20
2017.948032
 10
1627.231109
 20
2012.629246
 10
1625.693376
 20
2007.2637439999999
 10
1624.142587
 20
2001.852378
 10
1622.579
 20
1996.396
 10
1621.002873
 20
1990.895462
 10
1619.414464
 20
1985.351616
 10
1617.8140309999999
 20
1979.765314
 10
1616.201832
 20
1974.137408
 10
1614.578125
 20
1968.46875
 10
1612.943168
 20
1962.760192
 10
1611.297219
 20
1957.012586
 10
1609.6405359999999
 20
1951.226784
 10
1607.973377
 20
1945.403638
 10
1606.296
 20
1939.5439999999999
 10
1604.608663
 20
1933.648722
 10
1602.911624
 20
1927.718656
 10
1601.205141
 20
1921.754654
 10
1599.489472
 20
1915.757568
 10
1597.764875
 20
1909.7282500000001
 10
1596.031608
 20
1903.667552
 10
1594.289929
 20
1897.576326
 10
1592.540096
 20
1891.455424
 10
1590.782367
 20
1885.3056980000001
 10
1589.017
 20
1879.128
 10
1587.244253
 20
1872.923182
 10
1585.4643839999999
 20
1866.692096
 10
1583.677651
 20
1860.435594
 10
1581.884312
 20
1854.154528
 10
1580.084625
 20
1847.84975
 10
1578.278848
 20
1841.522112
 10
1576.467239
 20
1835.172466
 10
1574.650056
 20
1828.801664
 10
1572.827557
 20
1822.410558
 10
1571.0
 20
1816.0
 10
1569.143938
 20
1809.62094
 10
1567.295904
 20
1803.26432
 10
1565.456126
 20
1796.93098
 10
1563.624832
 20
1790.62176
 10
1561.80225
 20
1784.3375
 10
1559.988608
 20
1778.07904
 10
1558.184134
 20
1771.84722
 10
1556.389056
 20
1765.6428799999999
 10
1554.603602
 20
1759.46686
 10
1552.828
 20
1753.32
 10
1551.062478
 20
1747.20314
 10
1549.307264
 20
1741.1171199999999
 10
1547.562586
 20
1735.06278
 10
1545.828672
 20
1729.04096
 10
1544.10575
 20
1723.0525
 10
1542.394048
 20
1717.09824
 10
1540.693794
 20
1711.17902
 10
1539.005216
 20
1705.29568
 10
1537.328542
 20
1699.44906
 10
1535.664
 20
1693.64
 10
1534.011818
 20
1687.86934
 10
1532.372224
 20
1682.1379200000001
 10
1530.745446
 20
1676.44658
 10
1529.131712
 20
1670.79616
 10
1527.53125
 20
1665.1875
 10
1525.944288
 20
1659.62144
 10
1524.371054
 20
1654.09882
 10
1522.811776
 20
1648.62048
 10
1521.266682
 20
1643.1872600000002
 10
1519.736
 20
1637.8
 10
1518.219958
 20
1632.45954
 10
1516.718784
 20
1627.16672
 10
1515.232706
 20
1621.92238
 10
1513.761952
 20
1616.7273599999999
 10
1512.30675
 20
1611.5825
 10
1510.867328
 20
1606.48864
 10
1509.443914
 20
1601.44662
 10
1508.036736
 20
1596.45728
 10
1506.646022
 20
1591.52146
 10
1505.272
 20
1586.6399999999999
 10
1503.914898
 20
1581.81374
 10
1502.574944
 20
1577.04352
 10
1501.252366
 20
1572.33018
 10
1499.947392
 20
1567.67456
 10
1498.66025
 20
1563.0775
 10
1497.391168
 20
1558.53984
 10
1496.140374
 20
1554.06242
 10
1494.9080960000001
 20
1549.64608
 10
1493.694562
 20
1545.2916599999999
 10
1492.5
 20
1541.0
 10
1491.324638
 20
1536.77194
 10
1490.168704
 20
1532.60832
 10
1489.032426
 20
1528.50998
 10
1487.916032
 20
1524.47776
 10
1486.8197499999999
 20
1520.5125
 10
1485.743808
 20
1516.61504
 10
1484.688434
 20
1512.78622
 10
1483.653856
 20
1509.02688
 10
1482.640302
 20
1505.33786
 10
1481.648
 20
1501.72
 10
1480.677178
 20
1498.17414
 10
1479.728064
 20
1494.7011200000002
 10
1478.800886
 20
1491.30178
 10
1477.895872
 20
1487.97696
 10
1477.01325
 20
1484.7275
 10
1476.153248
 20
1481.55424
 10
1475.316094
 20
1478.45802
 10
1474.502016
 20
1475.43968
 10
1473.711242
 20
1472.50006
 10
1472.944
 20
1469.6399999999999
 10
1472.200518
 20
1466.86034
 10
1471.481024
 20
1464.16192
 10
1470.785746
 20
1461.54558
 10
1470.114912
 20
1459.01216
 10
1469.46875
 20
1456.5625
 10
1468.8474879999999
 20
1454.19744
 10
1468.251354
 20
1451.9178200000001
 10
1467.680576
 20
1449.7244799999999
 10
1467.135382
 20
1447.61826
 10
1466.616
 20
1445.6
 10
1466.122658
 20
1443.67054
 10
1465.655584
 20
1441.83072
 10
1465.215006
 20
1440.08138
 10
1464.801152
 20
1438.42336
 10
1464.41425
 20
1436.8575
 10
1464.0545280000001
 20
1435.38464
 10
1463.722214
 20
1434.00562
 10
1463.417536
 20
1432.72128
 10
1463.140722
 20
1431.53246
 10
1462.892
 20
1430.44
 10
1462.671598
 20
1429.44474
 10
1462.479744
 20
1428.54752
 10
1462.316666
 20
1427.74918
 10
1462.182592
 20
1427.0505600000001
 10
1462.07775
 20
1426.4524999999999
 10
1462.002368
 20
1425.95584
 10
1461.940896
 20
1425.27008
 10
1462.383553
 20
1424.935209
 10
1463.167624
 20
1425.097272
 10
1463.907968
 20
1425.328704
 10
1464.819
 20
1425.657
 10
1465.337609
 20
1425.856977
 10
1465.897792
 20
1426.080576
 10
1466.499183
 20
1426.327599
 10
1467.141416
 20
1426.597848
 10
1467.824125
 20
1426.891125
 10
1468.546944
 20
1427.207232
 10
1469.309507
 20
1427.545971
 10
1470.111448
 20
1427.907144
 10
1470.952401
 20
1428.290553
 10
1471.832
 20
1428.696
 10
1472.749879
 20
1429.123287
 10
1473.705672
 20
1429.572216
 10
1474.699013
 20
1430.042589
 10
1475.729536
 20
1430.534208
 10
1476.796875
 20
1431.046875
 10
1477.900664
 20
1431.580392
 10
1479.040537
 20
1432.134561
 10
1480.216128
 20
1432.709184
 10
1481.427071
 20
1433.304063
 10
1482.673
 20
1433.919
 10
1483.953549
 20
1434.553797
 10
1485.268352
 20
1435.208256
 10
1486.617043
 20
1435.882179
 10
1487.999256
 20
1436.575368
 10
1489.414625
 20
1437.287625
 10
1490.862784
 20
1438.018752
 10
1492.343367
 20
1438.768551
 10
1493.856008
 20
1439.536824
 10
1495.400341
 20
1440.323373
 10
1496.976
 20
1441.128
 10
1498.582619
 20
1441.950507
 10
1500.219832
 20
1442.790696
 10
1501.887273
 20
1443.648369
 10
1503.584576
 20
1444.523328
 10
1505.311375
 20
1445.415375
 10
1507.067304
 20
1446.324312
 10
1508.851997
 20
1447.249941
 10
1510.665088
 20
1448.192064
 10
1512.506211
 20
1449.150483
 10
1514.375
 20
1450.125
 10
1516.271089
 20
1451.115417
 10
1518.194112
 20
1452.121536
 10
1520.143703
 20
1453.143159
 10
1522.119496
 20
1454.180088
 10
1524.1211250000001
 20
1455.232125
 10
1526.148224
 20
1456.299072
 10
1528.200427
 20
1457.380731
 10
1530.277368
 20
1458.476904
 10
1532.378681
 20
1459.587393
 10
1534.504
 20
1460.712
 10
1536.652959
 20
1461.850527
 10
1538.825192
 20
1463.002776
 10
1541.020333
 20
1464.168549
 10
1543.238016
 20
1465.347648
 10
1545.477875
 20
1466.539875
 10
1547.739544
 20
1467.745032
 10
1550.022657
 20
1468.962921
 10
1552.326848
 20
1470.193344
 10
1554.6517509999999
 20
1471.436103
 10
1556.997
 20
1472.691
 10
1559.362229
 20
1473.957837
 10
1561.747072
 20
1475.236416
 10
1564.151163
 20
1476.526539
 10
1566.574136
 20
1477.828008
 10
1569.015625
 20
1479.140625
 10
1571.475264
 20
1480.464192
 10
1573.952687
 20
1481.798511
 10
1576.447528
 20
1483.143384
 10
1578.959421
 20
1484.498613
 10
1581.488
 20
1485.864
 10
1584.032899
 20
1487.239347
 10
1586.593752
 20
1488.624456
 10
1589.170193
 20
1490.019129
 10
1591.761856
 20
1491.423168
 10
1594.368375
 20
1492.836375
 10
1596.989384
 20
1494.258552
 10
1599.624517
 20
1495.689501
 10
1602.273408
 20
1497.129024
 10
1604.935691
 20
1498.576923
 10
1607.6109999999999
 20
1500.033
 10
1610.298969
 20
1501.497057
 10
1612.9992320000001
 20
1502.968896
 10
1615.711423
 20
1504.448319
 10
1618.435176
 20
1505.935128
 10
1621.170125
 20
1507.429125
 10
1623.915904
 20
1508.930112
 10
1626.672147
 20
1510.437891
 10
1629.438488
 20
1511.952264
 10
1632.214561
 20
1513.473033
 10
1635.0
 20
1515.0
 10
1637.785141
 20
1516.556668
 10
1640.560328
 20
1518.106544
 10
1643.325207
 20
1519.649436
 10
1646.079424
 20
1521.185152
 10
1648.822625
 20
1522.7135
 10
1651.554456
 20
1524.234288
 10
1654.274563
 20
1525.747324
 10
1656.982592
 20
1527.252416
 10
1659.678189
 20
1528.749372
 10
1662.361
 20
1530.238
 10
1665.030671
 20
1531.718108
 10
1667.686848
 20
1533.189504
 10
1670.329177
 20
1534.651996
 10
1672.957304
 20
1536.105392
 10
1675.570875
 20
1537.5495
 10
1678.169536
 20
1538.984128
 10
1680.752933
 20
1540.409084
 10
1683.320712
 20
1541.824176
 10
1685.872519
 20
1543.229212
 10
1688.408
 20
1544.624
 10
1690.926801
 20
1546.008348
 10
1693.428568
 20
1547.382064
 10
1695.912947
 20
1548.744956
 10
1698.379584
 20
1550.096832
 10
1700.828125
 20
1551.4375
 10
1703.258216
 20
1552.766768
 10
1705.669503
 20
1554.084444
 10
1708.061632
 20
1555.390336
 10
1710.434249
 20
1556.684252
 10
1712.787
 20
1557.966
 10
1715.119531
 20
1559.235388
 10
1717.431488
 20
1560.492224
 10
1719.722517
 20
1561.736316
 10
1721.992264
 20
1562.967472
 10
1724.240375
 20
1564.1855
 10
1726.466496
 20
1565.390208
 10
1728.670273
 20
1566.581404
 10
1730.851352
 20
1567.758896
 10
1733.009379
 20
1568.922492
 10
1735.144
 20
1570.0720000000001
 10
1737.254861
 20
1571.207228
 10
1739.341608
 20
1572.327984
 10
1741.403887
 20
1573.434076
 10
1743.441344
 20
1574.525312
 10
1745.453625
 20
1575.6015
 10
1747.440376
 20
1576.662448
 10
1749.401243
 20
1577.707964
 10
1751.335872
 20
1578.737856
 10
1753.243909
 20
1579.751932
 10
1755.125
 20
1580.75
 10
1756.978791
 20
1581.731868
 10
1758.804928
 20
1582.697344
 10
1760.603057
 20
1583.646236
 10
1762.372824
 20
1584.578352
 10
1764.113875
 20
1585.4935
 10
1765.825856
 20
1586.391488
 10
1767.508413
 20
1587.272124
 10
1769.161192
 20
1588.135216
 10
1770.783839
 20
1588.980572
 10
1772.376
 20
1589.808
 10
1773.9373209999999
 20
1590.617308
 10
1775.467448
 20
1591.408304
 10
1776.966027
 20
1592.180796
 10
1778.432704
 20
1592.934592
 10
1779.867125
 20
1593.6695
 10
1781.268936
 20
1594.385328
 10
1782.6377830000001
 20
1595.081884
 10
1783.973312
 20
1595.758976
 10
1785.275169
 20
1596.416412
 10
1786.5430000000001
 20
1597.054
 10
1787.776451
 20
1597.671548
 10
1788.975168
 20
1598.268864
 10
1790.138797
 20
1598.845756
 10
1791.266984
 20
1599.402032
 10
1792.359375
 20
1599.9375
 10
1793.415616
 20
1600.451968
 10
1794.435353
 20
1600.945244
 10
1795.418232
 20
1601.417136
 10
1796.363899
 20
1601.867452
 10
1797.272
 20
1602.296
 10
1798.142181
 20
1602.702588
 10
1798.974088
 20
1603.087024
 10
1799.767367
 20
1603.449116
 10
1800.5216639999999
 20
1603.788672
 10
1801.236625
 20
1604.1055
 10
1801.911896
 20
1604.399408
 10
1802.547123
 20
1604.670204
 10
1803.141952
 20
1604.917696
 10
1803.696029
 20
1605.141692
 10
1804.209
 20
1605.342
 10
1804.680511
 20
1605.518428
 10
1805.497737
 20
1605.798876
 10
1806.144875
 20
1605.9815
 10
1806.790472
 20
1606.068656
 10
1807.134451
 20
1605.620695
 10
1807.174125
 20
1605.050625
 10
1807.174559
 20
1604.231555
 10
1807.160256
 20
1603.72992
 10
1807.136377
 20
1603.167565
 10
1807.103
 20
1602.545
 10
1807.060203
 20
1601.862735
 10
1807.008064
 20
1601.12128
 10
1806.946661
 20
1600.321145
 10
1806.876072
 20
1599.46284
 10
1806.796375
 20
1598.546875
 10
1806.707648
 20
1597.57376
 10
1806.609969
 20
1596.544005
 10
1806.503416
 20
1595.45812
 10
1806.388067
 20
1594.316615
 10
1806.264
 20
1593.12
 10
1806.131293
 20
1591.868785
 10
1805.990024
 20
1590.56348
 10
1805.840271
 20
1589.204595
 10
1805.682112
 20
1587.79264
 10
1805.515625
 20
1586.328125
 10
1805.340888
 20
1584.81156
 10
1805.157979
 20
1583.243455
 10
1804.966976
 20
1581.62432
 10
1804.767957
 20
1579.954665
 10
1804.561
 20
1578.235
 10
1804.346183
 20
1576.465835
 10
1804.123584
 20
1574.64768
 10
1803.893281
 20
1572.781045
 10
1803.655352
 20
1570.86644
 10
1803.409875
 20
1568.904375
 10
1803.156928
 20
1566.89536
 10
1802.896589
 20
1564.839905
 10
1802.628936
 20
1562.73852
 10
1802.354047
 20
1560.591715
 10
1802.072
 20
1558.4
 10
1801.782873
 20
1556.163885
 10
1801.486744
 20
1553.88388
 10
1801.183691
 20
1551.560495
 10
1800.873792
 20
1549.19424
 10
1800.557125
 20
1546.785625
 10
1800.233768
 20
1544.33516
 10
1799.903799
 20
1541.843355
 10
1799.567296
 20
1539.31072
 10
1799.224337
 20
1536.737765
 10
1798.875
 20
1534.125
 10
1798.519363
 20
1531.472935
 10
1798.157504
 20
1528.78208
 10
1797.789501
 20
1526.052945
 10
1797.415432
 20
1523.28604
 10
1797.035375
 20
1520.481875
 10
1796.649408
 20
1517.64096
 10
1796.257609
 20
1514.763805
 10
1795.860056
 20
1511.85092
 10
1795.456827
 20
1508.902815
 10
1795.048
 20
1505.92
 10
1794.633653
 20
1502.902985
 10
1794.213864
 20
1499.85228
 10
1793.788711
 20
1496.768395
 10
1793.358272
 20
1493.65184
 10
1792.922625
 20
1490.503125
 10
1792.481848
 20
1487.32276
 10
1792.036019
 20
1484.111255
 10
1791.585216
 20
1480.86912
 10
1791.129517
 20
1477.596865
 10
1790.669
 20
1474.295
 10
1790.203743
 20
1470.964035
 10
1789.733824
 20
1467.60448
 10
1789.259321
 20
1464.216845
 10
1788.780312
 20
1460.80164
 10
1788.296875
 20
1457.359375
 10
1787.809088
 20
1453.89056
 10
1787.317029
 20
1450.395705
 10
1786.820776
 20
1446.87532
 10
1786.320407
 20
1443.329915
 10
1785.816
 20
1439.76
 10
1785.307633
 20
1436.166085
 10
1784.795384
 20
1432.5486799999999
 10
1784.279331
 20
1428.908295
 10
1783.759552
 20
1425.24544
 10
1783.236125
 20
1421.560625
 10
1782.709128
 20
1417.85436
 10
1782.178639
 20
1414.127155
 10
1781.644736
 20
1410.37952
 10
1781.107497
 20
1406.611965
 10
1780.567
 20
1402.825
 10
1780.023323
 20
1399.019135
 10
1779.476544
 20
1395.19488
 10
1778.926741
 20
1391.352745
 10
1778.373992
 20
1387.49324
 10
1777.818375
 20
1383.616875
 10
1777.259968
 20
1379.72416
 10
1776.698849
 20
1375.815605
 10
1776.135096
 20
1371.89172
 10
1775.568787
 20
1367.953015
 10
1775.0
 20
1364.0
 10
1774.430913
 20
1360.073394
 10
1773.863704
 20
1356.153952
 10
1773.2984510000001
 20
1352.242238
 10
1772.735232
 20
1348.338816
 10
1772.174125
 20
1344.44425
 10
1771.615208
 20
1340.559104
 10
1771.058559
 20
1336.683942
 10
1770.504256
 20
1332.819328
 10
1769.952377
 20
1328.965826
 10
1769.403
 20
1325.124
 10
1768.856203
 20
1321.294414
 10
1768.312064
 20
1317.477632
 10
1767.770661
 20
1313.674218
 10
1767.232072
 20
1309.884736
 10
1766.696375
 20
1306.10975
 10
1766.163648
 20
1302.349824
 10
1765.633969
 20
1298.605522
 10
1765.107416
 20
1294.877408
 10
1764.584067
 20
1291.166046
 10
1764.064
 20
1287.472
 10
1763.547293
 20
1283.795834
 10
1763.034024
 20
1280.138112
 10
1762.524271
 20
1276.499398
 10
1762.018112
 20
1272.880256
 10
1761.515625
 20
1269.28125
 10
1761.016888
 20
1265.702944
 10
1760.521979
 20
1262.145902
 10
1760.030976
 20
1258.610688
 10
1759.543957
 20
1255.097866
 10
1759.061
 20
1251.608
 10
1758.582183
 20
1248.141654
 10
1758.107584
 20
1244.699392
 10
1757.637281
 20
1241.281778
 10
1757.171352
 20
1237.889376
 10
1756.709875
 20
1234.52275
 10
1756.252928
 20
1231.182464
 10
1755.800589
 20
1227.869082
 10
1755.352936
 20
1224.5831680000001
 10
1754.910047
 20
1221.325286
 10
1754.472
 20
1218.096
 10
1754.038873
 20
1214.895874
 10
1753.610744
 20
1211.725472
 10
1753.187691
 20
1208.585358
 10
1752.769792
 20
1205.4760959999999
 10
1752.357125
 20
1202.39825
 10
1751.949768
 20
1199.352384
 10
1751.547799
 20
1196.339062
 10
1751.151296
 20
1193.358848
 10
1750.760337
 20
1190.412306
 10
1750.375
 20
1187.5
 10
1749.995363
 20
1184.622494
 10
1749.621504
 20
1181.780352
 10
1749.253501
 20
1178.974138
 10
1748.891432
 20
1176.204416
 10
1748.535375
 20
1173.47175
 10
1748.185408
 20
1170.7767039999999
 10
1747.841609
 20
1168.119842
 10
1747.504056
 20
1165.501728
 10
1747.172827
 20
1162.922926
 10
1746.848
 20
1160.384
 10
1746.529653
 20
1157.885514
 10
1746.217864
 20
1155.428032
 10
1745.912711
 20
1153.012118
 10
1745.614272
 20
1150.638336
 10
1745.322625
 20
1148.30725
 10
1745.037848
 20
1146.019424
 10
1744.760019
 20
1143.775422
 10
1744.489216
 20
1141.575808
 10
1744.225517
 20
1139.421146
 10
1743.969
 20
1137.312
 10
1743.719743
 20
1135.248934
 10
1743.477824
 20
1133.232512
 10
1743.243321
 20
1131.263298
 10
1743.016312
 20
1129.341856
 10
1742.796875
 20
1127.46875
 10
1742.585088
 20
1125.644544
 10
1742.381029
 20
1123.869802
 10
1742.184776
 20
1122.145088
 10
1741.996407
 20
1120.470966
 10
1741.816
 20
1118.848
 10
1741.643633
 20
1117.276754
 10
1741.479384
 20
1115.757792
 10
1741.323331
 20
1114.291678
 10
1741.175552
 20
1112.878976
 10
1741.036125
 20
1111.52025
 10
1740.905128
 20
1110.216064
 10
1740.782639
 20
1108.966982
 10
1740.668736
 20
1107.773568
 10
1740.563497
 20
1106.6363860000001
 10
1740.467
 20
1105.556
 10
1740.3793229999999
 20
1104.532974
 10
1740.300544
 20
1103.567872
 10
1740.230741
 20
1102.661258
 10
1740.169992
 20
1101.813696
 10
1740.118375
 20
1101.02575
 10
1740.075968
 20
1100.297984
 10
1740.042849
 20
1099.630962
 10
1740.019096
 20
1099.025248
 10
1740.004787
 20
1098.4814059999999
 10
1739.995206
 20
1096.8429
 10
1739.980848
 20
1095.7116
 10
1739.956962
 20
1094.6061
 10
1739.923584
 20
1093.5264
 10
1739.88075
 20
1092.4725
 10
1739.828496
 20
1091.4444
 10
1739.766858
 20
1090.4421
 10
1739.695872
 20
1089.4656
 10
1739.615574
 20
1088.5149
 10
1739.526
 20
1087.59
 10
1739.427186
 20
1086.6909
 10
1739.319168
 20
1085.8176
 10
1739.201982
 20
1084.9701
 10
1739.075664
 20
1084.1484
 10
1738.94025
 20
1083.3525
 10
1738.795776
 20
1082.5824
 10
1738.642278
 20
1081.8381
 10
1738.479792
 20
1081.1196
 10
1738.308354
 20
1080.4269
 10
1738.128
 20
1079.76
 10
1737.938766
 20
1079.1189
 10
1737.740688
 20
1078.5036
 10
1737.533802
 20
1077.9141
 10
1737.318144
 20
1077.3504
 10
1737.09375
 20
1076.8125
 10
1736.860656
 20
1076.3004
 10
1736.618898
 20
1075.8141
 10
1736.368512
 20
1075.3536
 10
1736.109534
 20
1074.9189
 10
1735.565946
 20
1074.1269
 10
1734.988422
 20
1073.4381
 10
1734.37725
 20
1072.8525
 10
1733.732718
 20
1072.3701
 10
1733.055114
 20
1071.9909
 10
1732.344726
 20
1071.7149
 10
1731.601842
 20
1071.5421
 10
1730.82675
 20
1071.4725
 10
1730.019738
 20
1071.5061
 10
1729.181094
 20
1071.6429
 10
1728.311106
 20
1071.8829
 10
1727.410062
 20
1072.2261
 10
1726.947984
 20
1072.4364
 10
1726.47825
 20
1072.6725
 10
1726.000896
 20
1072.9344
 10
1725.515958
 20
1073.2221
 10
1725.023472
 20
1073.5356
 10
1724.523474
 20
1073.8749
 10
1724.016
 20
1074.24
 10
1723.501086
 20
1074.6309
 10
1722.978768
 20
1075.0476
 10
1722.449082
 20
1075.4901
 10
1721.912064
 20
1075.9584
 10
1721.36775
 20
1076.4525
 10
1720.816176
 20
1076.9724
 10
1720.257378
 20
1077.5181
 10
1719.691392
 20
1078.0896
 10
1719.118254
 20
1078.6869
 10
1718.538
 20
1079.31
 10
1717.950666
 20
1079.9589
 10
1717.356288
 20
1080.6336
 10
1716.754902
 20
1081.3341
 10
1716.146544
 20
1082.0604
 10
1715.53125
 20
1082.8125
 10
1714.909056
 20
1083.5904
 10
1714.279998
 20
1084.3941
 10
1713.644112
 20
1085.2236
 10
1713.001434
 20
1086.0789
 10
1712.352
 20
1086.96
 10
1711.695846
 20
1087.8669
 10
1711.033008
 20
1088.7996
 10
1710.363522
 20
1089.7581
 10
1709.687424
 20
1090.7424
 10
1709.00475
 20
1091.7525
 10
1708.315536
 20
1092.7884
 10
1707.619818
 20
1093.8501
 10
1706.917632
 20
1094.9376
 10
1706.209014
 20
1096.0509
 10
1705.494
 20
1097.19
 10
1704.772626
 20
1098.3549
 10
1704.044928
 20
1099.5456
 10
1703.310942
 20
1100.7621
 10
1702.570704
 20
1102.0044
 10
1701.8242500000001
 20
1103.2725
 10
1701.071616
 20
1104.5664
 10
1700.312838
 20
1105.8861
 10
1699.547952
 20
1107.2316
 10
1698.776994
 20
1108.6029
 10
1698.0
 20
1110.0
 10
1697.25212
 20
1111.30949
 10
1696.50856
 20
1112.59792
 10
1695.76944
 20
1113.86523
 10
1695.03488
 20
1115.11136
 10
1694.305
 20
1116.33625
 10
1693.57992
 20
1117.53984
 10
1692.85976
 20
1118.72207
 10
1692.14464
 20
1119.8828800000001
 10
1691.43468
 20
1121.02221
 10
1690.73
 20
1122.14
 10
1690.03072
 20
1123.23619
 10
1689.33696
 20
1124.31072
 10
1688.64884
 20
1125.36353
 10
1687.96648
 20
1126.39456
 10
1687.29
 20
1127.40375
 10
1686.61952
 20
1128.39104
 10
1685.95516
 20
1129.35637
 10
1685.29704
 20
1130.29968
 10
1684.64528
 20
1131.22091
 10
1684.0
 20
1132.12
 10
1683.36132
 20
1132.99689
 10
1682.72936
 20
1133.85152
 10
1682.10424
 20
1134.68383
 10
1681.48608
 20
1135.49376
 10
1680.875
 20
1136.28125
 10
1680.27112
 20
1137.04624
 10
1679.67456
 20
1137.78867
 10
1679.08544
 20
1138.50848
 10
1678.50388
 20
1139.20561
 10
1677.93
 20
1139.88
 10
1677.36392
 20
1140.53159
 10
1676.80576
 20
1141.16032
 10
1676.25564
 20
1141.76613
 10
1675.71368
 20
1142.34896
 10
1675.18
 20
1142.90875
 10
1674.65472
 20
1143.44544
 10
1674.13796
 20
1143.95897
 10
1673.62984
 20
1144.44928
 10
1673.13048
 20
1144.91631
 10
1672.64
 20
1145.36
 10
1672.15852
 20
1145.78029
 10
1671.68616
 20
1146.17712
 10
1671.22304
 20
1146.55043
 10
1670.76928
 20
1146.90016
 10
1670.325
 20
1147.22625
 10
1669.89032
 20
1147.52864
 10
1669.46536
 20
1147.80727
 10
1668.64508
 20
1148.29301
 10
1667.86512
 20
1148.68299
 10
1667.12644
 20
1148.97673
 10
1666.43
 20
1149.17375
 10
1665.77676
 20
1149.27357
 10
1665.16768
 20
1149.27571
 10
1664.60372
 20
1149.17969
 10
1664.08584
 20
1148.98503
 10
1663.615
 20
1148.69125
 10
1663.19216
 20
1148.29787
 10
1662.81828
 20
1147.80441
 10
1662.49432
 20
1147.21039
 10
1662.22124
 20
1146.51533
 10
1662.0
 20
1145.71875
 10
1661.83156
 20
1144.82017
 10
1661.71688
 20
1143.81911
 10
1661.68
 20
1143.28
 10
1661.65692
 20
1142.71509
 10
1661.64776
 20
1142.12432
 10
1661.65264
 20
1141.50763
 10
1661.67168
 20
1140.86496
 10
1661.705
 20
1140.19625
 10
1661.75272
 20
1139.50144
 10
1661.81496
 20
1138.78047
 10
1661.89184
 20
1138.03328
 10
1661.98348
 20
1137.25981
 10
1662.09
 20
1136.46
 10
1662.21152
 20
1135.63379
 10
1662.34816
 20
1134.78112
 10
1662.50004
 20
1133.90193
 10
1662.66728
 20
1132.99616
 10
1662.85
 20
1132.06375
 10
1663.04832
 20
1131.10464
 10
1663.26236
 20
1130.11877
 10
1663.49224
 20
1129.10608
 10
1663.73808
 20
1128.06651
 10
1664.0
 20
1127.0
 10
1664.190728
 20
1126.15084
 10
1664.402624
 20
1125.16512
 10
1664.516375
 20
1124.621875
 10
1664.635256
 20
1124.04548
 10
1664.759213
 20
1123.436265
 10
1664.888192
 20
1122.79456
 10
1665.022139
 20
1122.120695
 10
1665.161
 20
1121.415
 10
1665.304721
 20
1120.677805
 10
1665.453248
 20
1119.90944
 10
1665.606527
 20
1119.110235
 10
1665.764504
 20
1118.28052
 10
1665.927125
 20
1117.420625
 10
1666.094336
 20
1116.53088
 10
1666.266083
 20
1115.611615
 10
1666.442312
 20
1114.66316
 10
1666.622969
 20
1113.685845
 10
1666.808
 20
1112.68
 10
1666.997351
 20
1111.645955
 10
1667.190968
 20
1110.58404
 10
1667.388797
 20
1109.494585
 10
1667.590784
 20
1108.37792
 10
1667.796875
 20
1107.234375
 10
1668.007016
 20
1106.06428
 10
1668.221153
 20
1104.867965
 10
1668.439232
 20
1103.6457599999999
 10
1668.661199
 20
1102.397995
 10
1668.887
 20
1101.125
 10
1669.116581
 20
1099.827105
 10
1669.349888
 20
1098.50464
 10
1669.586867
 20
1097.157935
 10
1669.827464
 20
1095.78732
 10
1670.071625
 20
1094.393125
 10
1670.319296
 20
1092.97568
 10
1670.570423
 20
1091.535315
 10
1670.824952
 20
1090.0723600000001
 10
1671.082829
 20
1088.587145
 10
1671.344
 20
1087.08
 10
1671.608411
 20
1085.551255
 10
1671.876008
 20
1084.00124
 10
1672.146737
 20
1082.430285
 10
1672.420544
 20
1080.83872
 10
1672.697375
 20
1079.226875
 10
1672.977176
 20
1077.59508
 10
1673.259893
 20
1075.943665
 10
1673.545472
 20
1074.27296
 10
1673.833859
 20
1072.583295
 10
1674.125
 20
1070.875
 10
1674.418841
 20
1069.148405
 10
1674.715328
 20
1067.40384
 10
1675.014407
 20
1065.641635
 10
1675.316024
 20
1063.86212
 10
1675.620125
 20
1062.065625
 10
1675.926656
 20
1060.25248
 10
1676.235563
 20
1058.423015
 10
1676.546792
 20
1056.57756
 10
1676.860289
 20
1054.716445
 10
1677.176
 20
1052.84
 10
1677.493871
 20
1050.948555
 10
1677.813848
 20
1049.04244
 10
1678.135877
 20
1047.121985
 10
1678.459904
 20
1045.18752
 10
1678.785875
 20
1043.239375
 10
1679.113736
 20
1041.27788
 10
1679.443433
 20
1039.303365
 10
1679.774912
 20
1037.31616
 10
1680.108119
 20
1035.316595
 10
1680.443
 20
1033.305
 10
1680.779501
 20
1031.281705
 10
1681.117568
 20
1029.24704
 10
1681.457147
 20
1027.201335
 10
1681.798184
 20
1025.14492
 10
1682.140625
 20
1023.078125
 10
1682.484416
 20
1021.00128
 10
1682.829503
 20
1018.914715
 10
1683.175832
 20
1016.81876
 10
1683.523349
 20
1014.713745
 10
1683.872
 20
1012.6
 10
1684.221731
 20
1010.477855
 10
1684.572488
 20
1008.3476400000001
 10
1684.924217
 20
1006.209685
 10
1685.276864
 20
1004.06432
 10
1685.630375
 20
1001.911875
 10
1685.984696
 20
999.75268
 10
1686.339773
 20
997.587065
 10
1686.695552
 20
995.41536
 10
1687.051979
 20
993.237895
 10
1687.409
 20
991.055
 10
1687.766561
 20
988.8670050000001
 10
1688.124608
 20
986.6742399999999
 10
1688.483087
 20
984.477035
 10
1688.841944
 20
982.27572
 10
1689.201125
 20
980.0706250000001
 10
1689.560576
 20
977.86208
 10
1689.920243
 20
975.650415
 10
1690.280072
 20
973.43596
 10
1690.640009
 20
971.219045
 10
1691.0
 20
969.0
 10
1691.330588
 20
966.783348
 10
1691.662304
 20
964.573584
 10
1691.995076
 20
962.370996
 10
1692.328832
 20
960.175872
 10
1692.6635
 20
957.9885
 10
1692.999008
 20
955.809168
 10
1693.335284
 20
953.638164
 10
1693.672256
 20
951.475776
 10
1694.009852
 20
949.322292
 10
1694.348
 20
947.178
 10
1694.686628
 20
945.043188
 10
1695.025664
 20
942.918144
 10
1695.365036
 20
940.803156
 10
1695.704672
 20
938.698512
 10
1696.0445
 20
936.6045
 10
1696.384448
 20
934.521408
 10
1696.724444
 20
932.449524
 10
1697.064416
 20
930.389136
 10
1697.404292
 20
928.340532
 10
1697.744
 20
926.304
 10
1698.083468
 20
924.279828
 10
1698.422624
 20
922.268304
 10
1698.761396
 20
920.269716
 10
1699.099712
 20
918.284352
 10
1699.4375
 20
916.3125
 10
1699.774688
 20
914.354448
 10
1700.111204
 20
912.410484
 10
1700.446976
 20
910.480896
 10
1700.781932
 20
908.565972
 10
1701.116
 20
906.666
 10
1701.449108
 20
904.781268
 10
1701.781184
 20
902.912064
 10
1702.112156
 20
901.058676
 10
1702.441952
 20
899.221392
 10
1702.7705
 20
897.4005
 10
1703.097728
 20
895.596288
 10
1703.423564
 20
893.809044
 10
1703.747936
 20
892.039056
 10
1704.070772
 20
890.286612
 10
1704.392
 20
888.552
 10
1704.711548
 20
886.835508
 10
1705.029344
 20
885.137424
 10
1705.345316
 20
883.458036
 10
1705.659392
 20
881.797632
 10
1705.9715
 20
880.1565
 10
1706.281568
 20
878.534928
 10
1706.589524
 20
876.933204
 10
1706.895296
 20
875.351616
 10
1707.198812
 20
873.790452
 10
1707.5
 20
872.25
 10
1707.798788
 20
870.730548
 10
1708.095104
 20
869.232384
 10
1708.388876
 20
867.755796
 10
1708.680032
 20
866.301072
 10
1708.9685
 20
864.8685
 10
1709.254208
 20
863.458368
 10
1709.537084
 20
862.070964
 10
1709.817056
 20
860.706576
 10
1710.094052
 20
859.365492
 10
1710.368
 20
858.048
 10
1710.638828
 20
856.7543880000001
 10
1710.906464
 20
855.484944
 10
1711.170836
 20
854.239956
 10
1711.431872
 20
853.019712
 10
1711.6895
 20
851.8245000000001
 10
1711.943648
 20
850.654608
 10
1712.194244
 20
849.510324
 10
1712.441216
 20
848.391936
 10
1712.684492
 20
847.299732
 10
1712.924
 20
846.234
 10
1713.159668
 20
845.195028
 10
1713.391424
 20
844.183104
 10
1713.619196
 20
843.198516
 10
1713.842912
 20
842.241552
 10
1714.0625
 20
841.3125
 10
1714.277888
 20
840.411648
 10
1714.489004
 20
839.539284
 10
1714.695776
 20
838.695696
 10
1714.898132
 20
837.881172
 10
1715.096
 20
837.096
 10
1715.289308
 20
836.340468
 10
1715.477984
 20
835.614864
 10
1715.661956
 20
834.919476
 10
1715.841152
 20
834.254592
 10
1716.0155
 20
833.6205
 10
1716.184928
 20
833.017488
 10
1716.349364
 20
832.445844
 10
1716.508736
 20
831.9058560000001
 10
1716.662972
 20
831.397812
 10
1716.955748
 20
830.478708
 10
1717.227116
 20
829.690836
 10
1717.4765
 20
829.0364999999999
 10
1717.703324
 20
828.518004
 10
1718.0
 20
828.0
 10
1718.688768
 20
827.948992
 10
1719.186992
 20
828.151848
 10
1719.785344
 20
828.503936
 10
1720.482
 20
829.003
 10
1721.275136
 20
829.646784
 10
1721.707314
 20
830.022241
 10
1722.162928
 20
830.433032
 10
1722.64175
 20
830.878875
 10
1723.143552
 20
831.359488
 10
1723.668106
 20
831.874589
 10
1724.215184
 20
832.423896
 10
1724.784558
 20
833.007127
 10
1725.376
 20
833.624
 10
1725.989282
 20
834.274233
 10
1726.624176
 20
834.957544
 10
1727.280454
 20
835.673651
 10
1727.957888
 20
836.422272
 10
1728.65625
 20
837.203125
 10
1729.375312
 20
838.015928
 10
1730.114846
 20
838.860399
 10
1730.874624
 20
839.736256
 10
1731.654418
 20
840.643217
 10
1732.454
 20
841.581
 10
1733.273142
 20
842.549323
 10
1734.111616
 20
843.547904
 10
1734.969194
 20
844.576461
 10
1735.845648
 20
845.634712
 10
1736.74075
 20
846.722375
 10
1737.654272
 20
847.839168
 10
1738.585986
 20
848.984809
 10
1739.535664
 20
850.159016
 10
1740.503078
 20
851.361507
 10
1741.488
 20
852.592
 10
1742.490202
 20
853.8502129999999
 10
1743.509456
 20
855.135864
 10
1744.545534
 20
856.448671
 10
1745.5982079999999
 20
857.788352
 10
1746.66725
 20
859.154625
 10
1747.752432
 20
860.547208
 10
1748.853526
 20
861.965819
 10
1749.970304
 20
863.410176
 10
1751.102538
 20
864.879997
 10
1752.25
 20
866.375
 10
1753.412462
 20
867.894903
 10
1754.589696
 20
869.439424
 10
1755.781474
 20
871.008281
 10
1756.987568
 20
872.601192
 10
1758.20775
 20
874.217875
 10
1759.441792
 20
875.858048
 10
1760.689466
 20
877.521429
 10
1761.950544
 20
879.207736
 10
1763.224798
 20
880.916687
 10
1764.512
 20
882.648
 10
1765.811922
 20
884.401393
 10
1767.124336
 20
886.176584
 10
1768.449014
 20
887.973291
 10
1769.785728
 20
889.791232
 10
1771.13425
 20
891.630125
 10
1772.494352
 20
893.489688
 10
1773.865806
 20
895.369639
 10
1775.248384
 20
897.269696
 10
1776.641858
 20
899.189577
 10
1778.046
 20
901.129
 10
1779.460582
 20
903.087683
 10
1780.885376
 20
905.065344
 10
1782.320154
 20
907.061701
 10
1783.764688
 20
909.076472
 10
1785.21875
 20
911.109375
 10
1786.682112
 20
913.160128
 10
1788.154546
 20
915.228449
 10
1789.635824
 20
917.314056
 10
1791.125718
 20
919.416667
 10
1792.624
 20
921.5360000000001
 10
1794.1304420000001
 20
923.671773
 10
1795.644816
 20
925.823704
 10
1797.166894
 20
927.991511
 10
1798.696448
 20
930.174912
 10
1800.23325
 20
932.3736250000001
 10
1801.777072
 20
934.587368
 10
1803.327686
 20
936.815859
 10
1804.884864
 20
939.058816
 10
1806.448378
 20
941.315957
 10
1808.018
 20
943.587
 10
1809.593502
 20
945.871663
 10
1811.174656
 20
948.169664
 10
1812.761234
 20
950.480721
 10
1814.353008
 20
952.804552
 10
1815.94975
 20
955.1408749999999
 10
1817.551232
 20
957.4894079999999
 10
1819.157226
 20
959.849869
 10
1820.767504
 20
962.221976
 10
1822.381838
 20
964.605447
 10
1824.0
 20
967.0
 10
1825.615468
 20
969.394552
 10
1827.221744
 20
971.778016
 10
1828.818636
 20
974.150104
 10
1830.405952
 20
976.510528
 10
1831.9835
 20
978.859
 10
1833.551088
 20
981.195232
 10
1835.108524
 20
983.518936
 10
1836.655616
 20
985.829824
 10
1838.192172
 20
988.127608
 10
1839.718
 20
990.412
 10
1841.232908
 20
992.682712
 10
1842.736704
 20
994.939456
 10
1844.229196
 20
997.181944
 10
1845.710192
 20
999.409888
 10
1847.1795
 20
1001.623
 10
1848.636928
 20
1003.820992
 10
1850.082284
 20
1006.003576
 10
1851.515376
 20
1008.170464
 10
1852.936012
 20
1010.321368
 10
1854.344
 20
1012.456
 10
1855.7391480000001
 20
1014.574072
 10
1857.1212639999999
 20
1016.675296
 10
1858.490156
 20
1018.759384
 10
1859.845632
 20
1020.826048
 10
1861.1875
 20
1022.875
 10
1862.515568
 20
1024.905952
 10
1863.829644
 20
1026.918616
 10
1865.129536
 20
1028.912704
 10
1866.415052
 20
1030.887928
 10
1867.686
 20
1032.844
 10
1868.942188
 20
1034.780632
 10
1870.183424
 20
1036.697536
 10
1871.409516
 20
1038.594424
 10
1872.620272
 20
1040.471008
 10
1873.8155
 20
1042.327
 10
1874.995008
 20
1044.162112
 10
1876.158604
 20
1045.976056
 10
1877.306096
 20
1047.768544
 10
1878.437292
 20
1049.539288
 10
1879.552
 20
1051.288
 10
1880.650028
 20
1053.014392
 10
1881.731184
 20
1054.718176
 10
1882.795276
 20
1056.399064
 10
1883.842112
 20
1058.056768
 10
1884.8715
 20
1059.691
 10
1885.883248
 20
1061.301472
 10
1886.877164
 20
1062.887896
 10
1887.853056
 20
1064.449984
 10
1888.810732
 20
1065.987448
 10
1889.75
 20
1067.5
 10
1890.670668
 20
1068.987352
 10
1891.572544
 20
1070.449216
 10
1892.455436
 20
1071.885304
 10
1893.319152
 20
1073.295328
 10
1894.1635
 20
1074.679
 10
1894.988288
 20
1076.036032
 10
1895.793324
 20
1077.366136
 10
1896.578416
 20
1078.669024
 10
1897.343372
 20
1079.944408
 10
1898.088
 20
1081.192
 10
1898.812108
 20
1082.411512
 10
1899.515504
 20
1083.602656
 10
1900.197996
 20
1084.765144
 10
1900.859392
 20
1085.898688
 10
1901.4995
 20
1087.003
 10
1902.118128
 20
1088.077792
 10
1902.715084
 20
1089.122776
 10
1903.290176
 20
1090.137664
 10
1903.843212
 20
1091.122168
 10
1904.374
 20
1092.076
 10
1904.882348
 20
1092.998872
 10
1905.368064
 20
1093.890496
 10
1905.830956
 20
1094.7505840000001
 10
1906.270832
 20
1095.578848
 10
1906.6875
 20
1096.375
 10
1907.080768
 20
1097.138752
 10
1907.450444
 20
1097.869816
 10
1907.7963359999999
 20
1098.567904
 10
1908.118252
 20
1099.232728
 10
1908.416
 20
1099.864
 10
1908.689388
 20
1100.461432
 10
1908.938224
 20
1101.024736
 10
1909.162316
 20
1101.553624
 10
1909.361472
 20
1102.047808
 10
1909.684208
 20
1102.930912
 10
1909.904896
 20
1103.671744
 10
1910.022
 20
1104.268
 10
1910.000076
 20
1104.886264
 10
1909.593964
 20
1105.183096
 10
1909.0
 20
1105.0
 10
1908.502144
 20
1104.68928
 10
1907.969152
 20
1104.35744
 10
1907.401888
 20
1104.00496
 10
1906.801216
 20
1103.63232
 10
1906.168
 20
1103.24
 10
1905.503104
 20
1102.82848
 10
1904.807392
 20
1102.39824
 10
1904.081728
 20
1101.94976
 10
1903.326976
 20
1101.48352
 10
1902.544
 20
1101.0
 10
1901.733664
 20
1100.49968
 10
1900.896832
 20
1099.98304
 10
1900.46875
 20
1099.71875
 10
1900.034368
 20
1099.45056
 10
1899.593794
 20
1099.17853
 10
1899.147136
 20
1098.90272
 10
1898.694502
 20
1098.62319
 10
1898.236
 20
1098.34
 10
1897.771738
 20
1098.05321
 10
1897.301824
 20
1097.76288
 10
1896.826366
 20
1097.46907
 10
1896.345472
 20
1097.17184
 10
1895.85925
 20
1096.87125
 10
1895.367808
 20
1096.56736
 10
1894.871254
 20
1096.26023
 10
1894.369696
 20
1095.94992
 10
1893.863242
 20
1095.63649
 10
1893.352
 20
1095.32
 10
1892.836078
 20
1095.00051
 10
1892.315584
 20
1094.67808
 10
1891.790626
 20
1094.35277
 10
1891.261312
 20
1094.02464
 10
1890.72775
 20
1093.69375
 10
1890.190048
 20
1093.36016
 10
1889.648314
 20
1093.02393
 10
1889.102656
 20
1092.68512
 10
1888.553182
 20
1092.34379
 10
1888.0
 20
1092.0
 10
1887.443218
 20
1091.65381
 10
1886.882944
 20
1091.30528
 10
1886.319286
 20
1090.95447
 10
1885.752352
 20
1090.60144
 10
1885.18225
 20
1090.24625
 10
1884.609088
 20
1089.88896
 10
1884.032974
 20
1089.52963
 10
1883.454016
 20
1089.16832
 10
1882.872322
 20
1088.80509
 10
1882.288
 20
1088.44
 10
1881.701158
 20
1088.07311
 10
1881.111904
 20
1087.70448
 10
1880.520346
 20
1087.33417
 10
1879.926592
 20
1086.96224
 10
1879.33075
 20
1086.58875
 10
1878.732928
 20
1086.21376
 10
1878.133234
 20
1085.83733
 10
1877.531776
 20
1085.4595199999999
 10
1876.928662
 20
1085.08039
 10
1876.324
 20
1084.7
 10
1875.717898
 20
1084.31841
 10
1875.110464
 20
1083.93568
 10
1874.501806
 20
1083.55187
 10
1873.892032
 20
1083.16704
 10
1873.28125
 20
1082.78125
 10
1872.669568
 20
1082.39456
 10
1872.057094
 20
1082.00703
 10
1871.443936
 20
1081.61872
 10
1870.830202
 20
1081.22969
 10
1870.216
 20
1080.84
 10
1869.601438
 20
1080.44971
 10
1868.986624
 20
1080.05888
 10
1868.371666
 20
1079.66757
 10
1867.756672
 20
1079.27584
 10
1867.14175
 20
1078.88375
 10
1866.527008
 20
1078.49136
 10
1865.912554
 20
1078.09873
 10
1865.298496
 20
1077.70592
 10
1864.684942
 20
1077.31299
 10
1864.072
 20
1076.92
 10
1863.459778
 20
1076.52701
 10
1862.848384
 20
1076.13408
 10
1862.237926
 20
1075.74127
 10
1861.628512
 20
1075.34864
 10
1861.02025
 20
1074.95625
 10
1860.413248
 20
1074.56416
 10
1859.807614
 20
1074.17243
 10
1859.203456
 20
1073.78112
 10
1858.600882
 20
1073.39029
 10
1858.0
 20
1073.0
 10
1857.371213
 20
1072.612403
 10
1856.744904
 20
1072.229624
 10
1856.121151
 20
1071.851681
 10
1855.500032
 20
1071.478592
 10
1854.881625
 20
1071.110375
 10
1854.266008
 20
1070.747048
 10
1853.653259
 20
1070.388629
 10
1853.043456
 20
1070.035136
 10
1852.436677
 20
1069.686587
 10
1851.833
 20
1069.343
 10
1851.232503
 20
1069.004393
 10
1850.635264
 20
1068.670784
 10
1850.041361
 20
1068.342191
 10
1849.450872
 20
1068.018632
 10
1848.863875
 20
1067.700125
 10
1848.280448
 20
1067.386688
 10
1847.700669
 20
1067.078339
 10
1847.124616
 20
1066.775096
 10
1846.552367
 20
1066.476977
 10
1845.984
 20
1066.184
 10
1845.419593
 20
1065.896183
 10
1844.859224
 20
1065.613544
 10
1844.302971
 20
1065.336101
 10
1843.750912
 20
1065.063872
 10
1843.203125
 20
1064.796875
 10
1842.659688
 20
1064.535128
 10
1842.120679
 20
1064.278649
 10
1841.586176
 20
1064.027456
 10
1841.056257
 20
1063.781567
 10
1840.531
 20
1063.541
 10
1840.010483
 20
1063.305773
 10
1839.494784
 20
1063.075904
 10
1838.983981
 20
1062.851411
 10
1838.478152
 20
1062.632312
 10
1837.977375
 20
1062.418625
 10
1837.481728
 20
1062.210368
 10
1836.991289
 20
1062.007559
 10
1836.506136
 20
1061.810216
 10
1836.026347
 20
1061.618357
 10
1835.552
 20
1061.432
 10
1835.083173
 20
1061.251163
 10
1834.162391
 20
1060.906121
 10
1833.264625
 20
1060.583375
 10
1832.390499
 20
1060.283069
 10
1831.540637
 20
1060.005347
 10
1830.715663
 20
1059.750353
 10
1829.916201
 20
1059.518231
 10
1829.142875
 20
1059.309125
 10
1828.396309
 20
1059.123179
 10
1827.677127
 20
1058.960537
 10
1826.985953
 20
1058.821343
 10
1826.323411
 20
1058.705741
 10
1825.690125
 20
1058.613875
 10
1825.086719
 20
1058.545889
 10
1824.513817
 20
1058.501927
 10
1823.972043
 20
1058.482133
 10
1823.462021
 20
1058.486651
 10
1822.757888
 20
1058.539328
 10
1822.128707
 20
1058.647517
 10
1821.576584
 20
1058.811704
 10
1821.103625
 20
1059.032375
 10
1820.599797
 20
1059.415307
 10
1820.245441
 20
1059.900671
 10
1820.045549
 20
1060.489619
 10
1820.0
 20
1061.0
 10
1820.054904
 20
1061.553368
 10
1820.218432
 20
1062.489344
 10
1820.340375
 20
1063.098875
 10
1820.488808
 20
1063.801736
 10
1820.663509
 20
1064.597153
 10
1820.864256
 20
1065.484352
 10
1821.090827
 20
1066.462559
 10
1821.343
 20
1067.531
 10
1821.620553
 20
1068.688901
 10
1821.923264
 20
1069.935488
 10
1822.250911
 20
1071.269987
 10
1822.603272
 20
1072.691624
 10
1822.980125
 20
1074.199625
 10
1823.381248
 20
1075.793216
 10
1823.806419
 20
1077.471623
 10
1824.255416
 20
1079.234072
 10
1824.728017
 20
1081.079789
 10
1825.224
 20
1083.008
 10
1825.743143
 20
1085.017931
 10
1826.285224
 20
1087.108808
 10
1826.850021
 20
1089.279857
 10
1827.437312
 20
1091.530304
 10
1828.046875
 20
1093.859375
 10
1828.678488
 20
1096.266296
 10
1829.331929
 20
1098.750293
 10
1830.006976
 20
1101.310592
 10
1830.703407
 20
1103.946419
 10
1831.421
 20
1106.657
 10
1832.159533
 20
1109.441561
 10
1832.918784
 20
1112.299328
 10
1833.698531
 20
1115.229527
 10
1834.498552
 20
1118.231384
 10
1835.318625
 20
1121.3041249999999
 10
1836.158528
 20
1124.446976
 10
1837.018039
 20
1127.659163
 10
1837.896936
 20
1130.939912
 10
1838.794997
 20
1134.2884490000001
 10
1839.712
 20
1137.704
 10
1840.647723
 20
1141.1857909999999
 10
1841.601944
 20
1144.733048
 10
1842.574441
 20
1148.344997
 10
1843.564992
 20
1152.020864
 10
1844.573375
 20
1155.759875
 10
1845.599368
 20
1159.561256
 10
1846.642749
 20
1163.424233
 10
1847.703296
 20
1167.3480319999999
 10
1848.780787
 20
1171.331879
 10
1849.875
 20
1175.375
 10
1850.985713
 20
1179.476621
 10
1852.112704
 20
1183.635968
 10
1853.255751
 20
1187.852267
 10
1854.414632
 20
1192.124744
 10
1855.589125
 20
1196.4526250000001
 10
1856.779008
 20
1200.835136
 10
1857.984059
 20
1205.271503
 10
1859.204056
 20
1209.760952
 10
1860.438777
 20
1214.302709
 10
1861.688
 20
1218.896
 10
1862.951503
 20
1223.540051
 10
1864.229064
 20
1228.234088
 10
1865.520461
 20
1232.977337
 10
1866.825472
 20
1237.769024
 10
1868.143875
 20
1242.608375
 10
1869.475448
 20
1247.494616
 10
1870.819969
 20
1252.426973
 10
1872.177216
 20
1257.4046720000001
 10
1873.546967
 20
1262.426939
 10
1874.929
 20
1267.493
 10
1876.323093
 20
1272.602081
 10
1877.729024
 20
1277.753408
 10
1879.146571
 20
1282.946207
 10
1880.575512
 20
1288.179704
 10
1882.015625
 20
1293.453125
 10
1883.466688
 20
1298.765696
 10
1884.928479
 20
1304.116643
 10
1886.400776
 20
1309.505192
 10
1887.883357
 20
1314.930569
 10
1889.376
 20
1320.392
 10
1890.878483
 20
1325.888711
 10
1892.390584
 20
1331.419928
 10
1893.912081
 20
1336.9848769999999
 10
1895.442752
 20
1342.582784
 10
1896.982375
 20
1348.212875
 10
1898.530728
 20
1353.874376
 10
1900.087589
 20
1359.566513
 10
1901.652736
 20
1365.288512
 10
1903.225947
 20
1371.039599
 10
1904.807
 20
1376.819
 10
1906.395673
 20
1382.625941
 10
1907.991744
 20
1388.459648
 10
1909.594991
 20
1394.319347
 10
1911.205192
 20
1400.204264
 10
1912.822125
 20
1406.113625
 10
1914.445568
 20
1412.046656
 10
1916.075299
 20
1418.002583
 10
1917.711096
 20
1423.980632
 10
1919.352737
 20
1429.980029
 10
1921.0
 20
1436.0
 10
1922.676067
 20
1442.019372
 10
1924.344136
 20
1448.0169759999999
 10
1926.004009
 20
1453.992044
 10
1927.655488
 20
1459.943808
 10
1929.298375
 20
1465.8715
 10
1930.932472
 20
1471.774352
 10
1932.557581
 20
1477.651596
 10
1934.173504
 20
1483.502464
 10
1935.780043
 20
1489.326188
 10
1937.377
 20
1495.122
 10
1938.964177
 20
1500.889132
 10
1940.541376
 20
1506.626816
 10
1942.108399
 20
1512.334284
 10
1943.665048
 20
1518.010768
 10
1945.211125
 20
1523.6555
 10
1946.746432
 20
1529.267712
 10
1948.270771
 20
1534.846636
 10
1949.783944
 20
1540.391504
 10
1951.285753
 20
1545.901548
 10
1952.776
 20
1551.376
 10
1954.254487
 20
1556.814092
 10
1955.721016
 20
1562.215056
 10
1957.175389
 20
1567.5781240000001
 10
1958.617408
 20
1572.902528
 10
1960.046875
 20
1578.1875
 10
1961.463592
 20
1583.432272
 10
1962.867361
 20
1588.636076
 10
1964.257984
 20
1593.798144
 10
1965.635263
 20
1598.917708
 10
1966.999
 20
1603.994
 10
1968.348997
 20
1609.0262519999999
 10
1969.685056
 20
1614.013696
 10
1971.006979
 20
1618.955564
 10
1972.314568
 20
1623.851088
 10
1973.607625
 20
1628.6995
 10
1974.885952
 20
1633.500032
 10
1976.149351
 20
1638.251916
 10
1977.397624
 20
1642.9543840000001
 10
1978.630573
 20
1647.606668
 10
1979.848
 20
1652.208
 10
1981.049707
 20
1656.757612
 10
1982.235496
 20
1661.2547359999999
 10
1983.4051690000001
 20
1665.698604
 10
1984.558528
 20
1670.088448
 10
1985.695375
 20
1674.4235
 10
1986.815512
 20
1678.702992
 10
1987.918741
 20
1682.926156
 10
1989.004864
 20
1687.092224
 10
1990.073683
 20
1691.200428
 10
1991.125
 20
1695.25
 10
1992.158617
 20
1699.240172
 10
1993.174336
 20
1703.170176
 10
1994.171959
 20
1707.039244
 10
1995.151288
 20
1710.846608
 10
1996.112125
 20
1714.5915
 10
1997.054272
 20
1718.273152
 10
1997.977531
 20
1721.8907960000001
 10
1998.881704
 20
1725.443664
 10
1999.766593
 20
1728.930988
 10
2000.632
 20
1732.3519999999999
 10
2001.477727
 20
1735.705932
 10
2002.303576
 20
1738.992016
 10
2003.109349
 20
1742.209484
 10
2003.894848
 20
1745.357568
 10
2004.659875
 20
1748.4355
 10
2005.404232
 20
1751.442512
 10
2006.127721
 20
1754.3778360000001
 10
2006.830144
 20
1757.240704
 10
2007.511303
 20
1760.030348
 10
2008.171
 20
1762.746
 10
2008.809037
 20
1765.386892
 10
2009.425216
 20
1767.952256
 10
2010.019339
 20
1770.441324
 10
2010.591208
 20
1772.853328
 10
2011.140625
 20
1775.1875
 10
2011.667392
 20
1777.443072
 10
2012.171311
 20
1779.619276
 10
2012.652184
 20
1781.715344
 10
2013.109813
 20
1783.730508
 10
2013.544
 20
1785.664
 10
2013.954547
 20
1787.515052
 10
2014.341256
 20
1789.282896
 10
2014.703929
 20
1790.966764
 10
2015.042368
 20
1792.565888
 10
2015.356375
 20
1794.0795
 10
2015.645752
 20
1795.506832
 10
2015.910301
 20
1796.847116
 10
2016.149824
 20
1798.099584
 10
2016.364123
 20
1799.263468
 10
2016.5529999999999
 20
1800.338
 10
2016.716257
 20
1801.322412
 10
2016.853696
 20
1802.215936
 10
2016.965119
 20
1803.017804
 10
2017.050328
 20
1803.727248
 10
2017.109125
 20
1804.3435
 10
2017.141312
 20
1804.865792
 10
2017.125064
 20
1805.625424
 10
2016.886066
 20
1806.076831
 10
2016.260224
 20
1806.150784
 10
2015.610256
 20
1806.071496
 10
2014.777792
 20
1805.891072
 10
2014.294114
 20
1805.763399
 10
2013.766
 20
1805.611
 10
2013.193846
 20
1805.434061
 10
2012.578048
 20
1805.232768
 10
2011.919002
 20
1805.007307
 10
2011.217104
 20
1804.757864
 10
2010.47275
 20
1804.484625
 10
2009.686336
 20
1804.187776
 10
2008.858258
 20
1803.867503
 10
2007.988912
 20
1803.523992
 10
2007.078694
 20
1803.157429
 10
2006.128
 20
1802.768
 10
2005.137226
 20
1802.355891
 10
2004.106768
 20
1801.921288
 10
2003.037022
 20
1801.464377
 10
2001.928384
 20
1800.985344
 10
2000.78125
 20
1800.484375
 10
1999.596016
 20
1799.961656
 10
1998.373078
 20
1799.417373
 10
1997.112832
 20
1798.851712
 10
1995.815674
 20
1798.264859
 10
1994.482
 20
1797.657
 10
1993.112206
 20
1797.028321
 10
1991.706688
 20
1796.3790079999999
 10
1990.265842
 20
1795.709247
 10
1988.790064
 20
1795.019224
 10
1987.27975
 20
1794.309125
 10
1985.735296
 20
1793.579136
 10
1984.157098
 20
1792.829443
 10
1982.545552
 20
1792.060232
 10
1980.901054
 20
1791.271689
 10
1979.224
 20
1790.464
 10
1977.514786
 20
1789.637351
 10
1975.773808
 20
1788.791928
 10
1974.001462
 20
1787.927917
 10
1972.198144
 20
1787.045504
 10
1970.36425
 20
1786.144875
 10
1968.500176
 20
1785.226216
 10
1966.606318
 20
1784.289713
 10
1964.683072
 20
1783.335552
 10
1962.730834
 20
1782.363919
 10
1960.75
 20
1781.375
 10
1958.740966
 20
1780.368981
 10
1956.704128
 20
1779.346048
 10
1954.639882
 20
1778.306387
 10
1952.548624
 20
1777.250184
 10
1950.43075
 20
1776.177625
 10
1948.286656
 20
1775.088896
 10
1946.116738
 20
1773.984183
 10
1943.921392
 20
1772.863672
 10
1941.701014
 20
1771.727549
 10
1939.456
 20
1770.576
 10
1937.186746
 20
1769.409211
 10
1934.893648
 20
1768.227368
 10
1932.577102
 20
1767.030657
 10
1930.237504
 20
1765.819264
 10
1927.87525
 20
1764.593375
 10
1925.490736
 20
1763.353176
 10
1923.084358
 20
1762.098853
 10
1920.656512
 20
1760.830592
 10
1918.207594
 20
1759.548579
 10
1915.738
 20
1758.253
 10
1913.248126
 20
1756.944041
 10
1910.738368
 20
1755.621888
 10
1908.209122
 20
1754.286727
 10
1905.660784
 20
1752.938744
 10
1903.09375
 20
1751.578125
 10
1900.508416
 20
1750.205056
 10
1897.905178
 20
1748.819723
 10
1895.284432
 20
1747.422312
 10
1892.6465739999999
 20
1746.013009
 10
1889.992
 20
1744.592
 10
1887.3211059999999
 20
1743.159471
 10
1884.634288
 20
1741.715608
 10
1881.931942
 20
1740.260597
 10
1879.2144640000001
 20
1738.794624
 10
1876.48225
 20
1737.317875
 10
1873.735696
 20
1735.830536
 10
1870.975198
 20
1734.332793
 10
1868.201152
 20
1732.824832
 10
1865.413954
 20
1731.306839
 10
1862.614
 20
1729.779
 10
1859.801686
 20
1728.241501
 10
1856.977408
 20
1726.694528
 10
1854.141562
 20
1725.138267
 10
1851.294544
 20
1723.572904
 10
1848.43675
 20
1721.998625
 10
1845.5685760000001
 20
1720.415616
 10
1842.690418
 20
1718.824063
 10
1839.802672
 20
1717.224152
 10
1836.905734
 20
1715.616069
 10
1834.0
 20
1714.0
 10
1831.064265
 20
1712.352735
 10
1828.13732
 20
1710.71108
 10
1825.219555
 20
1709.075245
 10
1822.31136
 20
1707.44544
 10
1819.413125
 20
1705.821875
 10
1816.52524
 20
1704.20476
 10
1813.648095
 20
1702.594305
 10
1810.78208
 20
1700.99072
 10
1807.927585
 20
1699.394215
 10
1805.085
 20
1697.805
 10
1802.254715
 20
1696.223285
 10
1799.43712
 20
1694.64928
 10
1796.632605
 20
1693.083195
 10
1793.84156
 20
1691.52524
 10
1791.064375
 20
1689.975625
 10
1788.30144
 20
1688.43456
 10
1785.553145
 20
1686.902255
 10
1782.81988
 20
1685.37892
 10
1780.102035
 20
1683.864765
 10
1777.4
 20
1682.36
 10
1774.714165
 20
1680.864835
 10
1772.04492
 20
1679.37948
 10
1769.392655
 20
1677.904145
 10
1766.75776
 20
1676.43904
 10
1764.140625
 20
1674.984375
 10
1761.54164
 20
1673.54036
 10
1758.961195
 20
1672.107205
 10
1756.39968
 20
1670.68512
 10
1753.857485
 20
1669.2743150000001
 10
1751.335
 20
1667.875
 10
1748.832615
 20
1666.487385
 10
1746.35072
 20
1665.11168
 10
1743.889705
 20
1663.748095
 10
1741.44996
 20
1662.3968399999999
 10
1739.0318750000001
 20
1661.058125
 10
1736.63584
 20
1659.73216
 10
1734.262245
 20
1658.419155
 10
1731.91148
 20
1657.11932
 10
1729.583935
 20
1655.832865
 10
1727.28
 20
1654.56
 10
1725.000065
 20
1653.300935
 10
1722.74452
 20
1652.0558800000001
 10
1720.513755
 20
1650.825045
 10
1718.30816
 20
1649.60864
 10
1716.128125
 20
1648.406875
 10
1713.97404
 20
1647.21996
 10
1711.846295
 20
1646.048105
 10
1709.74528
 20
1644.89152
 10
1707.671385
 20
1643.750415
 10
1705.625
 20
1642.625
 10
1703.606515
 20
1641.515485
 10
1701.61632
 20
1640.42208
 10
1699.6548050000001
 20
1639.344995
 10
1697.72236
 20
1638.28444
 10
1695.819375
 20
1637.240625
 10
1693.94624
 20
1636.21376
 10
1692.103345
 20
1635.204055
 10
1690.29108
 20
1634.21172
 10
1688.509835
 20
1633.236965
 10
1686.76
 20
1632.28
 10
1685.041965
 20
1631.341035
 10
1683.35612
 20
1630.42028
 10
1681.702855
 20
1629.517945
 10
1680.08256
 20
1628.63424
 10
1678.495625
 20
1627.769375
 10
1676.94244
 20
1626.92356
 10
1675.423395
 20
1626.097005
 10
1673.93888
 20
1625.28992
 10
1672.489285
 20
1624.502515
 10
1671.075
 20
1623.7350000000001
 10
1669.696415
 20
1622.987585
 10
1668.35392
 20
1622.26048
 10
1667.047905
 20
1621.553895
 10
1665.77876
 20
1620.86804
 10
1664.546875
 20
1620.203125
 10
1663.35264
 20
1619.55936
 10
1662.196445
 20
1618.9369550000001
 10
1661.07868
 20
1618.33612
 10
1659.9997349999999
 20
1617.757065
 10
1658.96
 20
1617.2
 10
1657.959865
 20
1616.665135
 10
1656.99972
 20
1616.15268
 10
1656.079955
 20
1615.662845
 10
1655.2009600000001
 20
1615.19584
 10
1654.363125
 20
1614.751875
 10
1653.56684
 20
1614.33116
 10
1652.812495
 20
1613.933905
 10
1652.10048
 20
1613.56032
 10
1651.431185
 20
1613.210615
 10
1650.805
 20
1612.885
 10
1650.222315
 20
1612.583685
 10
1649.68352
 20
1612.30688
 10
1649.189005
 20
1612.054795
 10
1648.73916
 20
1611.82764
 10
1647.97504
 20
1611.44896
 10
1647.39428
 20
1611.17252
 10
1646.852397
 20
1610.944189
 10
1646.309625
 20
1610.803625
 10
1645.737
 20
1610.809
 10
1645.202112
 20
1611.070144
 10
1644.880617
 20
1611.490329
 10
1644.669672
 20
1612.085864
 10
1644.579
 20
1612.683
 10
1644.555789
 20
1613.198493
 10
1644.570432
 20
1613.769984
 10
1644.622443
 20
1614.395691
 10
1644.711336
 20
1615.073832
 10
1644.836625
 20
1615.802625
 10
1644.940131
 20
1616.315747
 10
1645.059453
 20
1616.850061
 10
1645.194447
 20
1617.405039
 10
1645.344969
 20
1617.980153
 10
1645.510875
 20
1618.574875
 10
1645.692021
 20
1619.188677
 10
1645.888263
 20
1619.821031
 10
1646.099457
 20
1620.471409
 10
1646.325459
 20
1621.139283
 10
1646.566125
 20
1621.824125
 10
1646.821311
 20
1622.525407
 10
1647.090873
 20
1623.242601
 10
1647.374667
 20
1623.975179
 10
1647.672549
 20
1624.722613
 10
1647.984375
 20
1625.484375
 10
1648.310001
 20
1626.259937
 10
1648.649283
 20
1627.048771
 10
1649.002077
 20
1627.850349
 10
1649.368239
 20
1628.664143
 10
1649.747625
 20
1629.489625
 10
1650.140091
 20
1630.326267
 10
1650.545493
 20
1631.1735410000001
 10
1650.963687
 20
1632.030919
 10
1651.394529
 20
1632.897873
 10
1651.837875
 20
1633.773875
 10
1652.293581
 20
1634.658397
 10
1652.526024
 20
1635.103688
 10
1652.761503
 20
1635.550911
 10
1653.0
 20
1636.0
 10
1653.667626
 20
1637.323437
 10
1654.468608
 20
1638.949496
 10
1655.400102
 20
1640.871799
 10
1656.459264
 20
1643.083968
 10
1657.64325
 20
1645.579625
 10
1658.949216
 20
1648.352392
 10
1660.374318
 20
1651.395891
 10
1661.915712
 20
1654.703744
 10
1663.570554
 20
1658.269573
 10
1665.336
 20
1662.087
 10
1667.209206
 20
1666.149647
 10
1669.187328
 20
1670.451136
 10
1671.267522
 20
1674.985089
 10
1673.446944
 20
1679.745128
 10
1675.72275
 20
1684.7248749999999
 10
1678.092096
 20
1689.917952
 10
1680.552138
 20
1695.317981
 10
1683.100032
 20
1700.918584
 10
1685.7329340000001
 20
1706.713383
 10
1688.448
 20
1712.696
 10
1691.242386
 20
1718.8600569999999
 10
1694.113248
 20
1725.199176
 10
1697.057742
 20
1731.706979
 10
1700.073024
 20
1738.377088
 10
1703.15625
 20
1745.203125
 10
1706.304576
 20
1752.178712
 10
1709.515158
 20
1759.297471
 10
1712.785152
 20
1766.553024
 10
1716.111714
 20
1773.938993
 10
1719.492
 20
1781.449
 10
1722.923166
 20
1789.076667
 10
1726.402368
 20
1796.815616
 10
1729.926762
 20
1804.659469
 10
1733.493504
 20
1812.601848
 10
1737.09975
 20
1820.636375
 10
1740.742656
 20
1828.756672
 10
1744.419378
 20
1836.956361
 10
1748.127072
 20
1845.229064
 10
1751.862894
 20
1853.568403
 10
1755.624
 20
1861.968
 10
1759.407546
 20
1870.421477
 10
1763.210688
 20
1878.922456
 10
1767.030582
 20
1887.464559
 10
1770.864384
 20
1896.041408
 10
1774.70925
 20
1904.646625
 10
1778.562336
 20
1913.2738319999999
 10
1782.420798
 20
1921.916651
 10
1786.281792
 20
1930.568704
 10
1790.142474
 20
1939.2236130000001
 10
1794.0
 20
1947.875
 10
1797.851526
 20
1956.516487
 10
1801.694208
 20
1965.141696
 10
1805.525202
 20
1973.744249
 10
1809.341664
 20
1982.3177680000001
 10
1813.14075
 20
1990.855875
 10
1816.9196160000001
 20
1999.352192
 10
1820.675418
 20
2007.800341
 10
1824.4053119999999
 20
2016.193944
 10
1828.106454
 20
2024.526623
 10
1831.776
 20
2032.792
 10
1835.411106
 20
2040.983697
 10
1839.008928
 20
2049.095336
 10
1842.566622
 20
2057.120539
 10
1846.081344
 20
2065.052928
 10
1849.55025
 20
2072.886125
 10
1852.970496
 20
2080.613752
 10
1856.339238
 20
2088.229431
 10
1859.653632
 20
2095.726784
 10
1862.910834
 20
2103.099433
 10
1866.108
 20
2110.341
 10
1869.242286
 20
2117.445107
 10
1872.310848
 20
2124.4053759999997
 10
1875.3108419999999
 20
2131.215429
 10
1878.239424
 20
2137.868888
 10
1881.09375
 20
2144.359375
 10
1883.870976
 20
2150.680512
 10
1886.568258
 20
2156.825921
 10
1889.182752
 20
2162.789224
 10
1891.711614
 20
2168.5640430000003
 10
1894.152
 20
2174.1440000000002
 10
1896.501066
 20
2179.522717
 10
1898.755968
 20
2184.693816
 10
1900.913862
 20
2189.6509189999997
 10
1902.971904
 20
2194.387648
 10
1904.92725
 20
2198.897625
 10
1906.777056
 20
2203.174472
 10
1908.518478
 20
2207.211811
 10
1910.148672
 20
2211.003264
 10
1911.664794
 20
2214.542453
 10
1913.0639999999999
 20
2217.8230000000003
 10
1914.343446
 20
2220.838527
 10
1915.500288
 20
2223.582656
 10
1916.531682
 20
2226.0490090000003
 10
1917.434784
 20
2228.231208
 10
1918.20675
 20
2230.122875
 10
1918.844736
 20
2231.717632
 10
1919.345898
 20
2233.009101
 10
1919.707392
 20
2233.9909040000002
 10
1919.9263740000001
 20
2234.6566629999998
 10
1919.939112
 20
2235.178792
 10
1919.457624
 20
2235.528984
 10
1918.789131
 20
2235.784971
 10
1918.200609
 20
2235.952369
 10
1917.499983
 20
2236.117103
 10
1916.689125
 20
2236.279125
 10
1915.769907
 20
2236.438387
 10
1915.270248
 20
2236.516968
 10
1914.744201
 20
2236.594841
 10
1914.192
 20
2236.672
 10
1913.613879
 20
2236.748439
 10
1913.010072
 20
2236.824152
 10
1912.380813
 20
2236.899133
 10
1911.726336
 20
2236.973376
 10
1911.046875
 20
2237.046875
 10
1910.342664
 20
2237.119624
 10
1909.613937
 20
2237.191617
 10
1908.860928
 20
2237.262848
 10
1908.083871
 20
2237.333311
 10
1907.283
 20
2237.403
 10
1906.458549
 20
2237.471909
 10
1905.610752
 20
2237.540032
 10
1904.739843
 20
2237.607363
 10
1903.846056
 20
2237.673896
 10
1902.929625
 20
2237.739625
 10
1901.990784
 20
2237.804544
 10
1901.029767
 20
2237.868647
 10
1900.046808
 20
2237.931928
 10
1899.042141
 20
2237.994381
 10
1898.016
 20
2238.056
 10
1896.968619
 20
2238.116779
 10
1895.900232
 20
2238.176712
 10
1894.811073
 20
2238.235793
 10
1893.701376
 20
2238.294016
 10
1892.571375
 20
2238.351375
 10
1891.421304
 20
2238.407864
 10
1890.251397
 20
2238.463477
 10
1889.061888
 20
2238.518208
 10
1887.853011
 20
2238.572051
 10
1886.625
 20
2238.625
 10
1885.378089
 20
2238.677049
 10
1884.112512
 20
2238.728192
 10
1882.828503
 20
2238.778423
 10
1881.526296
 20
2238.827736
 10
1880.206125
 20
2238.876125
 10
1878.868224
 20
2238.923584
 10
1877.512827
 20
2238.970107
 10
1876.140168
 20
2239.015688
 10
1874.750481
 20
2239.060321
 10
1873.344
 20
2239.104
 10
1871.920959
 20
2239.146719
 10
1870.481592
 20
2239.188472
 10
1869.026133
 20
2239.229253
 10
1867.554816
 20
2239.269056
 10
1866.067875
 20
2239.307875
 10
1864.565544
 20
2239.345704
 10
1863.048057
 20
2239.382537
 10
1861.515648
 20
2239.418368
 10
1859.968551
 20
2239.453191
 10
1858.407
 20
2239.487
 10
1856.831229
 20
2239.519789
 10
1855.241472
 20
2239.551552
 10
1853.6379630000001
 20
2239.582283
 10
1852.020936
 20
2239.611976
 10
1850.390625
 20
2239.640625
 10
1848.747264
 20
2239.668224
 10
1847.091087
 20
2239.694767
 10
1845.422328
 20
2239.720248
 10
1843.741221
 20
2239.744661
 10
1842.048
 20
2239.768
 10
1840.342899
 20
2239.790259
 10
1838.626152
 20
2239.811432
 10
1836.897993
 20
2239.831513
 10
1835.158656
 20
2239.850496
 10
1833.408375
 20
2239.868375
 10
1831.647384
 20
2239.885144
 10
1829.875917
 20
2239.900797
 10
1828.094208
 20
2239.915328
 10
1826.302491
 20
2239.928731
 10
1824.501
 20
2239.941
 10
1822.689969
 20
2239.952129
 10
1820.869632
 20
2239.962112
 10
1819.040223
 20
2239.970943
 10
1817.201976
 20
2239.978616
 10
1815.355125
 20
2239.985125
 10
1813.499904
 20
2239.990464
 10
1811.636547
 20
2239.994627
 10
1809.765288
 20
2239.997608
 10
1807.886361
 20
2239.999401
 10
1806.0
 20
2240.0
 10
1803.025723
 20
2239.999389
 10
1800.102584
 20
2239.997512
 10
1797.230121
 20
2239.994303
 10
1794.407872
 20
2239.989696
 10
1791.635375
 20
2239.983625
 10
1788.912168
 20
2239.976024
 10
1786.237789
 20
2239.966827
 10
1783.611776
 20
2239.955968
 10
1781.033667
 20
2239.943381
 10
1778.503
 20
2239.929
 10
1776.019313
 20
2239.912759
 10
1773.582144
 20
2239.894592
 10
1771.191031
 20
2239.874433
 10
1768.845512
 20
2239.852216
 10
1766.545125
 20
2239.827875
 10
1764.289408
 20
2239.801344
 10
1762.077899
 20
2239.772557
 10
1759.910136
 20
2239.741448
 10
1757.785657
 20
2239.707951
 10
1755.704
 20
2239.672
 10
1753.664703
 20
2239.633529
 10
1751.667304
 20
2239.592472
 10
1749.711341
 20
2239.548763
 10
1747.796352
 20
2239.502336
 10
1745.921875
 20
2239.453125
 10
1744.087448
 20
2239.401064
 10
1742.292609
 20
2239.346087
 10
1740.536896
 20
2239.288128
 10
1738.819847
 20
2239.227121
 10
1737.141
 20
2239.163
 10
1735.499893
 20
2239.095699
 10
1733.896064
 20
2239.025152
 10
1732.329051
 20
2238.951293
 10
1730.798392
 20
2238.874056
 10
1729.303625
 20
2238.793375
 10
1727.844288
 20
2238.709184
 10
1726.419919
 20
2238.621417
 10
1725.030056
 20
2238.530008
 10
1723.674237
 20
2238.434891
 10
1722.352
 20
2238.336
 10
1721.062883
 20
2238.233269
 10
1719.806424
 20
2238.126632
 10
1718.582161
 20
2238.016023
 10
1717.389632
 20
2237.901376
 10
1716.228375
 20
2237.782625
 10
1715.097928
 20
2237.659704
 10
1713.997829
 20
2237.532547
 10
1712.927616
 20
2237.401088
 10
1711.886827
 20
2237.265261
 10
1710.875
 20
2237.125
 10
1709.891673
 20
2236.980239
 10
1708.936384
 20
2236.830912
 10
1708.008671
 20
2236.676953
 10
1707.108072
 20
2236.518296
 10
1706.234125
 20
2236.354875
 10
1705.386368
 20
2236.186624
 10
1704.564339
 20
2236.013477
 10
1703.767576
 20
2235.835368
 10
1702.995617
 20
2235.652231
 10
1702.248
 20
2235.464
 10
1701.524263
 20
2235.270609
 10
1700.823944
 20
2235.071992
 10
1700.146581
 20
2234.868083
 10
1699.491712
 20
2234.658816
 10
1698.858875
 20
2234.444125
 10
1698.247608
 20
2234.223944
 10
1697.657449
 20
2233.998207
 10
1697.087936
 20
2233.766848
 10
1696.538607
 20
2233.529801
 10
1696.009
 20
2233.287
 10
1695.498653
 20
2233.038379
 10
1695.007104
 20
2232.783872
 10
1694.533891
 20
2232.523413
 10
1694.078552
 20
2232.256936
 10
1693.640625
 20
2231.984375
 10
1693.219648
 20
2231.705664
 10
1692.426696
 20
2231.129528
 10
1691.696
 20
2230.528
 10
1691.023864
 20
2229.900552
 10
1690.406592
 20
2229.246656
 10
1689.840488
 20
2228.565784
 10
1689.321856
 20
2227.857408
 10
1688.847
 20
2227.121
 10
1688.412224
 20
2226.356032
 10
1688.013832
 20
2225.561976
 10
1687.648128
 20
2224.738304
 10
1687.311416
 20
2223.884488
 10
1687.0
 20
2223.0
  0
LWPOLYLINE
  5
31
330
17
100
AcDbEntity
  8
0
100
AcDbPolyline
 90
107
 70
1
 10
1645.0
 20
551.0
 10
1644.743473
 20
550.544735
 10
1644.513784
 20
550.07948
 10
1644.310771
 20
549.605045
 10
1644.134272
 20
549.12224
 10
1643.984125
 20
548.631875
 10
1643.860168
 20
548.13476
 10
1643.762239
 20
547.631705
 10
1643.690176
 20
547.12352
 10
1643.643817
 20
546.611015
 10
1643.623
 20
546.095
 10
1643.627563
 20
545.576285
 10
1643.657344
 20
545.05568
 10
1643.712181
 20
544.533995
 10
1643.791912
 20
544.01204
 10
1643.896375
 20
543.490625
 10
1644.025408
 20
542.97056
 10
1644.178849
 20
542.452655
 10
1644.356536
 20
541.93772
 10
1644.558307
 20
541.426565
 10
1644.784
 20
540.92
 10
1645.033453
 20
540.418835
 10
1645.306504
 20
539.92388
 10
1645.602991
 20
539.435945
 10
1645.922752
 20
538.95584
 10
1646.265625
 20
538.484375
 10
1646.631448
 20
538.02236
 10
1647.020059
 20
537.570605
 10
1647.431296
 20
537.12992
 10
1647.864997
 20
536.701115
 10
1648.321
 20
536.285
 10
1648.799143
 20
535.882385
 10
1649.299264
 20
535.49408
 10
1649.821201
 20
535.120895
 10
1650.29996
 20
534.828376
 10
1650.749375
 20
534.602125
 10
1651.346355
 20
534.357913
 10
1651.939015
 20
534.178309
 10
1652.525435
 20
534.062161
 10
1653.103695
 20
534.008317
 10
1653.671875
 20
534.015625
 10
1654.228055
 20
534.082933
 10
1654.770315
 20
534.209089
 10
1655.296735
 20
534.392941
 10
1655.805395
 20
534.633337
 10
1656.294375
 20
534.929125
 10
1656.761755
 20
535.279153
 10
1657.205615
 20
535.682269
 10
1657.624035
 20
536.137321
 10
1658.015095
 20
536.643157
 10
1658.376875
 20
537.198625
 10
1658.62784
 20
537.647104
 10
1658.860445
 20
538.122367
 10
1659.07388
 20
538.623928
 10
1659.267335
 20
539.151301
 10
1659.44
 20
539.704
 10
1659.591065
 20
540.281539
 10
1659.71972
 20
540.883432
 10
1659.825155
 20
541.509193
 10
1659.90656
 20
542.158336
 10
1659.963125
 20
542.830375
 10
1659.99404
 20
543.524824
 10
1659.998203
 20
544.535498
 10
1659.992824
 20
545.061984
 10
1659.983881
 20
545.579446
 10
1659.971392
 20
546.087872
 10
1659.935848
 20
547.077568
 10
1659.886336
 20
548.030976
 10
1659.823
 20
548.948
 10
1659.745984
 20
549.828544
 10
1659.655432
 20
550.672512
 10
1659.551488
 20
551.479808
 10
1659.434296
 20
552.250336
 10
1659.304
 20
552.984
 10
1659.160744
 20
553.680704
 10
1659.004672
 20
554.340352
 10
1658.835928
 20
554.962848
 10
1658.654656
 20
555.548096
 10
1658.461
 20
556.096
 10
1658.255104
 20
556.606464
 10
1658.037112
 20
557.079392
 10
1657.687759
 20
557.718194
 10
1657.312
 20
558.272
 10
1656.910321
 20
558.740486
 10
1656.483208
 20
559.123328
 10
1656.031147
 20
559.420202
 10
1655.554624
 20
559.630784
 10
1655.054125
 20
559.75475
 10
1654.530136
 20
559.791776
 10
1653.983143
 20
559.741538
 10
1653.413632
 20
559.603712
 10
1652.822089
 20
559.377974
 10
1652.209
 20
559.064
 10
1651.574851
 20
558.661466
 10
1651.140625
 20
558.34375
 10
1650.697399
 20
557.986434
 10
1650.245317
 20
557.589422
 10
1649.784523
 20
557.152618
 10
1649.315161
 20
556.675926
 10
1648.837375
 20
556.15925
 10
1648.351309
 20
555.602494
 10
1647.857107
 20
555.005562
 10
1647.354913
 20
554.368358
 10
1646.844871
 20
553.690786
 10
1646.327125
 20
552.97275
 10
1645.801819
 20
552.214154
 10
1645.269097
 20
551.414902
  0
LWPOLYLINE
  5
32
330
17
100
AcDbEntity
  8
0
100
AcDbPolyline
 90
415
 70
1
 10
1680.0
 20
538.0
 10
1680.016112
 20
537.115512
 10
1680.066496
 20
536.261696
 10
1680.154224
 20
535.438024
 10
1680.282368
 20
534.643968
 10
1680.454
 20
533.879
 10
1680.672192
 20
533.142592
 10
1680.940016
 20
532.434216
 10
1681.260544
 20
531.753344
 10
1681.636848
 20
531.099448
 10
1682.072
 20
530.472
 10
1682.569072
 20
529.870472
 10
1683.131136
 20
529.294336
 10
1683.761264
 20
528.743064
 10
1684.462528
 20
528.216128
 10
1685.238
 20
527.713
 10
1686.090752
 20
527.233152
 10
1686.547068
 20
527.001793
 10
1687.023856
 20
526.776056
 10
1687.5215
 20
526.555875
 10
1688.040384
 20
526.341184
 10
1688.580892
 20
526.131917
 10
1689.143408
 20
525.928008
 10
1689.728316
 20
525.729391
 10
1690.336
 20
525.5360000000001
 10
1690.966844
 20
525.347769
 10
1691.621232
 20
525.164632
 10
1692.299548
 20
524.986523
 10
1693.002176
 20
524.813376
 10
1693.7295
 20
524.645125
 10
1694.481904
 20
524.481704
 10
1695.2597719999999
 20
524.323047
 10
1696.063488
 20
524.169088
 10
1696.893436
 20
524.019761
 10
1697.75
 20
523.875
 10
1698.633564
 20
523.734739
 10
1699.544512
 20
523.598912
 10
1700.483228
 20
523.467453
 10
1701.450096
 20
523.340296
 10
1702.4455
 20
523.217375
 10
1703.469824
 20
523.098624
 10
1704.523452
 20
522.983977
 10
1705.606768
 20
522.873368
 10
1706.720156
 20
522.766731
 10
1707.864
 20
522.664
 10
1709.038684
 20
522.565109
 10
1710.244592
 20
522.469992
 10
1711.482108
 20
522.378583
 10
1712.751616
 20
522.290816
 10
1714.0535
 20
522.206625
 10
1715.388144
 20
522.125944
 10
1716.755932
 20
522.048707
 10
1718.157248
 20
521.974848
 10
1719.592476
 20
521.904301
 10
1721.062
 20
521.837
 10
1722.566204
 20
521.772879
 10
1724.105472
 20
521.711872
 10
1725.680188
 20
521.653913
 10
1727.290736
 20
521.598936
 10
1728.9375
 20
521.546875
 10
1730.620864
 20
521.497664
 10
1732.341212
 20
521.451237
 10
1734.0989280000001
 20
521.407528
 10
1735.894396
 20
521.366471
 10
1737.728
 20
521.328
 10
1739.600124
 20
521.292049
 10
1741.511152
 20
521.258552
 10
1743.461468
 20
521.227443
 10
1745.451456
 20
521.198656
 10
1747.4815
 20
521.172125
 10
1749.551984
 20
521.147784
 10
1751.663292
 20
521.125567
 10
1753.815808
 20
521.105408
 10
1756.009916
 20
521.087241
 10
1758.246
 20
521.071
 10
1760.5244440000001
 20
521.056619
 10
1762.845632
 20
521.044032
 10
1765.209948
 20
521.033173
 10
1767.617776
 20
521.023976
 10
1770.0695
 20
521.016375
 10
1772.565504
 20
521.010304
 10
1775.106172
 20
521.005697
 10
1777.691888
 20
521.002488
 10
1780.323036
 20
521.000611
 10
1783.0
 20
521.0
 10
1784.678459
 20
521.029103
 10
1786.353672
 20
521.056424
 10
1788.025393
 20
521.081981
 10
1789.693376
 20
521.105792
 10
1791.357375
 20
521.127875
 10
1793.017144
 20
521.148248
 10
1794.672437
 20
521.166929
 10
1796.323008
 20
521.183936
 10
1797.968611
 20
521.199287
 10
1799.609
 20
521.213
 10
1801.243929
 20
521.225093
 10
1802.873152
 20
521.235584
 10
1804.496423
 20
521.244491
 10
1806.113496
 20
521.251832
 10
1807.724125
 20
521.257625
 10
1809.328064
 20
521.261888
 10
1810.925067
 20
521.264639
 10
1812.514888
 20
521.265896
 10
1814.097281
 20
521.265677
 10
1815.672
 20
521.264
 10
1817.238799
 20
521.260883
 10
1818.797432
 20
521.256344
 10
1820.347653
 20
521.250401
 10
1821.889216
 20
521.243072
 10
1823.421875
 20
521.234375
 10
1824.945384
 20
521.224328
 10
1826.459497
 20
521.212949
 10
1827.963968
 20
521.200256
 10
1829.458551
 20
521.186267
 10
1830.943
 20
521.171
 10
1832.417069
 20
521.154473
 10
1833.880512
 20
521.136704
 10
1835.333083
 20
521.117711
 10
1836.774536
 20
521.097512
 10
1838.204625
 20
521.076125
 10
1839.623104
 20
521.053568
 10
1841.029727
 20
521.029859
 10
1842.424248
 20
521.005016
 10
1843.806421
 20
520.979057
 10
1845.176
 20
520.952
 10
1846.532739
 20
520.923863
 10
1847.876392
 20
520.894664
 10
1849.206713
 20
520.864421
 10
1850.523456
 20
520.833152
 10
1851.826375
 20
520.800875
 10
1853.115224
 20
520.767608
 10
1854.389757
 20
520.733369
 10
1855.649728
 20
520.698176
 10
1856.894891
 20
520.662047
 10
1858.125
 20
520.625
 10
1859.339809
 20
520.587053
 10
1860.539072
 20
520.548224
 10
1861.722543
 20
520.508531
 10
1862.889976
 20
520.467992
 10
1864.041125
 20
520.426625
 10
1865.1757440000001
 20
520.384448
 10
1866.293587
 20
520.341479
 10
1867.394408
 20
520.297736
 10
1868.477961
 20
520.253237
 10
1869.544
 20
520.208
 10
1870.592279
 20
520.162043
 10
1871.622552
 20
520.115384
 10
1872.634573
 20
520.068041
 10
1873.628096
 20
520.020032
 10
1874.602875
 20
519.971375
 10
1875.558664
 20
519.922088
 10
1876.495217
 20
519.872189
 10
1877.412288
 20
519.821696
 10
1878.309631
 20
519.770627
 10
1879.187
 20
519.719
 10
1880.044149
 20
519.666833
 10
1880.880832
 20
519.614144
 10
1881.696803
 20
519.560951
 10
1882.491816
 20
519.507272
 10
1883.265625
 20
519.453125
 10
1884.017984
 20
519.398528
 10
1884.748647
 20
519.343499
 10
1885.457368
 20
519.288056
 10
1886.143901
 20
519.232217
 10
1886.808
 20
519.176
 10
1887.449419
 20
519.119423
 10
1888.067912
 20
519.062504
 10
1888.663233
 20
519.005261
 10
1889.235136
 20
518.947712
 10
1889.783375
 20
518.889875
 10
1890.307704
 20
518.831768
 10
1890.807877
 20
518.773409
 10
1891.734771
 20
518.656007
 10
1892.562089
 20
518.537813
 10
1893.287863
 20
518.418971
 10
1893.9101249999999
 20
518.299625
 10
1894.426907
 20
518.179919
 10
1895.0
 20
518.0
 10
1895.537246
 20
517.918127
 10
1896.068768
 20
517.852616
 10
1896.594242
 20
517.803629
 10
1897.113344
 20
517.771328
 10
1897.62575
 20
517.755875
 10
1898.131136
 20
517.757432
 10
1898.793504
 20
517.786248
 10
1899.442048
 20
517.845976
 10
1900.076
 20
517.937
 10
1900.694592
 20
518.059704
 10
1901.297056
 20
518.214472
 10
1901.882624
 20
518.401688
 10
1902.450528
 20
518.621736
 10
1903.0
 20
518.875
 10
1903.530272
 20
519.161864
 10
1904.040576
 20
519.482712
 10
1904.530144
 20
519.837928
 10
1904.998208
 20
520.227896
 10
1905.444
 20
520.653
 10
1905.866752
 20
521.113624
 10
1906.265696
 20
521.610152
 10
1906.640064
 20
522.142968
 10
1906.989088
 20
522.712456
 10
1907.233762
 20
523.163869
 10
1907.463424
 20
523.636288
 10
1907.67775
 20
524.129875
 10
1907.876416
 20
524.644792
 10
1908.016824
 20
525.149698
 10
1907.823
 20
525.74225
 10
1907.407488
 20
526.179776
 10
1906.764744
 20
526.611038
 10
1906.211928
 20
526.894906
 10
1905.561
 20
527.17575
 10
1904.813112
 20
527.453474
 10
1903.969416
 20
527.727982
 10
1903.031064
 20
527.999178
 10
1902.526752
 20
528.133504
 10
1901.999208
 20
528.266966
 10
1901.448576
 20
528.399552
 10
1900.875
 20
528.53125
 10
1900.278624
 20
528.662048
 10
1899.659592
 20
528.791934
 10
1899.018048
 20
528.920896
 10
1898.354136
 20
529.048922
 10
1897.668
 20
529.176
 10
1896.959784
 20
529.302118
 10
1896.229632
 20
529.427264
 10
1895.477688
 20
529.551426
 10
1894.704096
 20
529.674592
 10
1893.909
 20
529.79675
 10
1893.092544
 20
529.917888
 10
1892.254872
 20
530.037994
 10
1891.396128
 20
530.157056
 10
1890.516456
 20
530.275062
 10
1889.616
 20
530.392
 10
1888.694904
 20
530.507858
 10
1887.753312
 20
530.622624
 10
1886.791368
 20
530.736286
 10
1885.809216
 20
530.848832
 10
1884.807
 20
530.96025
 10
1883.784864
 20
531.070528
 10
1882.742952
 20
531.179654
 10
1881.681408
 20
531.287616
 10
1880.600376
 20
531.394402
 10
1879.5
 20
531.5
 10
1878.380424
 20
531.604398
 10
1877.241792
 20
531.707584
 10
1876.084248
 20
531.809546
 10
1874.907936
 20
531.910272
 10
1873.713
 20
532.00975
 10
1872.499584
 20
532.107968
 10
1871.267832
 20
532.204914
 10
1870.017888
 20
532.300576
 10
1868.749896
 20
532.394942
 10
1867.464
 20
532.488
 10
1866.160344
 20
532.579738
 10
1864.839072
 20
532.670144
 10
1863.500328
 20
532.759206
 10
1862.144256
 20
532.846912
 10
1860.771
 20
532.93325
 10
1859.380704
 20
533.018208
 10
1857.973512
 20
533.101774
 10
1856.549568
 20
533.183936
 10
1855.109016
 20
533.264682
 10
1853.652
 20
533.344
 10
1852.178664
 20
533.421878
 10
1850.689152
 20
533.498304
 10
1849.183608
 20
533.573266
 10
1847.662176
 20
533.646752
 10
1846.125
 20
533.71875
 10
1844.572224
 20
533.789248
 10
1843.003992
 20
533.858234
 10
1841.420448
 20
533.925696
 10
1839.821736
 20
533.991622
 10
1838.208
 20
534.056
 10
1836.579384
 20
534.118818
 10
1834.936032
 20
534.180064
 10
1833.278088
 20
534.239726
 10
1831.605696
 20
534.297792
 10
1829.919
 20
534.35425
 10
1828.218144
 20
534.409088
 10
1826.503272
 20
534.462294
 10
1824.774528
 20
534.513856
 10
1823.032056
 20
534.563762
 10
1821.276
 20
534.612
 10
1819.506504
 20
534.658558
 10
1817.723712
 20
534.703424
 10
1815.927768
 20
534.746586
 10
1814.118816
 20
534.788032
 10
1812.297
 20
534.82775
 10
1810.462464
 20
534.865728
 10
1808.615352
 20
534.901954
 10
1806.755808
 20
534.936416
 10
1804.883976
 20
534.969102
 10
1803.0
 20
535.0
 10
1801.202738
 20
535.001198
 10
1799.411104
 20
535.004784
 10
1797.625326
 20
535.010746
 10
1795.845632
 20
535.019072
 10
1794.07225
 20
535.02975
 10
1792.305408
 20
535.042768
 10
1790.545334
 20
535.058114
 10
1788.792256
 20
535.075776
 10
1787.046402
 20
535.095742
 10
1785.308
 20
535.118
 10
1783.577278
 20
535.142538
 10
1781.854464
 20
535.169344
 10
1780.139786
 20
535.198406
 10
1778.433472
 20
535.229712
 10
1776.73575
 20
535.26325
 10
1775.046848
 20
535.299008
 10
1773.366994
 20
535.336974
 10
1771.696416
 20
535.377136
 10
1770.035342
 20
535.419482
 10
1768.384
 20
535.464
 10
1766.742618
 20
535.510678
 10
1765.111424
 20
535.559504
 10
1763.490646
 20
535.610466
 10
1761.880512
 20
535.663552
 10
1760.28125
 20
535.71875
 10
1758.693088
 20
535.776048
 10
1757.116254
 20
535.835434
 10
1755.550976
 20
535.896896
 10
1753.997482
 20
535.960422
 10
1752.456
 20
536.026
 10
1750.926758
 20
536.093618
 10
1749.409984
 20
536.163264
 10
1747.905906
 20
536.234926
 10
1746.414752
 20
536.308592
 10
1744.93675
 20
536.38425
 10
1743.472128
 20
536.461888
 10
1742.021114
 20
536.541494
 10
1740.583936
 20
536.623056
 10
1739.160822
 20
536.706562
 10
1737.752
 20
536.792
 10
1736.357698
 20
536.879358
 10
1734.978144
 20
536.968624
 10
1733.613566
 20
537.059786
 10
1732.264192
 20
537.152832
 10
1730.93025
 20
537.24775
 10
1729.611968
 20
537.344528
 10
1728.309574
 20
537.443154
 10
1727.023296
 20
537.543616
 10
1725.753362
 20
537.645902
 10
1724.5
 20
537.75
 10
1723.263438
 20
537.855898
 10
1722.043904
 20
537.963584
 10
1720.841626
 20
538.073046
 10
1719.656832
 20
538.184272
 10
1718.48975
 20
538.29725
 10
1717.340608
 20
538.411968
 10
1716.209634
 20
538.528414
 10
1715.097056
 20
538.646576
 10
1714.0031020000001
 20
538.766442
 10
1712.9279999999999
 20
538.888
 10
1711.8719780000001
 20
539.011238
 10
1710.835264
 20
539.136144
 10
1709.818086
 20
539.262706
 10
1708.820672
 20
539.390912
 10
1707.84325
 20
539.52075
 10
1706.886048
 20
539.652208
 10
1705.949294
 20
539.785274
 10
1705.033216
 20
539.919936
 10
1704.138042
 20
540.056182
 10
1703.264
 20
540.194
 10
1702.411318
 20
540.333378
 10
1701.580224
 20
540.474304
 10
1700.770946
 20
540.616766
 10
1699.983712
 20
540.760752
 10
1699.21875
 20
540.90625
 10
1698.476288
 20
541.053248
 10
1697.756554
 20
541.201734
 10
1697.059776
 20
541.351696
 10
1696.386182
 20
541.503122
 10
1695.736
 20
541.656
 10
1695.109458
 20
541.810318
 10
1694.506784
 20
541.966064
 10
1693.928206
 20
542.123226
 10
1693.373952
 20
542.281792
 10
1692.84425
 20
542.44175
 10
1692.339328
 20
542.603088
 10
1691.859414
 20
542.765794
 10
1690.975522
 20
543.095262
 10
1690.194398
 20
543.430058
 10
1689.517866
 20
543.770086
 10
1688.94775
 20
544.11525
 10
1688.485874
 20
544.465454
 10
1688.0
 20
545.0
 10
1687.555427
 20
545.515754
 10
1687.121816
 20
545.983232
 10
1686.699329
 20
546.402758
 10
1686.288128
 20
546.774656
 10
1685.888375
 20
547.09925
 10
1685.373459
 20
547.459018
 10
1684.879567
 20
547.736034
 10
1684.407083
 20
547.931066
 10
1683.847168
 20
548.060736
 10
1683.322053
 20
548.065006
 10
1682.832488
 20
547.945376
 10
1682.379223
 20
547.703346
 10
1681.963008
 20
547.340416
 10
1681.584593
 20
546.858086
 10
1681.309581
 20
546.387262
 10
1681.059625
 20
545.84175
 10
1680.835109
 20
545.222318
 10
1680.683648
 20
544.709696
 10
1680.546875
 20
544.15625
 10
1680.424952
 20
543.562304
 10
1680.318041
 20
542.928182
 10
1680.226304
 20
542.254208
 10
1680.149903
 20
541.540706
 10
1680.089
 20
540.788
 10
1680.057088
 20
540.264576
 10
1680.032184
 20
539.723968
 10
1680.014336
 20
539.166272
 10
1680.003592
 20
538.591584
 10
1680.0
 20
538.0
  0
ENDSEC
  0
SECTION
  2
OBJECTS
  0
DICTIONARY
  5
A
330
0
100
AcDbDictionary
280
0
281
1
  3
ACAD_COLOR
350
B
  3
ACAD_GROUP
350
C
  3
ACAD_LAYOUT
350
D
  3
ACAD_MATERIAL
350
E
  3
ACAD_MLEADERSTYLE
350
F
  3
ACAD_MLINESTYLE
350
10
  3
ACAD_PLOTSETTINGS
350
11
  3
ACAD_PLOTSTYLENAME
350
12
  3
ACAD_SCALELIST
350
14
  3
ACAD_TABLESTYLE
350
15
  3
ACAD_VISUALSTYLE
350
16
  3
EZDXF_META
350
2D
  0
DICTIONARY
  5
B
330
A
100
AcDbDictionary
280
0
281
1
  0
DICTIONARY
  5
C
330
A
100
AcDbDictionary
280
0
281
1
  0
DICTIONARY
  5
D
330
A
100
AcDbDictionary
280
0
281
1
  3
Model
350
1A
  3
Layout1
350
1E
  0
DICTIONARY
  5
E
330
A
100
AcDbDictionary
280
0
281
1
  3
ByBlock
350
1F
  3
ByLayer
350
20
  3
Global
350
21
  0
DICTIONARY
  5
F
330
A
100
AcDbDictionary
280
0
281
1
  3
Standard
350
2C
  0
DICTIONARY
  5
10
330
A
100
AcDbDictionary
280
0
281
1
  3
Standard
350
22
  0
DICTIONARY
  5
11
330
A
100
AcDbDictionary
280
0
281
1
  0
ACDBDICTIONARYWDFLT
  5
12
330
A
100
AcDbDictionary
280
0
281
1
  3
Normal
350
13
100
AcDbDictionaryWithDefault
340
13
  0
ACDBPLACEHOLDER
  5
13
330
12
  0
DICTIONARY
  5
14
330
A
100
AcDbDictionary
280
0
281
1
  0
DICTIONARY
  5
15
330
A
100
AcDbDictionary
280
0
281
1
  0
DICTIONARY
  5
16
330
A
100
AcDbDictionary
280
0
281
1
  0
LAYOUT
  5
1A
330
D
100
AcDbPlotSettings
  1

  2
Adobe PDF
  4
A3
  6

 40
7.5
 41
20.0
 42
7.5
 43
20.0
 44
420.0
 45
297.0
 46
0.0
 47
0.0
 48
0.0
 49
0.0
140
0.0
141
0.0
142
1.0
143
1.0
 70
1024
 72
1
 73
0
 74
5
  7

 75
16
 76
0
 77
2
 78
300
147
1.0
148
0.0
149
0.0
100
AcDbLayout
  1
Model
 70
1
 71
0
 10
0.0
 20
0.0
 11
420.0
 21
297.0
 12
0.0
 22
0.0
 32
0.0
 14
1e+20
 24
1e+20
 34
1e+20
 15
-1e+20
 25
-1e+20
 35
-1e+20
146
0.0
 13
0.0
 23
0.0
 33
0.0
 16
1.0
 26
0.0
 36
0.0
 17
0.0
 27
1.0
 37
0.0
 76
1
330
17
  0
LAYOUT
  5
1E
330
D
100
AcDbPlotSettings
  1

  2
Adobe PDF
  4
A3
  6

 40
7.5
 41
20.0
 42
7.5
 43
20.0
 44
420.0
 45
297.0
 46
0.0
 47
0.0
 48
0.0
 49
0.0
140
0.0
141
0.0
142
1.0
143
1.0
 70
0
 72
1
 73
0
 74
5
  7

 75
16
 76
0
 77
2
 78
300
147
1.0
148
0.0
149
0.0
100
AcDbLayout
  1
Layout1
 70
1
 71
1
 10
0.0
 20
0.0
 11
420.0
 21
297.0
 12
0.0
 22
0.0
 32
0.0
 14
1e+20
 24
1e+20
 34
1e+20
 15
-1e+20
 25
-1e+20
 35
-1e+20
146
0.0
 13
0.0
 23
0.0
 33
0.0
 16
1.0
 26
0.0
 36
0.0
 17
0.0
 27
1.0
 37
0.0
 76
1
330
1B
  0
MATERIAL
  5
1F
102
{ACAD_REACTORS
330
E
102
}
330
E
100
AcDbMaterial
  1
ByBlock
  2

 70
0
 40
1.0
 71
1
 41
1.0
 91
-1023410177
 42
1.0
 72
1
  3

 73
1
 74
1
 75
1
 44
0.5
 73
0
 45
1.0
 46
1.0
 77
1
  4

 78
1
 79
1
170
1
 48
1.0
171
1
  6

172
1
173
1
174
1
140
1.0
141
1.0
175
1
  7

176
1
177
1
178
1
143
1.0
179
1
  8

270
1
271
1
272
1
145
1.0
146
1.0
273
1
  9

274
1
275
1
276
1
 42
1.0
 72
1
  3

 73
1
 74
1
 75
1
 94
63
  0
MATERIAL
  5
20
102
{ACAD_REACTORS
330
E
102
}
330
E
100
AcDbMaterial
  1
ByLayer
  2

 70
0
 40
1.0
 71
1
 41
1.0
 91
-1023410177
 42
1.0
 72
1
  3

 73
1
 74
1
 75
1
 44
0.5
 73
0
 45
1.0
 46
1.0
 77
1
  4

 78
1
 79
1
170
1
 48
1.0
171
1
  6

172
1
173
1
174
1
140
1.0
141
1.0
175
1
  7

176
1
177
1
178
1
143
1.0
179
1
  8

270
1
271
1
272
1
145
1.0
146
1.0
273
1
  9

274
1
275
1
276
1
 42
1.0
 72
1
  3

 73
1
 74
1
 75
1
 94
63
  0
MATERIAL
  5
21
102
{ACAD_REACTORS
330
E
102
}
330
E
100
AcDbMaterial
  1
Global
  2

 70
0
 40
1.0
 71
1
 41
1.0
 91
-1023410177
 42
1.0
 72
1
  3

 73
1
 74
1
 75
1
 44
0.5
 73
0
 45
1.0
 46
1.0
 77
1
  4

 78
1
 79
1
170
1
 48
1.0
171
1
  6

172
1
173
1
174
1
140
1.0
141
1.0
175
1
  7

176
1
177
1
178
1
143
1.0
179
1
  8

270
1
271
1
272
1
145
1.0
146
1.0
273
1
  9

274
1
275
1
276
1
 42
1.0
 72
1
  3

 73
1
 74
1
 75
1
 94
63
  0
MLINESTYLE
  5
22
102
{ACAD_REACTORS
330
10
102
}
330
10
100
AcDbMlineStyle
  2
Standard
 70
0
  3

 62
256
 51
90.0
 52
90.0
 71
2
 49
0.5
 62
256
  6
BYLAYER
 49
-0.5
 62
256
  6
BYLAYER
  0
MLEADERSTYLE
  5
2C
102
{ACAD_REACTORS
330
F
102
}
330
F
100
AcDbMLeaderStyle
179
2
170
2
171
1
172
0
 90
2
 40
0.0
 41
0.0
173
1
 91
-1056964608
 92
-2
290
1
 42
2.0
291
1
 43
8.0
  3
Standard
 44
4.0
300

342
29
174
1
175
1
176
0
178
1
 93
-1056964608
 45
4.0
292
0
297
0
 46
4.0
 94
-1056964608
 47
1.0
 49
1.0
140
1.0
294
1
141
0.0
177
0
142
1.0
295
0
296
0
143
3.75
271
0
272
9
273
9
  0
DICTIONARY
  5
2D
330
A
100
AcDbDictionary
281
1
  3
CREATED_BY_EZDXF
350
2E
  3
WRITTEN_BY_EZDXF
350
35
  0
DICTIONARYVAR
  5
2E
330
2D
100
DictionaryVariables
280
0
  1
1.1.4 @ 2025-08-02T14:45:06.623833+00:00
  0
DICTIONARYVAR
  5
35
330
2D
100
DictionaryVariables
280
0
  1
1.1.4 @ 2025-08-02T14:45:06.643529+00:00
  0
ENDSEC
  0
EOF
