<?xml version="1.0" standalone="no"?>
<!DOCTYPE svg PUBLIC "-//W3C//DTD SVG 20010904//EN"
 "http://www.w3.org/TR/2001/REC-SVG-20010904/DTD/svg10.dtd">
<svg version="1.0" xmlns="http://www.w3.org/2000/svg"
 width="700.000000pt" height="700.000000pt" viewBox="0 0 700.000000 700.000000"
 preserveAspectRatio="xMidYMid meet">
<metadata>
Created by potrace 1.16, written by Peter Selinger 2001-2019
</metadata>
<g transform="translate(0.000000,700.000000) scale(0.100000,-0.100000)"
fill="#000000" stroke="none">
<path d="M1870 5819 c-35 -14 -68 -48 -93 -94 l-22 -40 0 -2196 0 -2196 30
-48 c20 -32 45 -56 74 -72 l44 -23 1586 0 c1041 0 1599 4 1623 10 45 13 103
75 118 127 8 27 10 655 8 2229 l-3 2190 -28 42 c-15 23 -45 51 -67 62 -39 20
-53 20 -1642 19 -1040 0 -1612 -4 -1628 -10z m3229 -73 c15 -8 37 -28 47 -43
18 -27 19 -85 22 -2183 1 -1185 0 -2170 -3 -2188 -3 -18 -20 -48 -37 -67 l-30
-35 -1597 0 c-1761 0 -1622 -5 -1655 64 -15 31 -16 219 -16 2204 l0 2169 23
34 c12 18 34 39 47 46 20 10 360 13 1598 13 1354 0 1577 -2 1601 -14z"/>
<path d="M3470 5683 c-14 -2 -38 -14 -52 -26 -14 -12 -170 -272 -346 -577
-175 -305 -509 -884 -740 -1286 -476 -826 -456 -782 -383 -855 l39 -39 1507 0
c1402 0 1509 1 1536 17 16 9 35 31 44 49 32 67 38 53 -240 534 -66 113 -180
311 -254 440 -75 130 -327 568 -561 974 -306 532 -432 741 -450 751 -32 16
-68 22 -100 18z m202 -700 c961 -1666 1040 -1804 1036 -1809 -3 -2 -549 -3
-1215 -2 l-1211 3 272 470 c150 259 391 675 536 925 145 250 295 510 333 578
39 67 73 122 77 122 4 0 81 -129 172 -287z"/>
<path d="M3365 4808 c-9 -26 -233 -933 -230 -936 1 -1 94 49 206 112 112 63
206 113 208 111 4 -4 -59 -498 -65 -504 -2 -2 -20 11 -41 30 l-38 33 -3 -27
c-3 -27 63 -327 78 -355 4 -9 43 35 115 135 96 132 128 183 112 183 -2 0 -24
-7 -47 -15 -24 -8 -45 -13 -48 -11 -2 3 39 182 92 398 53 216 96 396 96 400 0
4 -84 -41 -187 -99 -262 -147 -245 -138 -234 -111 5 13 73 160 150 328 78 168
144 313 147 323 5 16 -7 17 -151 17 -115 0 -157 -3 -160 -12z"/>
<path d="M3506 2576 c-57 -21 -94 -63 -112 -124 -31 -105 10 -228 89 -265 64
-31 196 -13 198 26 0 6 4 2 9 -10 7 -17 18 -23 40 -23 l30 0 0 105 0 105 -85
0 -85 0 0 -35 c0 -35 0 -35 44 -35 39 0 44 -2 39 -20 -14 -53 -103 -78 -152
-44 -51 36 -65 128 -30 201 16 33 29 45 57 54 46 13 84 1 108 -36 13 -20 25
-25 55 -25 44 0 49 12 24 60 -31 60 -152 94 -229 66z"/>
<path d="M2817 2573 c-4 -3 -7 -93 -7 -200 l0 -193 45 0 45 0 0 85 0 85 80 0
80 0 0 -85 0 -85 45 0 45 0 -2 198 -3 197 -40 0 -40 0 -3 -72 -3 -73 -79 0
-80 0 0 75 0 75 -38 0 c-21 0 -42 -3 -45 -7z"/>
<path d="M3230 2375 l0 -205 45 0 45 0 0 205 0 205 -45 0 -45 0 0 -205z"/>
<path d="M3837 2573 c-4 -3 -7 -93 -7 -200 l0 -193 45 0 45 0 0 85 0 85 80 0
80 0 0 -85 0 -85 45 0 45 0 -2 198 -3 197 -42 3 -43 3 0 -75 0 -76 -80 0 -80
0 0 75 0 75 -38 0 c-21 0 -42 -3 -45 -7z"/>
<path d="M2705 1905 c-114 -40 -158 -201 -88 -323 32 -57 83 -82 165 -82 125
0 190 72 189 208 0 107 -37 169 -118 198 -49 17 -98 17 -148 -1z m138 -77 c43
-22 62 -140 32 -198 -20 -40 -53 -60 -95 -60 -67 0 -110 53 -110 137 0 111 82
168 173 121z"/>
<path d="M4117 1906 c-87 -32 -120 -94 -115 -211 3 -72 7 -86 32 -119 15 -21
42 -46 60 -57 43 -26 130 -26 174 1 39 24 42 24 42 5 0 -10 10 -15 30 -15 l30
0 0 105 0 105 -85 0 -85 0 0 -30 c0 -29 2 -30 45 -30 55 0 59 -17 16 -61 -56
-55 -136 -33 -167 46 -31 83 7 185 75 200 37 8 97 -17 106 -44 5 -17 14 -21
51 -21 42 0 45 2 39 23 -10 34 -39 70 -73 90 -42 25 -127 31 -175 13z"/>
<path d="M2212 1898 c2 -7 31 -97 66 -200 l64 -188 42 0 43 0 67 194 c36 106
66 196 66 200 0 3 -20 6 -45 6 -25 0 -45 -1 -45 -3 0 -7 -80 -280 -83 -283 -2
-3 -14 31 -26 73 -12 43 -31 108 -42 146 l-20 67 -45 0 c-31 0 -44 -4 -42 -12z"/>
<path d="M3040 1710 l0 -200 140 0 140 0 0 35 0 34 -97 3 -98 3 -3 163 -2 162
-40 0 -40 0 0 -200z"/>
<path d="M3280 1875 l0 -35 60 0 60 0 0 -165 0 -165 45 0 45 0 0 165 0 165 55
0 55 0 0 35 0 35 -160 0 -160 0 0 -35z"/>
<path d="M3665 1723 c-37 -104 -70 -194 -72 -200 -4 -9 8 -13 41 -13 44 0 45
1 57 40 l12 40 77 0 77 0 12 -40 c11 -39 13 -40 56 -40 25 0 45 2 45 4 0 2
-31 90 -70 197 -38 106 -70 194 -70 196 0 2 -22 3 -49 3 l-49 0 -67 -187z
m143 19 c12 -38 22 -71 22 -75 0 -4 -23 -7 -51 -7 -43 0 -50 2 -45 18 22 79
41 132 46 132 3 0 16 -31 28 -68z"/>
<path d="M4450 1710 l0 -200 150 0 150 0 0 35 0 35 -110 0 -110 0 0 50 0 50
95 0 95 0 0 35 0 35 -95 0 -95 0 0 45 0 45 105 0 105 0 0 35 0 35 -145 0 -145
0 0 -200z"/>
</g>
</svg>
