<?xml version="1.0" standalone="no"?>
<!DOCTYPE svg PUBLIC "-//W3C//DTD SVG 20010904//EN"
 "http://www.w3.org/TR/2001/REC-SVG-20010904/DTD/svg10.dtd">
<svg version="1.0" xmlns="http://www.w3.org/2000/svg"
 width="202.000000pt" height="250.000000pt" viewBox="0 0 202.000000 250.000000"
 preserveAspectRatio="xMidYMid meet">
<metadata>
Created by potrace 1.16, written by Peter Selinger 2001-2019
</metadata>
<g transform="translate(0.000000,250.000000) scale(0.100000,-0.100000)"
fill="#000000" stroke="none">
<path d="M1930 2203 c0 -4 -15 -9 -32 -10 -18 -1 -96 -5 -173 -9 -77 -3 -145
-10 -151 -15 -16 -13 -123 -49 -137 -46 -7 1 -11 -4 -9 -10 1 -7 -5 -13 -13
-13 -8 0 -15 -6 -15 -14 0 -23 -40 -66 -62 -66 -19 0 -20 -2 -6 -17 25 -30 31
-43 15 -37 -8 3 -17 -2 -20 -10 -8 -19 34 -46 71 -46 29 0 71 -34 59 -47 -4
-3 1 -15 10 -25 13 -15 14 -21 5 -27 -9 -6 -10 -15 -1 -40 9 -24 9 -39 0 -57
-6 -14 -11 -34 -11 -46 0 -16 3 -18 14 -9 9 8 16 8 20 2 4 -6 13 -8 20 -5 26
10 387 -15 403 -27 12 -10 16 -10 24 2 8 12 10 12 19 -1 7 -10 9 82 7 280 -2
272 -3 295 -19 298 -10 2 -18 0 -18 -5z"/>
<path d="M1306 1973 c-6 -14 -5 -15 5 -6 7 7 10 15 7 18 -3 3 -9 -2 -12 -12z"/>
<path d="M515 1812 c-6 -4 -16 -15 -24 -25 -12 -16 -12 -18 0 -15 8 2 20 11
28 21 14 20 12 30 -4 19z"/>
<path d="M677 1762 c-9 -21 -17 -44 -17 -51 0 -7 -3 -10 -8 -7 -4 2 -14 -20
-23 -49 -9 -31 -12 -53 -6 -52 5 1 15 -20 21 -48 13 -52 35 -95 49 -95 5 0 5
8 1 18 -14 28 -9 240 7 294 11 41 -5 34 -24 -10z"/>
<path d="M830 1762 c-13 -9 -33 -25 -42 -34 -10 -10 -26 -19 -35 -19 -26 -2
36 -16 74 -18 26 -1 35 5 48 29 30 58 8 78 -45 42z"/>
<path d="M1115 1770 c-22 -35 42 -77 72 -48 13 14 12 18 -13 37 -29 23 -49 27
-59 11z"/>
<path d="M1264 1715 c4 -22 9 -75 13 -118 3 -45 11 -82 19 -88 12 -9 13 0 9
52 l-4 64 24 -47 c14 -27 27 -48 29 -48 4 0 -11 59 -34 130 -6 19 -22 49 -36
65 l-26 30 6 -40z"/>
<path d="M485 1700 c-5 -22 -1 -44 14 -75 12 -25 21 -49 21 -55 0 -5 4 -10 9
-10 8 0 22 44 26 80 1 8 5 23 10 32 7 17 -9 41 -30 45 -6 1 -17 4 -27 8 -12 5
-18 -1 -23 -25z"/>
<path d="M1370 1666 c0 -9 5 -16 10 -16 6 0 10 4 10 9 0 6 -4 13 -10 16 -5 3
-10 -1 -10 -9z"/>
<path d="M964 1622 c-29 -23 -47 -59 -34 -67 6 -4 8 -11 5 -16 -4 -5 -2 -9 3
-9 15 0 24 -31 13 -44 -9 -11 -10 -15 -12 -38 0 -7 -4 -4 -9 7 -5 11 -9 14 -9
8 -1 -7 -8 -13 -16 -13 -13 0 -14 -4 -5 -20 8 -16 8 -20 -4 -20 -28 0 -67 23
-62 37 3 7 0 12 -7 10 -7 -1 -11 4 -10 11 4 17 -12 15 -27 -3 -9 -11 -10 -15
0 -15 7 0 11 -13 9 -32 -2 -38 9 -70 22 -62 5 3 9 -6 9 -20 0 -14 5 -28 10
-31 16 -10 11 -27 -7 -23 -9 2 -15 6 -12 9 4 6 -25 39 -35 39 -3 0 -6 -15 -6
-32 0 -120 -7 -175 -29 -210 -13 -21 -18 -38 -12 -38 6 0 11 3 11 8 0 14 61
72 71 67 5 -4 9 -16 9 -28 1 -22 1 -22 15 -3 8 11 15 16 15 12 0 -5 6 -3 14 3
11 9 15 9 19 -1 4 -11 6 -10 6 0 1 7 6 10 13 6 7 -5 9 -2 6 8 -4 9 0 15 8 15
8 0 17 -10 20 -22 3 -12 12 -22 20 -22 8 0 13 6 10 13 -3 7 4 11 20 10 13 0
24 -6 24 -13 0 -6 5 -15 12 -19 7 -4 8 -3 4 4 -4 6 -2 21 5 33 8 15 8 19 0 15
-6 -4 -11 -2 -11 3 0 6 -12 11 -26 11 -14 0 -23 4 -19 10 3 5 12 7 19 4 20 -8
77 23 108 60 31 34 36 71 13 80 -10 3 -15 -1 -15 -13 0 -29 -54 -81 -83 -81
-26 0 -57 23 -57 41 0 6 -5 7 -11 4 -6 -4 -9 -1 -8 6 2 8 -5 28 -14 46 -16 29
-16 31 1 28 9 -2 31 -4 48 -4 26 -1 33 -6 41 -33 7 -24 14 -32 27 -30 15 3 18
-1 13 -18 -10 -37 5 -13 34 56 16 37 26 72 22 78 -4 8 -3 8 6 0 9 -8 9 -18 1
-39 -6 -15 -8 -31 -4 -34 9 -9 34 30 34 54 0 11 7 31 16 43 9 13 13 26 9 30
-4 4 -10 1 -12 -5 -6 -18 -29 -16 -51 3 -15 13 -18 27 -15 85 3 63 1 72 -22
94 -29 30 -89 33 -121 7z m-79 -383 c6 0 15 -10 22 -22 7 -12 12 -18 13 -14 0
13 30 -20 30 -33 0 -7 -15 1 -33 17 -20 16 -32 34 -29 43 3 8 2 12 -3 8 -11
-11 -36 12 -28 25 4 7 9 4 13 -7 3 -10 10 -17 15 -17z"/>
<path d="M760 1520 c0 -5 5 -10 11 -10 5 0 7 5 4 10 -3 6 -8 10 -11 10 -2 0
-4 -4 -4 -10z"/>
<path d="M1372 1504 c10 -10 20 -16 22 -13 3 3 -5 11 -17 18 -21 13 -21 12 -5
-5z"/>
<path d="M540 1490 c-14 -11 -20 -20 -14 -20 6 0 19 9 29 20 23 25 17 25 -15
0z"/>
<path d="M710 1450 c0 -13 5 -18 15 -14 12 5 13 10 4 20 -15 19 -19 18 -19 -6z"/>
<path d="M741 1413 c-7 -8 -11 -16 -8 -19 2 -2 10 2 17 11 17 20 9 27 -9 8z"/>
<path d="M990 1086 c0 -9 5 -16 10 -16 6 0 10 4 10 9 0 6 -4 13 -10 16 -5 3
-10 -1 -10 -9z"/>
<path d="M1070 1078 c0 -9 5 -20 10 -23 13 -8 13 5 0 25 -8 13 -10 13 -10 -2z"/>
<path d="M790 1061 c0 -5 7 -12 16 -15 24 -9 28 -7 14 9 -14 17 -30 20 -30 6z"/>
<path d="M881 1004 c0 -11 3 -14 6 -6 3 7 2 16 -1 19 -3 4 -6 -2 -5 -13z"/>
<path d="M1111 991 c-10 -7 -7 -9 12 -8 14 1 23 5 20 10 -6 9 -15 9 -32 -2z"/>
<path d="M1075 950 c3 -5 10 -10 16 -10 5 0 9 5 9 10 0 6 -7 10 -16 10 -8 0
-12 -4 -9 -10z"/>
<path d="M1195 940 c-4 -6 -16 -8 -28 -4 -19 6 -20 5 -10 -8 16 -18 7 -28 -24
-28 -14 0 -21 -4 -18 -10 3 -5 1 -18 -4 -27 -10 -17 -11 -16 -17 5 -3 12 -10
22 -15 22 -5 0 -6 -7 -3 -15 4 -9 0 -15 -10 -15 -8 0 -13 -6 -10 -13 6 -17
-52 -97 -71 -97 -8 0 -15 5 -15 10 0 6 -6 10 -14 10 -9 0 -12 7 -9 18 5 21
-37 117 -52 117 -6 1 -21 5 -34 9 -14 5 -27 4 -35 -4 -6 -6 -6 -11 -1 -10 22
5 27 -1 15 -15 -10 -12 -8 -16 14 -25 29 -11 32 -36 7 -56 -9 -7 -12 -23 -7
-55 3 -24 9 -71 12 -104 5 -39 17 -76 35 -105 15 -25 33 -68 39 -95 14 -65 28
-75 85 -62 53 12 65 5 40 -23 -17 -19 -41 -18 -30 1 3 5 -1 6 -9 3 -9 -3 -16
-10 -16 -16 0 -5 -4 -7 -8 -4 -5 3 -6 -8 -4 -24 2 -17 8 -28 12 -25 4 3 10 -4
13 -15 3 -11 10 -20 16 -20 6 0 8 8 5 18 -4 12 0 10 13 -7 l20 -23 21 46 c25
53 34 59 26 16 -6 -30 8 -43 20 -17 4 6 4 2 2 -10 -5 -28 8 -38 23 -19 8 10 9
16 1 21 -5 3 -10 18 -10 33 0 26 1 25 24 -13 14 -22 28 -38 32 -37 4 2 11 -2
15 -10 6 -9 9 -5 8 12 0 14 2 36 5 50 6 25 6 25 -5 3 -13 -25 -35 -32 -26 -8
4 8 1 17 -5 21 -6 4 -8 3 -4 -4 3 -6 2 -13 -3 -16 -5 -3 -11 1 -15 9 -3 8 0
17 6 21 7 4 6 9 -3 15 -11 7 -11 9 -1 9 21 0 70 -29 81 -47 9 -16 12 -16 21
-3 7 12 10 12 10 1 0 -8 6 -11 16 -7 9 4 23 1 30 -5 10 -8 14 -8 14 -1 0 6 -8
15 -17 21 -10 5 -15 13 -11 16 8 8 -16 35 -30 35 -6 0 -12 3 -15 8 -2 4 -2 1
-1 -5 2 -7 1 -20 -2 -28 -5 -12 -8 -12 -20 0 -16 16 -19 29 -4 20 10 -6 13 19
14 133 0 34 4 62 8 62 4 0 8 5 8 10 0 18 -49 11 -70 -10 -11 -11 -20 -24 -20
-29 0 -11 -59 -101 -65 -101 -6 0 7 31 28 67 19 33 20 64 2 65 -5 0 -19 5 -29
10 -15 8 -18 7 -14 -4 5 -12 -2 -11 -43 2 -78 27 -111 67 -72 89 10 5 15 13
11 16 -14 14 31 81 76 114 26 18 58 44 70 58 13 14 41 33 62 43 31 15 34 19
17 19 -25 1 -31 16 -10 24 6 3 2 6 -10 6 -12 1 -25 -4 -28 -9z m-83 -565 c-3
-21 -9 -34 -16 -32 -13 5 -9 36 6 55 14 17 15 16 10 -23z"/>
<path d="M1860 643 c0 -12 5 -25 11 -28 17 -11 18 -2 4 25 -14 24 -14 24 -15
3z"/>
<path d="M1144 605 c21 -16 32 -13 21 4 -3 6 -14 11 -23 11 -15 -1 -15 -2 2
-15z"/>
<path d="M580 586 c0 -14 7 -43 16 -64 18 -44 29 -136 14 -127 -6 3 -10 1 -10
-4 0 -18 -24 -12 -38 9 -18 29 -45 25 -60 -9 -15 -33 -47 -33 -37 -1 3 11 0
22 -8 27 -8 4 -17 15 -20 23 -3 9 -6 4 -6 -11 -1 -15 -8 -29 -15 -32 -11 -4
-13 -16 -9 -44 5 -35 4 -37 -9 -19 -27 35 -85 25 -71 -11 6 -14 8 -14 14 3 7
17 8 16 9 -6 1 -14 3 -29 5 -35 1 -5 3 -19 4 -30 1 -17 3 -18 11 -5 5 8 10 11
10 6 0 -5 7 -3 15 4 13 10 19 10 34 -4 16 -15 22 -15 41 -4 18 11 22 11 31 -5
10 -16 12 -17 22 -3 11 14 15 14 39 2 16 -9 30 -11 33 -5 8 12 72 12 80 -1 4
-6 15 -1 26 12 12 13 17 16 13 8 -5 -11 -4 -12 4 -5 15 14 24 112 12 120 -6 3
-10 1 -10 -6 0 -10 -3 -10 -11 -2 -9 9 -9 23 -1 52 9 38 8 43 -15 61 -14 11
-43 43 -64 71 -50 67 -49 67 -49 35z m32 -296 c19 0 -1 -14 -22 -15 -11 -1
-20 5 -20 13 0 9 6 12 16 8 9 -3 21 -6 26 -6z"/>
<path d="M430 585 c-19 -23 -1 -39 21 -19 10 9 19 21 19 26 0 13 -27 9 -40 -7z"/>
<path d="M1487 544 c-4 -4 -7 -16 -7 -28 0 -11 -10 -31 -22 -45 l-23 -26 26
23 c14 12 29 19 34 15 4 -5 5 -2 1 5 -4 7 -2 20 5 28 12 15 -1 41 -14 28z"/>
<path d="M1700 531 c0 -5 5 -13 10 -16 6 -3 10 -2 10 4 0 5 -4 13 -10 16 -5 3
-10 2 -10 -4z"/>
<path d="M1545 460 c-3 -5 -1 -10 4 -10 6 0 11 5 11 10 0 6 -2 10 -4 10 -3 0
-8 -4 -11 -10z"/>
<path d="M1571 440 c-21 -36 -31 -121 -16 -127 6 -2 11 15 11 37 1 22 7 46 13
54 7 8 11 25 9 38 l-3 23 -14 -25z"/>
<path d="M1412 397 l-23 -42 24 25 c13 13 24 33 24 42 2 25 1 24 -25 -25z"/>
<path d="M1790 416 c0 -2 7 -9 15 -16 9 -7 15 -8 15 -2 0 5 -7 12 -15 16 -8 3
-15 4 -15 2z"/>
<path d="M1886 403 c-11 -11 -6 -23 9 -23 8 0 15 4 15 9 0 13 -16 22 -24 14z"/>
<path d="M1373 350 c0 -25 2 -35 4 -22 2 12 2 32 0 45 -2 12 -4 2 -4 -23z"/>
<path d="M1621 374 c0 -11 3 -14 6 -6 3 7 2 16 -1 19 -3 4 -6 -2 -5 -13z"/>
<path d="M1756 375 c-11 -8 -15 -15 -10 -15 6 0 15 5 22 12 16 16 16 -4 0 -21
-11 -11 -10 -13 4 -8 9 3 19 1 22 -6 7 -18 7 19 0 37 -7 19 -13 20 -38 1z"/>
<path d="M1920 369 c0 -11 4 -18 10 -14 5 3 7 12 3 20 -7 21 -13 19 -13 -6z"/>
<path d="M80 354 c0 -14 -4 -23 -9 -20 -5 4 -7 -3 -4 -13 3 -11 14 -21 25 -24
15 -4 18 -2 13 10 -3 9 0 20 7 25 10 8 10 11 1 15 -7 2 -13 11 -13 19 0 8 -4
14 -10 14 -5 0 -10 -12 -10 -26z"/>
<path d="M266 363 c-6 -14 -9 -15 -15 -4 -6 10 -10 9 -15 -5 -4 -11 -1 -21 9
-27 10 -5 14 -16 10 -28 -4 -13 -2 -19 9 -19 9 0 16 5 16 11 0 7 10 5 25 -5
30 -20 41 -21 26 -2 -7 8 -14 25 -15 38 -8 55 -36 78 -50 41z"/>
<path d="M1820 369 c0 -20 16 -43 23 -32 3 4 -1 17 -9 28 -10 13 -14 15 -14 4z"/>
<path d="M1706 355 c-3 -8 -1 -15 3 -15 5 0 11 7 15 15 3 8 1 15 -3 15 -5 0
-11 -7 -15 -15z"/>
<path d="M147 342 c-19 -21 -22 -42 -7 -42 6 0 11 10 11 23 1 16 2 18 6 5 2
-10 9 -18 14 -18 11 0 12 20 1 38 -7 10 -12 8 -25 -6z"/>
<path d="M1900 351 c0 -6 4 -13 10 -16 6 -3 7 1 4 9 -7 18 -14 21 -14 7z"/>
<path d="M1457 343 c-9 -8 12 -33 27 -33 6 0 3 5 -7 11 -9 6 -15 14 -12 20 7
10 2 12 -8 2z"/>
<path d="M1497 343 c-3 -5 1 -17 9 -28 8 -10 14 -15 15 -9 0 5 4 0 8 -11 5
-12 4 -23 -3 -27 -7 -5 -5 -8 6 -8 9 0 20 5 23 10 3 6 2 10 -2 10 -5 0 -13 14
-18 32 -10 31 -28 47 -38 31z"/>
<path d="M1640 331 c0 -5 -8 -11 -17 -13 -16 -3 -15 -6 4 -16 19 -11 22 -10
17 3 -4 8 -1 15 5 15 6 0 11 5 11 10 0 6 -4 10 -10 10 -5 0 -10 -4 -10 -9z"/>
<path d="M1811 324 c0 -11 3 -14 6 -6 3 7 2 16 -1 19 -3 4 -6 -2 -5 -13z"/>
<path d="M1940 335 c0 -3 7 -14 16 -23 15 -14 16 -14 13 3 -4 17 -29 35 -29
20z"/>
<path d="M40 306 c0 -8 4 -17 9 -20 5 -4 7 3 4 14 -6 23 -13 26 -13 6z"/>
<path d="M198 313 c6 -2 18 -2 25 0 6 3 1 5 -13 5 -14 0 -19 -2 -12 -5z"/>
<path d="M1420 306 c0 -2 7 -7 16 -10 8 -3 12 -2 9 4 -6 10 -25 14 -25 6z"/>
<path d="M963 282 c1 -14 5 -18 11 -12 7 7 6 14 -1 21 -9 9 -12 7 -10 -9z"/>
<path d="M290 271 c0 -6 4 -13 10 -16 6 -3 7 1 4 9 -7 18 -14 21 -14 7z"/>
<path d="M1437 273 c-15 -14 -6 -31 12 -26 12 3 17 11 14 19 -6 15 -16 18 -26
7z"/>
<path d="M1670 272 c0 -12 19 -26 26 -19 2 2 -2 10 -11 17 -9 8 -15 8 -15 2z"/>
<path d="M850 236 c0 -9 7 -16 16 -16 17 0 14 22 -4 28 -7 2 -12 -3 -12 -12z"/>
<path d="M1340 236 c0 -9 5 -16 10 -16 6 0 10 4 10 9 0 6 -4 13 -10 16 -5 3
-10 -1 -10 -9z"/>
<path d="M1150 227 c0 -7 -13 -18 -30 -24 -21 -8 -30 -18 -30 -33 0 -13 5 -20
13 -17 13 4 36 -21 37 -40 0 -7 -6 -13 -14 -13 -8 0 -24 -9 -37 -20 l-24 -19
68 -1 c50 0 67 3 67 14 0 7 -9 16 -20 19 -16 4 -20 14 -20 52 0 39 4 48 20 52
20 5 20 6 -1 24 -26 22 -29 23 -29 6z"/>
<path d="M40 195 c-6 -19 -16 -33 -21 -30 -5 4 -8 -11 -8 -32 1 -21 3 -30 6
-20 2 9 10 17 17 17 6 0 31 12 53 27 35 22 40 30 32 45 -6 11 -18 18 -27 16
-9 -1 -22 1 -29 5 -7 5 -15 -5 -23 -28z"/>
<path d="M295 220 c-3 -5 -1 -10 4 -10 6 0 11 5 11 10 0 6 -2 10 -4 10 -3 0
-8 -4 -11 -10z"/>
<path d="M940 196 c0 -8 4 -17 8 -20 4 -2 8 4 8 15 0 10 -4 19 -8 19 -4 0 -8
-6 -8 -14z"/>
<path d="M979 174 c-15 -32 -15 -34 8 -54 36 -31 63 -27 63 10 0 18 -5 29 -12
27 -7 -1 -15 12 -19 28 -4 17 -7 23 -8 15 -1 -10 -4 -11 -9 -4 -4 7 -13 -2
-23 -22z"/>
<path d="M830 190 c0 -6 -10 -8 -23 -5 -17 5 -23 2 -24 -13 -1 -14 10 -25 38
-37 21 -10 41 -16 43 -14 7 6 -18 79 -26 79 -5 0 -8 -5 -8 -10z"/>
<path d="M1600 180 c0 -12 28 -21 35 -11 2 5 -4 11 -15 14 -11 3 -20 2 -20 -3z"/>
<path d="M1786 144 c-3 -9 -6 -28 -6 -44 0 -16 -6 -31 -12 -33 -7 -3 24 -6 69
-6 45 -1 85 4 88 9 3 6 -3 10 -15 10 -12 0 -19 4 -16 9 3 5 -11 17 -32 26 -20
10 -41 24 -45 31 -11 19 -23 18 -31 -2z"/>
<path d="M583 123 c-13 -9 -23 -26 -23 -39 0 -21 5 -24 40 -24 33 0 42 4 52
24 22 50 -20 74 -69 39z"/>
<path d="M870 103 c-9 -2 -21 -12 -28 -23 -12 -19 -9 -20 53 -20 62 0 84 11
48 24 -10 3 -27 9 -38 14 -11 5 -27 7 -35 5z"/>
<path d="M1506 93 c-3 -3 -6 -12 -6 -20 0 -15 36 -18 45 -4 7 12 -29 33 -39
24z"/>
</g>
</svg>
